<?xml version="1.0" encoding="UTF-8"?>
<!DOCTYPE svg PUBLIC "-//W3C//DTD SVG 1.0//EN" "http://www.w3.org/TR/2001/REC-SVG-20010904/DTD/svg10.dtd">
<!-- Creator: CorelDRAW 2018 (64-Bit) -->
<svg xmlns="http://www.w3.org/2000/svg" xml:space="preserve" width="151px" height="67px" version="1.0" style="shape-rendering:geometricPrecision; text-rendering:geometricPrecision; image-rendering:optimizeQuality; fill-rule:evenodd; clip-rule:evenodd"
viewBox="0 0 99.93 44.31"
 xmlns:xlink="http://www.w3.org/1999/xlink">
 <defs>
  <style type="text/css">
   <![CDATA[
    .str1 {stroke:#F9C216;stroke-width:1.56;stroke-miterlimit:22.9256}
    .str0 {stroke:black;stroke-width:0.6;stroke-miterlimit:2.61313}
    .fil2 {fill:none;fill-rule:nonzero}
    .fil4 {fill:#000304}
    .fil3 {fill:#E92525}
    .fil5 {fill:#F9C216}
    .fil1 {fill:black;fill-rule:nonzero}
    .fil0 {fill:red;fill-rule:nonzero}
   ]]>
  </style>
 </defs>
 <g id="Layer_x0020_1">
  <metadata id="CorelCorpID_0Corel-Layer"/>
  <path class="fil0" d="M38.04 38.38l1.5 0 0 0.8 -0.14 0c-0.08,0 -0.13,0.02 -0.16,0.05 -0.02,0.03 -0.04,0.07 -0.06,0.12 -0.01,0.06 -0.01,0.18 -0.01,0.36l0 1.02 1.12 0 0 -1.1c0,-0.13 0,-0.22 -0.01,-0.27 -0.01,-0.07 -0.03,-0.11 -0.06,-0.14 -0.03,-0.02 -0.09,-0.04 -0.18,-0.04l-0.12 0 0 -0.8 1.5 0 0 0.8 -0.12 0c-0.09,0 -0.15,0.02 -0.17,0.04 -0.03,0.03 -0.05,0.07 -0.06,0.12 -0.01,0.05 -0.02,0.17 -0.02,0.37l0 3.16c0,0.2 0.01,0.33 0.02,0.38 0.02,0.06 0.04,0.1 0.07,0.12 0.02,0.03 0.09,0.04 0.19,0.04l0.09 0 0 0.81 -1.5 0 0 -0.81 0.1 0c0.09,0 0.15,-0.01 0.19,-0.04 0.03,-0.03 0.05,-0.07 0.06,-0.12 0.02,-0.06 0.02,-0.18 0.02,-0.38l0 -1.24 -1.12 0 0 1.24c0,0.2 0,0.32 0.01,0.37 0.01,0.07 0.04,0.11 0.07,0.14 0.03,0.02 0.09,0.03 0.18,0.03l0.11 0 0 0.81 -1.5 0 0 -0.81 0.1 0c0.09,0 0.15,-0.01 0.18,-0.04 0.03,-0.03 0.06,-0.07 0.07,-0.12 0.01,-0.05 0.02,-0.16 0.02,-0.33l0 -3.18c0,-0.19 -0.01,-0.32 -0.02,-0.38 -0.01,-0.06 -0.03,-0.11 -0.06,-0.14 -0.03,-0.02 -0.08,-0.04 -0.15,-0.04l-0.14 0 0 -0.8z"/>
  <path id="1" class="fil0" d="M43.97 41.69l0 -0.31c0,-0.18 -0.01,-0.31 -0.03,-0.38 -0.01,-0.07 -0.04,-0.13 -0.08,-0.17 -0.05,-0.05 -0.1,-0.07 -0.16,-0.07 -0.05,0 -0.1,0.02 -0.14,0.05 -0.04,0.03 -0.07,0.06 -0.09,0.11 -0.03,0.05 -0.05,0.14 -0.08,0.28 -0.04,0.17 -0.09,0.29 -0.15,0.37 -0.05,0.07 -0.12,0.11 -0.19,0.11 -0.1,0 -0.17,-0.06 -0.23,-0.17 -0.06,-0.11 -0.09,-0.25 -0.09,-0.41 0,-0.19 0.03,-0.35 0.09,-0.5 0.08,-0.19 0.2,-0.35 0.37,-0.47 0.16,-0.12 0.34,-0.18 0.55,-0.18 0.2,0 0.38,0.06 0.52,0.18 0.14,0.13 0.24,0.28 0.3,0.45 0.06,0.18 0.09,0.44 0.09,0.8l0 1.49c0,0.19 0,0.3 0.01,0.35 0.01,0.06 0.03,0.1 0.07,0.14 0.03,0.04 0.07,0.06 0.11,0.06 0.04,0 0.1,-0.02 0.17,-0.07l0 0.82c-0.13,0.08 -0.25,0.11 -0.36,0.11 -0.14,0 -0.25,-0.04 -0.35,-0.12 -0.1,-0.09 -0.18,-0.21 -0.24,-0.38 -0.15,0.18 -0.28,0.31 -0.4,0.39 -0.12,0.08 -0.24,0.11 -0.35,0.11 -0.21,0 -0.38,-0.11 -0.51,-0.33 -0.13,-0.23 -0.2,-0.5 -0.2,-0.83 0,-0.19 0.03,-0.36 0.07,-0.52 0.05,-0.15 0.11,-0.29 0.2,-0.41 0.09,-0.11 0.23,-0.22 0.42,-0.31 0.18,-0.09 0.41,-0.15 0.68,-0.19zm0 0.69c-0.2,0.05 -0.33,0.11 -0.41,0.16 -0.08,0.06 -0.14,0.12 -0.17,0.21 -0.04,0.08 -0.05,0.16 -0.05,0.25 0,0.11 0.02,0.2 0.06,0.28 0.05,0.08 0.11,0.11 0.18,0.11 0.05,0 0.11,-0.02 0.17,-0.07 0.07,-0.05 0.14,-0.12 0.22,-0.21l0 -0.73z"/>
  <path id="2" class="fil0" d="M47.62 40.04l0.29 0 0.17 1.17 -0.41 0.31c-0.08,-0.24 -0.18,-0.42 -0.3,-0.56 -0.12,-0.14 -0.24,-0.21 -0.36,-0.21 -0.07,0 -0.13,0.03 -0.17,0.08 -0.04,0.04 -0.06,0.1 -0.06,0.17 0,0.06 0.02,0.11 0.04,0.16 0.03,0.05 0.09,0.11 0.17,0.16l0.61 0.41c0.11,0.07 0.21,0.16 0.31,0.27 0.09,0.11 0.17,0.24 0.22,0.4 0.05,0.16 0.07,0.34 0.07,0.55 0,0.38 -0.07,0.69 -0.23,0.93 -0.18,0.29 -0.4,0.43 -0.67,0.43 -0.23,0 -0.43,-0.11 -0.6,-0.32l-0.06 0.23 -0.29 0 -0.27 -1.37 0.41 -0.33c0.11,0.31 0.24,0.55 0.39,0.72 0.15,0.18 0.29,0.26 0.42,0.26 0.08,0 0.14,-0.03 0.2,-0.1 0.04,-0.06 0.06,-0.12 0.06,-0.2 0,-0.06 -0.02,-0.12 -0.05,-0.18 -0.03,-0.06 -0.1,-0.12 -0.21,-0.2l-0.48 -0.31c-0.26,-0.18 -0.44,-0.36 -0.53,-0.56 -0.1,-0.2 -0.15,-0.44 -0.15,-0.71 0,-0.35 0.08,-0.65 0.23,-0.89 0.17,-0.27 0.38,-0.4 0.62,-0.4 0.22,0 0.41,0.09 0.57,0.28l0.06 -0.19z"/>
  <path id="3" class="fil0" d="M50.4 38.07l0 3.77 0.42 -0.68c0.05,-0.07 0.07,-0.12 0.08,-0.14 0.01,-0.02 0.01,-0.04 0.01,-0.06 0,-0.03 -0.01,-0.06 -0.03,-0.08 -0.02,-0.02 -0.06,-0.03 -0.12,-0.03l-0.08 0 0 -0.81 1.34 0 0 0.81c-0.09,0 -0.16,0.01 -0.2,0.03 -0.04,0.04 -0.12,0.13 -0.23,0.28l-0.43 0.6 0.61 1.34c0.06,0.14 0.11,0.23 0.15,0.26 0.04,0.03 0.12,0.05 0.23,0.05l0 0.81 -1.36 0 0 -0.81 0.07 0c0.06,0 0.09,-0.01 0.11,-0.03 0.02,-0.02 0.03,-0.04 0.03,-0.07 0,-0.04 -0.03,-0.12 -0.07,-0.24l-0.26 -0.61 -0.27 0.39 0 0.22c0,0.11 0,0.18 0.01,0.22 0.01,0.03 0.02,0.06 0.04,0.09 0.03,0.02 0.06,0.03 0.1,0.03l0.08 0 0 0.81 -1.26 0 0 -0.81c0.04,0 0.08,0 0.1,0 0.08,0 0.14,-0.01 0.16,-0.03 0.02,-0.02 0.04,-0.06 0.05,-0.11 0.01,-0.03 0.01,-0.16 0.01,-0.36l0 -3.68 -0.32 0 0 -0.8c0.25,-0.02 0.52,-0.14 0.81,-0.36l0.22 0z"/>
  <path id="4" class="fil0" d="M55.2 42.67l0.31 0.57c-0.18,0.38 -0.35,0.65 -0.53,0.82 -0.18,0.17 -0.38,0.25 -0.59,0.25 -0.33,0 -0.62,-0.21 -0.84,-0.64 -0.23,-0.43 -0.35,-0.95 -0.35,-1.56 0,-0.4 0.05,-0.77 0.16,-1.1 0.1,-0.33 0.24,-0.6 0.42,-0.78 0.19,-0.19 0.39,-0.28 0.62,-0.28 0.15,0 0.29,0.04 0.41,0.12 0.12,0.08 0.22,0.19 0.31,0.34 0.09,0.15 0.17,0.33 0.22,0.55 0.06,0.21 0.1,0.43 0.12,0.66 0.01,0.11 0.01,0.29 0.01,0.54l-1.49 0c0.01,0.35 0.06,0.64 0.17,0.85 0.1,0.22 0.23,0.33 0.39,0.33 0.1,0 0.2,-0.05 0.32,-0.17 0.12,-0.11 0.23,-0.28 0.34,-0.5zm-0.44 -1.22c-0.01,-0.16 -0.03,-0.29 -0.06,-0.39 -0.03,-0.09 -0.07,-0.17 -0.13,-0.22 -0.05,-0.06 -0.11,-0.09 -0.17,-0.09 -0.06,0 -0.12,0.03 -0.17,0.09 -0.06,0.06 -0.11,0.13 -0.14,0.23 -0.04,0.1 -0.06,0.23 -0.07,0.38l0.74 0z"/>
  <path id="5" class="fil0" d="M57.68 39.95l0 0.55c0.17,-0.21 0.31,-0.36 0.43,-0.44 0.12,-0.08 0.24,-0.11 0.36,-0.11 0.14,0 0.27,0.05 0.38,0.17 0.11,0.11 0.19,0.25 0.24,0.43 0.05,0.17 0.08,0.41 0.08,0.73l0 1.73c0,0.15 0,0.25 0.01,0.29 0.01,0.04 0.03,0.07 0.05,0.09 0.02,0.01 0.07,0.02 0.16,0.02l0.11 0 0 0.81 -1.29 0 0 -0.81c0.09,0 0.15,-0.01 0.16,-0.01 0.04,-0.02 0.06,-0.05 0.07,-0.1 0.01,-0.04 0.02,-0.14 0.02,-0.29l0 -1.52c0,-0.2 -0.01,-0.33 -0.03,-0.39 -0.04,-0.09 -0.09,-0.14 -0.17,-0.14 -0.06,0 -0.13,0.02 -0.2,0.08 -0.08,0.05 -0.17,0.16 -0.3,0.32l0 1.65c0,0.18 0.01,0.3 0.04,0.34 0.02,0.04 0.07,0.06 0.15,0.06l0.07 0 0 0.81 -1.29 0 0 -0.81 0.07 0c0.1,0 0.16,-0.01 0.19,-0.02 0.02,-0.02 0.04,-0.05 0.05,-0.09 0.01,-0.04 0.02,-0.13 0.02,-0.25l0 -1.94 -0.33 0 0 -0.8c0.27,-0.07 0.51,-0.19 0.74,-0.36l0.21 0z"/>
  <path id="6" class="fil0" d="M63.3 38.38l0.7 0 0.92 4.51c0.05,0.23 0.1,0.38 0.13,0.44 0.04,0.05 0.11,0.08 0.22,0.08l0 0.81 -1.46 0 0 -0.81 0.09 0c0.08,0 0.14,-0.02 0.17,-0.07 0.03,-0.04 0.05,-0.09 0.05,-0.14 0,-0.05 -0.01,-0.16 -0.04,-0.31l-0.1 -0.53 -0.93 0 -0.11 0.59c-0.03,0.12 -0.04,0.2 -0.04,0.24 0,0.05 0.01,0.09 0.03,0.12 0.01,0.04 0.04,0.07 0.08,0.08 0.02,0.01 0.09,0.02 0.21,0.02l0 0.81 -1.2 0 0 -0.81c0.08,0 0.14,-0.01 0.17,-0.04 0.04,-0.02 0.07,-0.06 0.09,-0.11 0.02,-0.05 0.05,-0.14 0.07,-0.28l0.95 -4.6zm-0.09 3.14l0.61 0 -0.3 -1.59 -0.31 1.59z"/>
  <path id="7" class="fil0" d="M67.31 38.07l0 4.9c0,0.16 0,0.26 0.01,0.29 0.01,0.06 0.03,0.1 0.06,0.12 0.03,0.02 0.09,0.03 0.18,0.03l0.08 0 0 0.81 -1.36 0 0 -0.81 0.08 0c0.09,0 0.14,-0.01 0.17,-0.03 0.02,-0.02 0.04,-0.06 0.05,-0.1 0.01,-0.05 0.02,-0.15 0.02,-0.31l0 -3.74 -0.32 0 0 -0.8c0.26,-0.04 0.53,-0.16 0.81,-0.36l0.22 0z"/>
  <path id="8" class="fil0" d="M69.11 41.12l-0.25 -0.52c0.19,-0.33 0.31,-0.57 0.36,-0.7 0.05,-0.12 0.1,-0.28 0.13,-0.47 -0.03,0.04 -0.06,0.07 -0.09,0.08 -0.03,0.02 -0.06,0.03 -0.09,0.03 -0.08,0 -0.15,-0.06 -0.22,-0.2 -0.06,-0.13 -0.1,-0.29 -0.1,-0.48 0,-0.22 0.04,-0.41 0.13,-0.56 0.08,-0.16 0.18,-0.23 0.29,-0.23 0.09,0 0.18,0.05 0.26,0.14 0.08,0.09 0.14,0.22 0.18,0.38 0.05,0.17 0.07,0.35 0.07,0.57 0,0.35 -0.06,0.7 -0.19,1.04 -0.12,0.33 -0.28,0.64 -0.48,0.92z"/>
  <path id="9" class="fil0" d="M71 40.04l1.03 -0.03 0 2.7c0,0.2 0,0.32 0.02,0.39 0.01,0.06 0.03,0.11 0.07,0.16 0.03,0.04 0.07,0.06 0.12,0.06 0.08,0 0.15,-0.04 0.24,-0.1 0.03,-0.03 0.12,-0.13 0.26,-0.3l0 -1.63c0,-0.14 -0.01,-0.24 -0.02,-0.29 -0.01,-0.06 -0.03,-0.09 -0.05,-0.12 -0.02,-0.02 -0.07,-0.03 -0.13,-0.03l-0.13 0 0 -0.81 1.03 -0.03 0 2.98c0,0.16 0.01,0.26 0.02,0.3 0.01,0.04 0.02,0.07 0.04,0.08 0.02,0.02 0.07,0.03 0.15,0.03l0.12 0 0 0.82 -0.96 0.05 0 -0.5c-0.13,0.18 -0.26,0.31 -0.4,0.4 -0.13,0.09 -0.26,0.14 -0.39,0.14 -0.11,0 -0.2,-0.03 -0.29,-0.1 -0.09,-0.06 -0.17,-0.15 -0.23,-0.26 -0.06,-0.11 -0.1,-0.24 -0.13,-0.39 -0.03,-0.15 -0.05,-0.33 -0.05,-0.57l0 -1.72c0,-0.16 0,-0.26 -0.01,-0.3 -0.01,-0.04 -0.03,-0.07 -0.05,-0.09 -0.02,-0.02 -0.07,-0.03 -0.14,-0.03l-0.12 0 0 -0.81z"/>
  <path id="10" class="fil0" d="M75.91 39.95l0 0.55c0.13,-0.19 0.26,-0.32 0.39,-0.42 0.14,-0.09 0.27,-0.13 0.41,-0.13 0.09,0 0.17,0.02 0.25,0.07 0.08,0.05 0.15,0.11 0.2,0.19 0.05,0.08 0.1,0.18 0.15,0.32 0.14,-0.21 0.27,-0.36 0.41,-0.45 0.13,-0.09 0.26,-0.13 0.4,-0.13 0.11,0 0.22,0.04 0.32,0.12 0.09,0.08 0.17,0.19 0.23,0.33 0.06,0.13 0.1,0.28 0.11,0.44 0.01,0.11 0.02,0.25 0.02,0.44l0 1.73c0,0.15 0.01,0.24 0.02,0.28 0.01,0.04 0.03,0.07 0.05,0.09 0.02,0.02 0.07,0.03 0.16,0.03l0.1 0 0 0.81 -1.29 0 0 -0.81c0.1,0 0.16,-0.01 0.18,-0.03 0.03,-0.02 0.05,-0.04 0.06,-0.08 0.01,-0.05 0.02,-0.13 0.02,-0.27l0 -1.52c0,-0.17 -0.01,-0.29 -0.02,-0.35 -0.02,-0.05 -0.04,-0.1 -0.08,-0.14 -0.03,-0.04 -0.07,-0.06 -0.12,-0.06 -0.06,0 -0.12,0.02 -0.19,0.07 -0.07,0.05 -0.16,0.16 -0.29,0.32l0 1.63c0,0.17 0,0.27 0.01,0.31 0.02,0.04 0.04,0.07 0.06,0.09 0.02,0.02 0.08,0.03 0.18,0.03l0 0.81 -1.21 0 0 -0.81c0.1,0 0.16,-0.01 0.18,-0.03 0.02,-0.02 0.04,-0.05 0.05,-0.09 0.02,-0.05 0.02,-0.15 0.02,-0.3l0 -1.43c0,-0.22 -0.01,-0.37 -0.03,-0.44 -0.03,-0.11 -0.09,-0.16 -0.17,-0.16 -0.04,0 -0.09,0.01 -0.13,0.03 -0.05,0.02 -0.09,0.05 -0.14,0.09 -0.02,0.02 -0.08,0.09 -0.18,0.22l-0.05 0.06 0 1.63c0,0.15 0.01,0.25 0.01,0.29 0.01,0.04 0.03,0.07 0.06,0.09 0.02,0.03 0.07,0.04 0.13,0.04l0.06 0 0 0.81 -1.29 0 0 -0.81 0.09 0c0.09,0 0.14,-0.01 0.17,-0.03 0.02,-0.02 0.04,-0.05 0.05,-0.09 0.01,-0.05 0.02,-0.15 0.02,-0.3l0 -1.88 -0.33 0 0 -0.8c0.27,-0.05 0.52,-0.17 0.75,-0.36l0.2 0z"/>
  <path id="11" class="fil0" d="M81.31 39.95l0 0.55c0.13,-0.19 0.26,-0.32 0.39,-0.42 0.13,-0.09 0.27,-0.13 0.4,-0.13 0.09,0 0.17,0.02 0.25,0.07 0.08,0.05 0.15,0.11 0.2,0.19 0.06,0.08 0.11,0.18 0.15,0.32 0.14,-0.21 0.28,-0.36 0.41,-0.45 0.13,-0.09 0.26,-0.13 0.4,-0.13 0.12,0 0.22,0.04 0.32,0.12 0.1,0.08 0.17,0.19 0.23,0.33 0.06,0.13 0.1,0.28 0.12,0.44 0.01,0.11 0.01,0.25 0.01,0.44l0 1.73c0,0.15 0.01,0.24 0.02,0.28 0.01,0.04 0.03,0.07 0.06,0.09 0.02,0.02 0.07,0.03 0.15,0.03l0.1 0 0 0.81 -1.28 0 0 -0.81c0.09,0 0.15,-0.01 0.18,-0.03 0.02,-0.02 0.04,-0.04 0.05,-0.08 0.01,-0.05 0.02,-0.13 0.02,-0.27l0 -1.52c0,-0.17 -0.01,-0.29 -0.02,-0.35 -0.01,-0.05 -0.04,-0.1 -0.07,-0.14 -0.04,-0.04 -0.08,-0.06 -0.13,-0.06 -0.06,0 -0.12,0.02 -0.19,0.07 -0.06,0.05 -0.16,0.16 -0.29,0.32l0 1.63c0,0.17 0.01,0.27 0.02,0.31 0.01,0.04 0.03,0.07 0.06,0.09 0.02,0.02 0.08,0.03 0.17,0.03l0 0.81 -1.21 0 0 -0.81c0.1,0 0.16,-0.01 0.19,-0.03 0.02,-0.02 0.04,-0.05 0.05,-0.09 0.01,-0.05 0.02,-0.15 0.02,-0.3l0 -1.43c0,-0.22 -0.02,-0.37 -0.04,-0.44 -0.03,-0.11 -0.09,-0.16 -0.17,-0.16 -0.04,0 -0.08,0.01 -0.13,0.03 -0.04,0.02 -0.09,0.05 -0.13,0.09 -0.03,0.02 -0.09,0.09 -0.18,0.22l-0.06 0.06 0 1.63c0,0.15 0.01,0.25 0.02,0.29 0.01,0.04 0.02,0.07 0.05,0.09 0.03,0.03 0.07,0.04 0.13,0.04l0.06 0 0 0.81 -1.29 0 0 -0.81 0.09 0c0.09,0 0.15,-0.01 0.17,-0.03 0.02,-0.02 0.04,-0.05 0.05,-0.09 0.01,-0.05 0.02,-0.15 0.02,-0.3l0 -1.88 -0.33 0 0 -0.8c0.27,-0.05 0.52,-0.17 0.75,-0.36l0.21 0z"/>
  <path id="12" class="fil0" d="M87.04 41.69l0 -0.31c0,-0.18 -0.01,-0.31 -0.03,-0.38 -0.01,-0.07 -0.04,-0.13 -0.09,-0.17 -0.04,-0.05 -0.09,-0.07 -0.16,-0.07 -0.05,0 -0.09,0.02 -0.13,0.05 -0.04,0.03 -0.07,0.06 -0.09,0.11 -0.03,0.05 -0.06,0.14 -0.09,0.28 -0.04,0.17 -0.08,0.29 -0.14,0.37 -0.05,0.07 -0.12,0.11 -0.19,0.11 -0.1,0 -0.18,-0.06 -0.24,-0.17 -0.06,-0.11 -0.09,-0.25 -0.09,-0.41 0,-0.19 0.03,-0.35 0.1,-0.5 0.08,-0.19 0.2,-0.35 0.37,-0.47 0.16,-0.12 0.34,-0.18 0.55,-0.18 0.2,0 0.38,0.06 0.52,0.18 0.14,0.13 0.24,0.28 0.3,0.45 0.06,0.18 0.08,0.44 0.08,0.8l0 1.49c0,0.19 0.01,0.3 0.02,0.35 0.01,0.06 0.03,0.1 0.07,0.14 0.03,0.04 0.07,0.06 0.11,0.06 0.04,0 0.1,-0.02 0.17,-0.07l0 0.82c-0.13,0.08 -0.25,0.11 -0.37,0.11 -0.13,0 -0.25,-0.04 -0.34,-0.12 -0.1,-0.09 -0.18,-0.21 -0.24,-0.38 -0.15,0.18 -0.28,0.31 -0.4,0.39 -0.12,0.08 -0.24,0.11 -0.35,0.11 -0.21,0 -0.38,-0.11 -0.51,-0.33 -0.13,-0.23 -0.2,-0.5 -0.2,-0.83 0,-0.19 0.02,-0.36 0.07,-0.52 0.04,-0.15 0.11,-0.29 0.2,-0.41 0.09,-0.11 0.23,-0.22 0.42,-0.31 0.18,-0.09 0.41,-0.15 0.68,-0.19zm0 0.69c-0.2,0.05 -0.33,0.11 -0.41,0.16 -0.08,0.06 -0.14,0.12 -0.18,0.21 -0.03,0.08 -0.05,0.16 -0.05,0.25 0,0.11 0.03,0.2 0.07,0.28 0.04,0.08 0.1,0.11 0.18,0.11 0.05,0 0.11,-0.02 0.17,-0.07 0.06,-0.05 0.14,-0.12 0.22,-0.21l0 -0.73z"/>
  <path id="13" class="fil0" d="M90.23 38.07l0 2.33c0.15,-0.16 0.28,-0.28 0.39,-0.35 0.11,-0.07 0.22,-0.1 0.32,-0.1 0.14,0 0.27,0.05 0.38,0.17 0.11,0.11 0.19,0.25 0.24,0.42 0.05,0.17 0.07,0.4 0.07,0.68l0 1.74c0,0.17 0.01,0.28 0.02,0.31 0.01,0.06 0.03,0.09 0.06,0.12 0.02,0.01 0.07,0.02 0.16,0.02l0.1 0 0 0.81 -1.3 0 0 -0.81 0.07 0c0.06,0 0.11,-0.01 0.13,-0.03 0.02,-0.03 0.04,-0.06 0.05,-0.1 0.01,-0.04 0.01,-0.14 0.01,-0.29l0 -1.44c0,-0.19 -0.01,-0.31 -0.02,-0.38 -0.01,-0.06 -0.03,-0.11 -0.06,-0.15 -0.04,-0.04 -0.08,-0.06 -0.13,-0.06 -0.06,0 -0.14,0.02 -0.21,0.08 -0.08,0.05 -0.17,0.15 -0.28,0.29l0 1.66c0,0.16 0.01,0.26 0.02,0.29 0.01,0.04 0.02,0.07 0.05,0.1 0.02,0.02 0.07,0.03 0.14,0.03l0.05 0 0 0.81 -1.29 0 0 -0.81 0.13 0c0.07,0 0.12,-0.01 0.14,-0.03 0.02,-0.02 0.03,-0.05 0.04,-0.09 0.01,-0.04 0.02,-0.13 0.02,-0.26l0 -3.8 -0.33 0 0 -0.8c0.13,-0.02 0.26,-0.06 0.42,-0.12 0.15,-0.07 0.29,-0.15 0.41,-0.24l0.2 0z"/>
  <path id="14" class="fil0" d="M93.74 42.72c0.11,0 0.21,0.08 0.29,0.23 0.08,0.16 0.12,0.34 0.12,0.55 0,0.22 -0.04,0.4 -0.12,0.56 -0.08,0.15 -0.18,0.22 -0.29,0.22 -0.11,0 -0.21,-0.07 -0.29,-0.22 -0.08,-0.16 -0.12,-0.34 -0.12,-0.56 0,-0.21 0.04,-0.39 0.12,-0.55 0.08,-0.15 0.18,-0.23 0.29,-0.23z"/>
  <path id="15" class="fil0" d="M96.15 42.72c0.12,0 0.21,0.08 0.29,0.23 0.08,0.16 0.12,0.34 0.12,0.55 0,0.22 -0.04,0.4 -0.12,0.56 -0.08,0.15 -0.17,0.22 -0.29,0.22 -0.11,0 -0.21,-0.07 -0.29,-0.22 -0.08,-0.16 -0.12,-0.34 -0.12,-0.56 0,-0.21 0.04,-0.39 0.12,-0.55 0.08,-0.15 0.18,-0.23 0.29,-0.23z"/>
  <path id="16" class="fil0" d="M98.56 42.72c0.12,0 0.21,0.08 0.29,0.23 0.08,0.16 0.12,0.34 0.12,0.55 0,0.22 -0.04,0.4 -0.12,0.56 -0.08,0.15 -0.17,0.22 -0.29,0.22 -0.11,0 -0.21,-0.07 -0.29,-0.22 -0.08,-0.16 -0.12,-0.34 -0.12,-0.56 0,-0.21 0.04,-0.39 0.12,-0.55 0.08,-0.15 0.18,-0.23 0.29,-0.23z"/>
  <path class="fil1" d="M2.81 33.03l-0.41 1.48c-0.08,0.3 -0.14,0.53 -0.18,0.71 -0.04,0.17 -0.07,0.31 -0.07,0.41 0,0.09 0.02,0.15 0.06,0.2 0.03,0.05 0.08,0.09 0.16,0.11l0.54 0.23 0.02 0.4c-0.55,-0.02 -1,-0.02 -1.35,-0.02 -0.36,0 -0.77,0 -1.24,0.02l-0.03 -0.39 0.62 -0.25c0.14,-0.06 0.25,-0.16 0.32,-0.29 0.06,-0.14 0.14,-0.34 0.22,-0.62l2.85 -9.62 0.62 -0.13 2.46 9.65c0.1,0.37 0.18,0.62 0.26,0.75 0.08,0.13 0.19,0.22 0.33,0.28l0.56 0.23 0.02 0.39c-0.51,-0.02 -1.03,-0.02 -1.55,-0.02 -0.69,0 -1.37,0 -2.02,0.02l-0.03 -0.39 0.57 -0.23c0.07,-0.03 0.13,-0.07 0.16,-0.12 0.04,-0.05 0.05,-0.12 0.05,-0.21 0,-0.11 -0.02,-0.25 -0.05,-0.42 -0.04,-0.17 -0.1,-0.4 -0.17,-0.68l-0.38 -1.49 -2.34 0zm1.23 -4.56c-0.06,0.28 -0.14,0.57 -0.22,0.86l-0.78 2.87 1.91 0 -0.7 -2.86c-0.08,-0.3 -0.15,-0.59 -0.21,-0.87z"/>
  <path id="1" class="fil1" d="M13.34 27.71l0 6.27c0,0.58 0,1.16 0.01,1.73l2.23 0 0.79 -2.25 0.35 -0.07 -0.15 3.13 -0.04 0.06c-0.94,-0.02 -1.86,-0.03 -2.75,-0.03l-1.42 0c-0.56,0 -1.09,0.01 -1.57,0.02l-0.03 -0.39 0.71 -0.29c0.09,-0.04 0.14,-0.12 0.15,-0.25 0,-0.21 0.01,-0.45 0.01,-0.71 0,-0.26 0,-0.55 0,-0.87l0 -6.32c0,-0.26 0,-0.51 0,-0.72 0,-0.22 -0.01,-0.42 -0.01,-0.6 0,-0.14 -0.05,-0.22 -0.14,-0.26l-0.7 -0.31 -0.02 -0.4c0.49,0.02 1.06,0.03 1.7,0.03 0.66,0 1.23,-0.01 1.72,-0.03l0.03 0.4 -0.71 0.29c-0.09,0.04 -0.14,0.12 -0.15,0.24 0,0.19 -0.01,0.47 -0.01,0.82 0,0.35 0,0.52 0,0.51z"/>
  <path id="2" class="fil1" d="M21.35 31.44l0 2.62c0,0.62 0,1.14 0.01,1.53 0.01,0.13 0.05,0.21 0.15,0.26l0.84 0.33 0.02 0.39c-0.59,-0.02 -1.21,-0.02 -1.85,-0.02 -0.66,0 -1.25,0 -1.78,0.02l-0.03 -0.39 0.77 -0.29c0.1,-0.04 0.15,-0.13 0.15,-0.25 0.01,-0.43 0.01,-0.95 0.01,-1.58l0 -6.32c0,-0.26 0,-0.51 0,-0.72 0,-0.22 -0.01,-0.42 -0.01,-0.6 0,-0.14 -0.05,-0.22 -0.14,-0.26l-0.76 -0.31 -0.02 -0.4c0.53,0.02 1.04,0.03 1.52,0.03l1.44 0c0.93,0 1.89,-0.01 2.88,-0.03l0.04 0.06 -0.36 2.64 -0.3 0.06 -0.37 -1.92 -2.21 0 0 4.39 0.33 0c0.33,0 0.69,-0.01 1.06,-0.02 0.11,-0.01 0.17,-0.08 0.2,-0.21l0.2 -1.09 0.38 -0.02c-0.01,0.76 -0.02,1.34 -0.02,1.72 0,0.37 0.01,0.93 0.02,1.69l-0.38 0.05 -0.21 -1.12c-0.02,-0.14 -0.08,-0.21 -0.17,-0.23 -0.39,-0.01 -0.75,-0.01 -1.09,-0.01l-0.32 0z"/>
  <path id="3" class="fil1" d="M29.2 34.06c0,0.32 0,0.61 0,0.87 0,0.26 0.01,0.49 0.01,0.7 0.01,0.13 0.07,0.23 0.19,0.27l0.71 0.28 0.02 0.39c-0.53,-0.02 -1.12,-0.02 -1.76,-0.02 -0.67,0 -1.26,0 -1.78,0.02l-0.03 -0.39 0.76 -0.29c0.1,-0.04 0.15,-0.12 0.16,-0.25 0,-0.21 0.01,-0.45 0.01,-0.71 0,-0.26 0,-0.55 0,-0.87l0 -6.32c0,-0.26 0,-0.51 0,-0.72 0,-0.22 -0.01,-0.42 -0.01,-0.6 0,-0.14 -0.05,-0.22 -0.14,-0.26l-0.76 -0.31 -0.02 -0.4c0.53,0.02 1.11,0.03 1.76,0.03 0.66,0 1.25,-0.01 1.78,-0.03l0.03 0.4 -0.77 0.29c-0.09,0.04 -0.14,0.12 -0.15,0.24 0,0.19 -0.01,0.4 -0.01,0.62 0,0.22 0,0.45 0,0.71l0 6.35z"/>
  <path id="4" class="fil1" d="M32.31 25.45c0.53,0.02 1.12,0.03 1.76,0.03 0.66,0 1.25,-0.01 1.78,-0.03l0.03 0.4 -0.76 0.29c-0.1,0.04 -0.15,0.12 -0.16,0.24 0,0.19 -0.01,0.4 -0.01,0.62 0,0.22 0,0.45 0,0.71l0 7.17c0,0.52 -0.02,0.99 -0.05,1.41 -0.03,0.43 -0.09,0.81 -0.18,1.14 -0.08,0.33 -0.2,0.63 -0.35,0.89 -0.14,0.26 -0.34,0.49 -0.57,0.7 -0.23,0.21 -0.52,0.39 -0.85,0.55 -0.34,0.16 -0.73,0.3 -1.18,0.41l-0.11 -0.47c0.38,-0.22 0.66,-0.48 0.87,-0.75 0.2,-0.28 0.36,-0.6 0.47,-0.95 0.1,-0.35 0.17,-0.75 0.2,-1.2 0.03,-0.44 0.04,-0.94 0.04,-1.5l0 -7.37c0,-0.26 0,-0.51 0,-0.72 0,-0.22 -0.01,-0.42 -0.01,-0.6 0,-0.14 -0.05,-0.22 -0.14,-0.26l-0.77 -0.31 -0.01 -0.4z"/>
  <path id="5" class="fil1" d="M40.55 34.06c0,0.32 0,0.61 0,0.87 0,0.26 0,0.49 0.01,0.7 0,0.13 0.07,0.23 0.19,0.27l0.7 0.28 0.02 0.39c-0.53,-0.02 -1.11,-0.02 -1.76,-0.02 -0.66,0 -1.25,0 -1.78,0.02l-0.02 -0.39 0.76 -0.29c0.1,-0.04 0.15,-0.12 0.16,-0.25 0,-0.21 0,-0.45 0.01,-0.71 0,-0.26 0,-0.55 0,-0.87l0 -6.32c0,-0.26 0,-0.51 0,-0.72 -0.01,-0.22 -0.01,-0.42 -0.01,-0.6 -0.01,-0.14 -0.05,-0.22 -0.14,-0.26l-0.77 -0.31 -0.01 -0.4c0.53,0.02 1.11,0.03 1.75,0.03 0.66,0 1.26,-0.01 1.78,-0.03l0.03 0.4 -0.76 0.29c-0.1,0.04 -0.15,0.12 -0.15,0.24 -0.01,0.19 -0.01,0.4 -0.01,0.62 0,0.22 0,0.45 0,0.71l0 6.35z"/>
  <path id="6" class="fil1" d="M46.37 34.06c0,0.32 0,0.61 0,0.86 0,0.25 0,0.48 0.01,0.68 0,0.17 0.05,0.28 0.13,0.31l0.59 0.27 0.02 0.39c-0.42,-0.02 -0.95,-0.02 -1.57,-0.02 -0.67,0 -1.26,0 -1.78,0.02l-0.03 -0.39 0.76 -0.29c0.1,-0.04 0.15,-0.12 0.16,-0.25 0,-0.21 0.01,-0.45 0.01,-0.71 0,-0.26 0,-0.55 0,-0.87l0 -6.32c0,-0.26 0,-0.51 0,-0.72 0,-0.22 -0.01,-0.42 -0.01,-0.6 0,-0.14 -0.05,-0.22 -0.14,-0.26l-0.76 -0.31 -0.02 -0.4c0.53,0.02 1.08,0.03 1.64,0.03 0.12,0 0.26,-0.01 0.44,-0.01 0.17,-0.01 0.39,-0.02 0.64,-0.03 0.23,-0.01 0.42,-0.02 0.57,-0.02 0.16,0 0.28,-0.01 0.37,-0.01 0.98,0 1.71,0.23 2.2,0.69 0.49,0.45 0.73,1.11 0.73,1.98 0,0.79 -0.15,1.42 -0.44,1.91 -0.3,0.48 -0.74,0.85 -1.32,1.11 0.32,0.65 0.56,1.18 0.74,1.59 0.17,0.41 0.34,0.81 0.52,1.2 0.18,0.4 0.34,0.75 0.48,1.05 0.14,0.3 0.28,0.53 0.4,0.71 0.07,0.08 0.14,0.15 0.2,0.21 0.06,0.05 0.13,0.1 0.2,0.15 0.07,0.04 0.14,0.07 0.21,0.1 0.08,0.03 0.17,0.06 0.27,0.09l0.02 0.41c-0.37,0.07 -0.8,0.11 -1.28,0.11 -0.38,0 -0.65,-0.04 -0.8,-0.11 -0.15,-0.06 -0.29,-0.16 -0.41,-0.29 -0.17,-0.19 -0.33,-0.44 -0.48,-0.75 -0.15,-0.3 -0.3,-0.65 -0.47,-1.03 -0.16,-0.39 -0.33,-0.8 -0.5,-1.23 -0.18,-0.43 -0.36,-0.86 -0.55,-1.28 -0.05,-0.13 -0.1,-0.23 -0.14,-0.31 -0.03,-0.08 -0.07,-0.14 -0.11,-0.18 -0.03,-0.03 -0.07,-0.06 -0.11,-0.08 -0.04,-0.02 -0.09,-0.03 -0.15,-0.04l-0.24 -0.01 0 2.65zm0 -3.34c0.2,0.01 0.38,0.02 0.55,0.02 0.54,0 0.94,-0.19 1.19,-0.57 0.25,-0.37 0.38,-0.96 0.38,-1.76 0,-0.78 -0.13,-1.34 -0.37,-1.7 -0.24,-0.35 -0.62,-0.53 -1.13,-0.53 -0.09,0 -0.18,0 -0.28,0.01 -0.1,0.01 -0.22,0.03 -0.34,0.05l0 4.48z"/>
  <path id="7" class="fil1" d="M58.68 34.06c0,0.32 0,0.61 0,0.86 0,0.25 0.01,0.48 0.01,0.68 0,0.17 0.05,0.28 0.13,0.31l0.6 0.27 0.01 0.39c-0.42,-0.02 -0.94,-0.02 -1.57,-0.02 -0.67,0 -1.26,0 -1.78,0.02l-0.03 -0.39 0.77 -0.29c0.09,-0.04 0.14,-0.12 0.15,-0.25 0,-0.21 0.01,-0.45 0.01,-0.71 0,-0.26 0,-0.55 0,-0.87l0 -6.32c0,-0.26 0,-0.51 0,-0.72 0,-0.22 -0.01,-0.42 -0.01,-0.6 0,-0.14 -0.05,-0.22 -0.14,-0.26l-0.76 -0.31 -0.02 -0.4c0.53,0.02 1.08,0.03 1.64,0.03 0.12,0 0.27,-0.01 0.44,-0.01 0.18,-0.01 0.39,-0.02 0.64,-0.03 0.23,-0.01 0.42,-0.02 0.58,-0.02 0.15,0 0.27,-0.01 0.36,-0.01 0.98,0 1.71,0.23 2.2,0.69 0.49,0.45 0.74,1.11 0.74,1.98 0,0.79 -0.15,1.42 -0.45,1.91 -0.3,0.48 -0.74,0.85 -1.32,1.11 0.32,0.65 0.57,1.18 0.74,1.59 0.17,0.41 0.35,0.81 0.52,1.2 0.18,0.4 0.34,0.75 0.48,1.05 0.14,0.3 0.28,0.53 0.4,0.71 0.07,0.08 0.14,0.15 0.2,0.21 0.06,0.05 0.13,0.1 0.2,0.15 0.07,0.04 0.14,0.07 0.22,0.1 0.07,0.03 0.16,0.06 0.26,0.09l0.02 0.41c-0.37,0.07 -0.8,0.11 -1.28,0.11 -0.38,0 -0.65,-0.04 -0.8,-0.11 -0.15,-0.06 -0.29,-0.16 -0.41,-0.29 -0.17,-0.19 -0.33,-0.44 -0.48,-0.75 -0.15,-0.3 -0.3,-0.65 -0.46,-1.03 -0.17,-0.39 -0.34,-0.8 -0.51,-1.23 -0.17,-0.43 -0.36,-0.86 -0.55,-1.28 -0.05,-0.13 -0.1,-0.23 -0.14,-0.31 -0.03,-0.08 -0.07,-0.14 -0.11,-0.18 -0.03,-0.03 -0.07,-0.06 -0.11,-0.08 -0.04,-0.02 -0.09,-0.03 -0.15,-0.04l-0.24 -0.01 0 2.65zm0 -3.34c0.2,0.01 0.39,0.02 0.55,0.02 0.54,0 0.94,-0.19 1.19,-0.57 0.25,-0.37 0.38,-0.96 0.38,-1.76 0,-0.78 -0.12,-1.34 -0.37,-1.7 -0.24,-0.35 -0.62,-0.53 -1.13,-0.53 -0.08,0 -0.18,0 -0.28,0.01 -0.1,0.01 -0.21,0.03 -0.34,0.05l0 4.48z"/>
  <path id="8" class="fil1" d="M67.24 33.03l-0.41 1.48c-0.08,0.3 -0.14,0.53 -0.18,0.71 -0.05,0.17 -0.07,0.31 -0.07,0.41 0,0.09 0.02,0.15 0.05,0.2 0.04,0.05 0.09,0.09 0.16,0.11l0.55 0.23 0.02 0.4c-0.55,-0.02 -1,-0.02 -1.35,-0.02 -0.36,0 -0.78,0 -1.24,0.02l-0.03 -0.39 0.61 -0.25c0.15,-0.06 0.25,-0.16 0.32,-0.29 0.07,-0.14 0.15,-0.34 0.23,-0.62l2.85 -9.62 0.61 -0.13 2.47 9.65c0.09,0.37 0.18,0.62 0.26,0.75 0.07,0.13 0.18,0.22 0.33,0.28l0.56 0.23 0.02 0.39c-0.52,-0.02 -1.04,-0.02 -1.56,-0.02 -0.69,0 -1.36,0 -2.01,0.02l-0.03 -0.39 0.56 -0.23c0.08,-0.03 0.13,-0.07 0.17,-0.12 0.03,-0.05 0.05,-0.12 0.05,-0.21 0,-0.11 -0.02,-0.25 -0.06,-0.42 -0.04,-0.17 -0.09,-0.4 -0.16,-0.68l-0.38 -1.49 -2.34 0zm1.23 -4.56c-0.07,0.28 -0.14,0.57 -0.22,0.86l-0.79 2.87 1.91 0 -0.7 -2.86c-0.07,-0.3 -0.14,-0.59 -0.2,-0.87z"/>
  <path id="9" class="fil1" d="M76.21 36.55c-0.5,0 -1,0 -1.52,0.02l-0.03 -0.39 0.76 -0.29c0.1,-0.04 0.15,-0.13 0.16,-0.25 0,-0.21 0.01,-0.45 0.01,-0.71 0,-0.26 0,-0.55 0,-0.87l0 -6.32c0,-0.26 0,-0.51 0,-0.72 0,-0.22 -0.01,-0.42 -0.01,-0.6 -0.01,-0.14 -0.05,-0.22 -0.14,-0.26l-0.77 -0.31 -0.01 -0.4c0.53,0.02 1.04,0.03 1.53,0.03 0.41,0 0.8,-0.01 1.18,-0.04 0.38,-0.03 0.77,-0.04 1.17,-0.04 1.42,0 2.49,0.42 3.21,1.26 0.71,0.85 1.07,2.1 1.07,3.76 0,1.96 -0.4,3.48 -1.19,4.56 -0.79,1.08 -1.91,1.62 -3.35,1.62 -0.4,0 -0.75,0 -1.06,-0.02 -0.3,-0.02 -0.64,-0.03 -1.01,-0.03zm1.09 -0.8c0.18,0.04 0.36,0.07 0.54,0.09 0.17,0.01 0.35,0.02 0.53,0.02 0.83,0 1.46,-0.41 1.89,-1.22 0.43,-0.81 0.64,-2.04 0.64,-3.7 0,-1.61 -0.2,-2.81 -0.62,-3.59 -0.41,-0.78 -1.06,-1.17 -1.94,-1.17 -0.33,0 -0.68,0.02 -1.04,0.06l0 9.51z"/>
  <path id="10" class="fil1" d="M87.8 34.06c0,0.32 0,0.61 0,0.87 0,0.26 0.01,0.49 0.01,0.7 0,0.13 0.07,0.23 0.19,0.27l0.71 0.28 0.02 0.39c-0.54,-0.02 -1.12,-0.02 -1.76,-0.02 -0.67,0 -1.26,0 -1.78,0.02l-0.03 -0.39 0.76 -0.29c0.1,-0.04 0.15,-0.12 0.16,-0.25 0,-0.21 0.01,-0.45 0.01,-0.71 0,-0.26 0,-0.55 0,-0.87l0 -6.32c0,-0.26 0,-0.51 0,-0.72 0,-0.22 -0.01,-0.42 -0.01,-0.6 -0.01,-0.14 -0.05,-0.22 -0.14,-0.26l-0.76 -0.31 -0.02 -0.4c0.53,0.02 1.11,0.03 1.76,0.03 0.66,0 1.25,-0.01 1.78,-0.03l0.03 0.4 -0.77 0.29c-0.09,0.04 -0.14,0.12 -0.15,0.24 0,0.19 -0.01,0.4 -0.01,0.62 0,0.22 0,0.45 0,0.71l0 6.35z"/>
  <path id="11" class="fil1" d="M92.98 30.87c0,1.69 0.2,2.99 0.61,3.88 0.42,0.9 1.02,1.35 1.82,1.35 0.78,0 1.37,-0.41 1.74,-1.22 0.38,-0.82 0.57,-2.1 0.57,-3.84 0,-1.65 -0.2,-2.9 -0.6,-3.79 -0.4,-0.88 -1.01,-1.32 -1.84,-1.32 -0.81,0 -1.39,0.41 -1.76,1.23 -0.36,0.82 -0.54,2.05 -0.54,3.71zm6.65 -0.11c0,1.83 -0.38,3.3 -1.16,4.42 -0.78,1.11 -1.86,1.67 -3.25,1.67 -1.33,0 -2.35,-0.52 -3.08,-1.55 -0.72,-1.02 -1.08,-2.42 -1.08,-4.17 0,-1.83 0.39,-3.28 1.17,-4.34 0.78,-1.07 1.86,-1.6 3.24,-1.6 1.33,0 2.35,0.49 3.08,1.49 0.72,1 1.08,2.36 1.08,4.08z"/>
  <path id="12" class="fil2 str0" d="M2.81 33.03l-0.41 1.48c-0.08,0.3 -0.14,0.53 -0.18,0.71 -0.04,0.17 -0.07,0.31 -0.07,0.41 0,0.09 0.02,0.15 0.06,0.2 0.03,0.05 0.08,0.09 0.16,0.11l0.54 0.23 0.02 0.4c-0.55,-0.02 -1,-0.02 -1.35,-0.02 -0.36,0 -0.77,0 -1.24,0.02l-0.03 -0.39 0.62 -0.25c0.14,-0.06 0.25,-0.16 0.32,-0.29 0.06,-0.14 0.14,-0.34 0.22,-0.62l2.85 -9.62 0.62 -0.13 2.46 9.65c0.1,0.37 0.18,0.62 0.26,0.75 0.08,0.13 0.19,0.22 0.33,0.28l0.56 0.23 0.02 0.39c-0.51,-0.02 -1.03,-0.02 -1.55,-0.02 -0.69,0 -1.37,0 -2.02,0.02l-0.03 -0.39 0.57 -0.23c0.07,-0.03 0.13,-0.07 0.16,-0.12 0.04,-0.05 0.05,-0.12 0.05,-0.21 0,-0.11 -0.02,-0.25 -0.05,-0.42 -0.04,-0.17 -0.1,-0.4 -0.17,-0.68l-0.38 -1.49 -2.34 0zm1.23 -4.56c-0.06,0.28 -0.14,0.57 -0.22,0.86l-0.78 2.87 1.91 0 -0.7 -2.86c-0.08,-0.3 -0.15,-0.59 -0.21,-0.87z"/>
  <path id="13" class="fil2 str0" d="M13.34 27.71l0 6.27c0,0.58 0,1.16 0.01,1.73l2.23 0 0.79 -2.25 0.35 -0.07 -0.15 3.13 -0.04 0.06c-0.94,-0.02 -1.86,-0.03 -2.75,-0.03l-1.42 0c-0.56,0 -1.09,0.01 -1.57,0.02l-0.03 -0.39 0.71 -0.29c0.09,-0.04 0.14,-0.12 0.15,-0.25 0,-0.21 0.01,-0.45 0.01,-0.71 0,-0.26 0,-0.55 0,-0.87l0 -6.32c0,-0.26 0,-0.51 0,-0.72 0,-0.22 -0.01,-0.42 -0.01,-0.6 0,-0.14 -0.05,-0.22 -0.14,-0.26l-0.7 -0.31 -0.02 -0.4c0.49,0.02 1.06,0.03 1.7,0.03 0.66,0 1.23,-0.01 1.72,-0.03l0.03 0.4 -0.71 0.29c-0.09,0.04 -0.14,0.12 -0.15,0.24 0,0.19 -0.01,0.47 -0.01,0.82 0,0.35 0,0.52 0,0.51z"/>
  <path id="14" class="fil2 str0" d="M21.35 31.44l0 2.62c0,0.62 0,1.14 0.01,1.53 0.01,0.13 0.05,0.21 0.15,0.26l0.84 0.33 0.02 0.39c-0.59,-0.02 -1.21,-0.02 -1.85,-0.02 -0.66,0 -1.25,0 -1.78,0.02l-0.03 -0.39 0.77 -0.29c0.1,-0.04 0.15,-0.13 0.15,-0.25 0.01,-0.43 0.01,-0.95 0.01,-1.58l0 -6.32c0,-0.26 0,-0.51 0,-0.72 0,-0.22 -0.01,-0.42 -0.01,-0.6 0,-0.14 -0.05,-0.22 -0.14,-0.26l-0.76 -0.31 -0.02 -0.4c0.53,0.02 1.04,0.03 1.52,0.03l1.44 0c0.93,0 1.89,-0.01 2.88,-0.03l0.04 0.06 -0.36 2.64 -0.3 0.06 -0.37 -1.92 -2.21 0 0 4.39 0.33 0c0.33,0 0.69,-0.01 1.06,-0.02 0.11,-0.01 0.17,-0.08 0.2,-0.21l0.2 -1.09 0.38 -0.02c-0.01,0.76 -0.02,1.34 -0.02,1.72 0,0.37 0.01,0.93 0.02,1.69l-0.38 0.05 -0.21 -1.12c-0.02,-0.14 -0.08,-0.21 -0.17,-0.23 -0.39,-0.01 -0.75,-0.01 -1.09,-0.01l-0.32 0z"/>
  <path id="15" class="fil2 str0" d="M29.2 34.06c0,0.32 0,0.61 0,0.87 0,0.26 0.01,0.49 0.01,0.7 0.01,0.13 0.07,0.23 0.19,0.27l0.71 0.28 0.02 0.39c-0.53,-0.02 -1.12,-0.02 -1.76,-0.02 -0.67,0 -1.26,0 -1.78,0.02l-0.03 -0.39 0.76 -0.29c0.1,-0.04 0.15,-0.12 0.16,-0.25 0,-0.21 0.01,-0.45 0.01,-0.71 0,-0.26 0,-0.55 0,-0.87l0 -6.32c0,-0.26 0,-0.51 0,-0.72 0,-0.22 -0.01,-0.42 -0.01,-0.6 0,-0.14 -0.05,-0.22 -0.14,-0.26l-0.76 -0.31 -0.02 -0.4c0.53,0.02 1.11,0.03 1.76,0.03 0.66,0 1.25,-0.01 1.78,-0.03l0.03 0.4 -0.77 0.29c-0.09,0.04 -0.14,0.12 -0.15,0.24 0,0.19 -0.01,0.4 -0.01,0.62 0,0.22 0,0.45 0,0.71l0 6.35z"/>
  <path id="16" class="fil2 str0" d="M32.31 25.45c0.53,0.02 1.12,0.03 1.76,0.03 0.66,0 1.25,-0.01 1.78,-0.03l0.03 0.4 -0.76 0.29c-0.1,0.04 -0.15,0.12 -0.16,0.24 0,0.19 -0.01,0.4 -0.01,0.62 0,0.22 0,0.45 0,0.71l0 7.17c0,0.52 -0.02,0.99 -0.05,1.41 -0.03,0.43 -0.09,0.81 -0.18,1.14 -0.08,0.33 -0.2,0.63 -0.35,0.89 -0.14,0.26 -0.34,0.49 -0.57,0.7 -0.23,0.21 -0.52,0.39 -0.85,0.55 -0.34,0.16 -0.73,0.3 -1.18,0.41l-0.11 -0.47c0.38,-0.22 0.66,-0.48 0.87,-0.75 0.2,-0.28 0.36,-0.6 0.47,-0.95 0.1,-0.35 0.17,-0.75 0.2,-1.2 0.03,-0.44 0.04,-0.94 0.04,-1.5l0 -7.37c0,-0.26 0,-0.51 0,-0.72 0,-0.22 -0.01,-0.42 -0.01,-0.6 0,-0.14 -0.05,-0.22 -0.14,-0.26l-0.77 -0.31 -0.01 -0.4z"/>
  <path id="17" class="fil2 str0" d="M40.55 34.06c0,0.32 0,0.61 0,0.87 0,0.26 0,0.49 0.01,0.7 0,0.13 0.07,0.23 0.19,0.27l0.7 0.28 0.02 0.39c-0.53,-0.02 -1.11,-0.02 -1.76,-0.02 -0.66,0 -1.25,0 -1.78,0.02l-0.02 -0.39 0.76 -0.29c0.1,-0.04 0.15,-0.12 0.16,-0.25 0,-0.21 0,-0.45 0.01,-0.71 0,-0.26 0,-0.55 0,-0.87l0 -6.32c0,-0.26 0,-0.51 0,-0.72 -0.01,-0.22 -0.01,-0.42 -0.01,-0.6 -0.01,-0.14 -0.05,-0.22 -0.14,-0.26l-0.77 -0.31 -0.01 -0.4c0.53,0.02 1.11,0.03 1.75,0.03 0.66,0 1.26,-0.01 1.78,-0.03l0.03 0.4 -0.76 0.29c-0.1,0.04 -0.15,0.12 -0.15,0.24 -0.01,0.19 -0.01,0.4 -0.01,0.62 0,0.22 0,0.45 0,0.71l0 6.35z"/>
  <path id="18" class="fil2 str0" d="M46.37 34.06c0,0.32 0,0.61 0,0.86 0,0.25 0,0.48 0.01,0.68 0,0.17 0.05,0.28 0.13,0.31l0.59 0.27 0.02 0.39c-0.42,-0.02 -0.95,-0.02 -1.57,-0.02 -0.67,0 -1.26,0 -1.78,0.02l-0.03 -0.39 0.76 -0.29c0.1,-0.04 0.15,-0.12 0.16,-0.25 0,-0.21 0.01,-0.45 0.01,-0.71 0,-0.26 0,-0.55 0,-0.87l0 -6.32c0,-0.26 0,-0.51 0,-0.72 0,-0.22 -0.01,-0.42 -0.01,-0.6 0,-0.14 -0.05,-0.22 -0.14,-0.26l-0.76 -0.31 -0.02 -0.4c0.53,0.02 1.08,0.03 1.64,0.03 0.12,0 0.26,-0.01 0.44,-0.01 0.17,-0.01 0.39,-0.02 0.64,-0.03 0.23,-0.01 0.42,-0.02 0.57,-0.02 0.16,0 0.28,-0.01 0.37,-0.01 0.98,0 1.71,0.23 2.2,0.69 0.49,0.45 0.73,1.11 0.73,1.98 0,0.79 -0.15,1.42 -0.44,1.91 -0.3,0.48 -0.74,0.85 -1.32,1.11 0.32,0.65 0.56,1.18 0.74,1.59 0.17,0.41 0.34,0.81 0.52,1.2 0.18,0.4 0.34,0.75 0.48,1.05 0.14,0.3 0.28,0.53 0.4,0.71 0.07,0.08 0.14,0.15 0.2,0.21 0.06,0.05 0.13,0.1 0.2,0.15 0.07,0.04 0.14,0.07 0.21,0.1 0.08,0.03 0.17,0.06 0.27,0.09l0.02 0.41c-0.37,0.07 -0.8,0.11 -1.28,0.11 -0.38,0 -0.65,-0.04 -0.8,-0.11 -0.15,-0.06 -0.29,-0.16 -0.41,-0.29 -0.17,-0.19 -0.33,-0.44 -0.48,-0.75 -0.15,-0.3 -0.3,-0.65 -0.47,-1.03 -0.16,-0.39 -0.33,-0.8 -0.5,-1.23 -0.18,-0.43 -0.36,-0.86 -0.55,-1.28 -0.05,-0.13 -0.1,-0.23 -0.14,-0.31 -0.03,-0.08 -0.07,-0.14 -0.11,-0.18 -0.03,-0.03 -0.07,-0.06 -0.11,-0.08 -0.04,-0.02 -0.09,-0.03 -0.15,-0.04l-0.24 -0.01 0 2.65zm0 -3.34c0.2,0.01 0.38,0.02 0.55,0.02 0.54,0 0.94,-0.19 1.19,-0.57 0.25,-0.37 0.38,-0.96 0.38,-1.76 0,-0.78 -0.13,-1.34 -0.37,-1.7 -0.24,-0.35 -0.62,-0.53 -1.13,-0.53 -0.09,0 -0.18,0 -0.28,0.01 -0.1,0.01 -0.22,0.03 -0.34,0.05l0 4.48z"/>
  <path id="19" class="fil2 str0" d="M58.68 34.06c0,0.32 0,0.61 0,0.86 0,0.25 0.01,0.48 0.01,0.68 0,0.17 0.05,0.28 0.13,0.31l0.6 0.27 0.01 0.39c-0.42,-0.02 -0.94,-0.02 -1.57,-0.02 -0.67,0 -1.26,0 -1.78,0.02l-0.03 -0.39 0.77 -0.29c0.09,-0.04 0.14,-0.12 0.15,-0.25 0,-0.21 0.01,-0.45 0.01,-0.71 0,-0.26 0,-0.55 0,-0.87l0 -6.32c0,-0.26 0,-0.51 0,-0.72 0,-0.22 -0.01,-0.42 -0.01,-0.6 0,-0.14 -0.05,-0.22 -0.14,-0.26l-0.76 -0.31 -0.02 -0.4c0.53,0.02 1.08,0.03 1.64,0.03 0.12,0 0.27,-0.01 0.44,-0.01 0.18,-0.01 0.39,-0.02 0.64,-0.03 0.23,-0.01 0.42,-0.02 0.58,-0.02 0.15,0 0.27,-0.01 0.36,-0.01 0.98,0 1.71,0.23 2.2,0.69 0.49,0.45 0.74,1.11 0.74,1.98 0,0.79 -0.15,1.42 -0.45,1.91 -0.3,0.48 -0.74,0.85 -1.32,1.11 0.32,0.65 0.57,1.18 0.74,1.59 0.17,0.41 0.35,0.81 0.52,1.2 0.18,0.4 0.34,0.75 0.48,1.05 0.14,0.3 0.28,0.53 0.4,0.71 0.07,0.08 0.14,0.15 0.2,0.21 0.06,0.05 0.13,0.1 0.2,0.15 0.07,0.04 0.14,0.07 0.22,0.1 0.07,0.03 0.16,0.06 0.26,0.09l0.02 0.41c-0.37,0.07 -0.8,0.11 -1.28,0.11 -0.38,0 -0.65,-0.04 -0.8,-0.11 -0.15,-0.06 -0.29,-0.16 -0.41,-0.29 -0.17,-0.19 -0.33,-0.44 -0.48,-0.75 -0.15,-0.3 -0.3,-0.65 -0.46,-1.03 -0.17,-0.39 -0.34,-0.8 -0.51,-1.23 -0.17,-0.43 -0.36,-0.86 -0.55,-1.28 -0.05,-0.13 -0.1,-0.23 -0.14,-0.31 -0.03,-0.08 -0.07,-0.14 -0.11,-0.18 -0.03,-0.03 -0.07,-0.06 -0.11,-0.08 -0.04,-0.02 -0.09,-0.03 -0.15,-0.04l-0.24 -0.01 0 2.65zm0 -3.34c0.2,0.01 0.39,0.02 0.55,0.02 0.54,0 0.94,-0.19 1.19,-0.57 0.25,-0.37 0.38,-0.96 0.38,-1.76 0,-0.78 -0.12,-1.34 -0.37,-1.7 -0.24,-0.35 -0.62,-0.53 -1.13,-0.53 -0.08,0 -0.18,0 -0.28,0.01 -0.1,0.01 -0.21,0.03 -0.34,0.05l0 4.48z"/>
  <path id="20" class="fil2 str0" d="M67.24 33.03l-0.41 1.48c-0.08,0.3 -0.14,0.53 -0.18,0.71 -0.05,0.17 -0.07,0.31 -0.07,0.41 0,0.09 0.02,0.15 0.05,0.2 0.04,0.05 0.09,0.09 0.16,0.11l0.55 0.23 0.02 0.4c-0.55,-0.02 -1,-0.02 -1.35,-0.02 -0.36,0 -0.78,0 -1.24,0.02l-0.03 -0.39 0.61 -0.25c0.15,-0.06 0.25,-0.16 0.32,-0.29 0.07,-0.14 0.15,-0.34 0.23,-0.62l2.85 -9.62 0.61 -0.13 2.47 9.65c0.09,0.37 0.18,0.62 0.26,0.75 0.07,0.13 0.18,0.22 0.33,0.28l0.56 0.23 0.02 0.39c-0.52,-0.02 -1.04,-0.02 -1.56,-0.02 -0.69,0 -1.36,0 -2.01,0.02l-0.03 -0.39 0.56 -0.23c0.08,-0.03 0.13,-0.07 0.17,-0.12 0.03,-0.05 0.05,-0.12 0.05,-0.21 0,-0.11 -0.02,-0.25 -0.06,-0.42 -0.04,-0.17 -0.09,-0.4 -0.16,-0.68l-0.38 -1.49 -2.34 0zm1.23 -4.56c-0.07,0.28 -0.14,0.57 -0.22,0.86l-0.79 2.87 1.91 0 -0.7 -2.86c-0.07,-0.3 -0.14,-0.59 -0.2,-0.87z"/>
  <path id="21" class="fil2 str0" d="M76.21 36.55c-0.5,0 -1,0 -1.52,0.02l-0.03 -0.39 0.76 -0.29c0.1,-0.04 0.15,-0.13 0.16,-0.25 0,-0.21 0.01,-0.45 0.01,-0.71 0,-0.26 0,-0.55 0,-0.87l0 -6.32c0,-0.26 0,-0.51 0,-0.72 0,-0.22 -0.01,-0.42 -0.01,-0.6 -0.01,-0.14 -0.05,-0.22 -0.14,-0.26l-0.77 -0.31 -0.01 -0.4c0.53,0.02 1.04,0.03 1.53,0.03 0.41,0 0.8,-0.01 1.18,-0.04 0.38,-0.03 0.77,-0.04 1.17,-0.04 1.42,0 2.49,0.42 3.21,1.26 0.71,0.85 1.07,2.1 1.07,3.76 0,1.96 -0.4,3.48 -1.19,4.56 -0.79,1.08 -1.91,1.62 -3.35,1.62 -0.4,0 -0.75,0 -1.06,-0.02 -0.3,-0.02 -0.64,-0.03 -1.01,-0.03zm1.09 -0.8c0.18,0.04 0.36,0.07 0.54,0.09 0.17,0.01 0.35,0.02 0.53,0.02 0.83,0 1.46,-0.41 1.89,-1.22 0.43,-0.81 0.64,-2.04 0.64,-3.7 0,-1.61 -0.2,-2.81 -0.62,-3.59 -0.41,-0.78 -1.06,-1.17 -1.94,-1.17 -0.33,0 -0.68,0.02 -1.04,0.06l0 9.51z"/>
  <path id="22" class="fil2 str0" d="M87.8 34.06c0,0.32 0,0.61 0,0.87 0,0.26 0.01,0.49 0.01,0.7 0,0.13 0.07,0.23 0.19,0.27l0.71 0.28 0.02 0.39c-0.54,-0.02 -1.12,-0.02 -1.76,-0.02 -0.67,0 -1.26,0 -1.78,0.02l-0.03 -0.39 0.76 -0.29c0.1,-0.04 0.15,-0.12 0.16,-0.25 0,-0.21 0.01,-0.45 0.01,-0.71 0,-0.26 0,-0.55 0,-0.87l0 -6.32c0,-0.26 0,-0.51 0,-0.72 0,-0.22 -0.01,-0.42 -0.01,-0.6 -0.01,-0.14 -0.05,-0.22 -0.14,-0.26l-0.76 -0.31 -0.02 -0.4c0.53,0.02 1.11,0.03 1.76,0.03 0.66,0 1.25,-0.01 1.78,-0.03l0.03 0.4 -0.77 0.29c-0.09,0.04 -0.14,0.12 -0.15,0.24 0,0.19 -0.01,0.4 -0.01,0.62 0,0.22 0,0.45 0,0.71l0 6.35z"/>
  <path id="23" class="fil2 str0" d="M92.98 30.87c0,1.69 0.2,2.99 0.61,3.88 0.42,0.9 1.02,1.35 1.82,1.35 0.78,0 1.37,-0.41 1.74,-1.22 0.38,-0.82 0.57,-2.1 0.57,-3.84 0,-1.65 -0.2,-2.9 -0.6,-3.79 -0.4,-0.88 -1.01,-1.32 -1.84,-1.32 -0.81,0 -1.39,0.41 -1.76,1.23 -0.36,0.82 -0.54,2.05 -0.54,3.71zm6.65 -0.11c0,1.83 -0.38,3.3 -1.16,4.42 -0.78,1.11 -1.86,1.67 -3.25,1.67 -1.33,0 -2.35,-0.52 -3.08,-1.55 -0.72,-1.02 -1.08,-2.42 -1.08,-4.17 0,-1.83 0.39,-3.28 1.17,-4.34 0.78,-1.07 1.86,-1.6 3.24,-1.6 1.33,0 2.35,0.49 3.08,1.49 0.72,1 1.08,2.36 1.08,4.08z"/>
  <path class="fil3" d="M55.34 13.03c-0.04,1.57 0.49,3.24 -0.14,4.67 -1.88,4.19 -6.94,5.25 -10.2,2.38 -3.28,-2.88 -3.91,-11 5.49,-11.13 -0.01,-0.65 0.09,-1.7 -0.19,-2.2 -0.91,-0.49 -3.96,0.35 -4.77,0.73 -4.12,1.92 -6.11,6.69 -4.32,11.08 1,2.43 3.1,4.46 6.07,5.1 1.73,0.37 3.34,0.41 4.94,-0.21 0.7,-0.27 1.29,-0.58 1.82,-0.97 0.43,-0.3 1.38,-1.15 1.54,-1.18 0.24,0.53 -0.11,1.96 0.1,2.63 0.45,0.12 1.85,0.14 2.17,-0.07 0.08,-0.77 0.01,-2.01 0.02,-2.84 0.02,-1.57 0.16,-7.27 -0.4,-8.1 -0.49,-0.08 -1.7,-0.04 -2.13,0.11z"/>
  <path class="fil3" d="M63.06 10.68l0.81 -0.06c0.11,-0.61 -0.5,-1.58 -0.72,-2.05 -0.33,-0.68 -0.6,-1.21 -1.04,-1.83 -2.18,-3.03 -6.6,-6.48 -10.31,-6.73 -0.34,-0.02 -0.38,-0.05 -0.41,0.26 -0.09,0.88 0.37,0.74 1.19,0.91 0.63,0.13 1.5,0.53 2.1,0.77 2.66,1.04 4.67,2.83 6.36,5.02 1.21,1.58 1.69,3.37 2.02,3.71z"/>
  <path class="fil4" d="M60.61 10.95c0.28,0.01 0.71,0.04 0.9,-0.07 0.39,-0.68 -1.07,-2.78 -1.35,-3.17 -0.34,-0.48 -0.64,-0.86 -1,-1.3 -0.19,-0.23 -0.36,-0.46 -0.53,-0.66 -0.56,-0.64 -2.4,-1.96 -3.45,-2.42 -0.92,-0.41 -2.58,-1.13 -3.72,-1.04 -0.05,1.16 -0.05,1.02 0.96,1.23 1.76,0.37 3.83,1.4 5.08,2.73 0.23,0.23 0.37,0.33 0.58,0.54 0.37,0.35 0.69,0.74 1.01,1.22 0.3,0.43 0.58,0.91 0.84,1.4 0.18,0.36 0.52,1.33 0.68,1.54z"/>
  <path class="fil3" d="M58.38 11.15c0.35,0 0.71,0 1.07,-0.01 0.25,-2.1 -5.28,-7.11 -7.83,-6.59 -0.09,1.43 -0.1,0.73 1.71,1.61 1.59,0.77 2.63,1.48 3.76,2.94 0.24,0.3 0.47,0.62 0.68,1 0.13,0.24 0.43,0.86 0.61,1.05z"/>
  <path class="fil4" d="M51.9 9.42c0.75,0.49 1.51,0.89 2.08,1.54 0.19,0.23 0.33,0.45 0.55,0.69 0.5,0.04 1.93,-0.09 2.31,-0.26 0.29,-0.7 -1.59,-2.33 -1.93,-2.61 -0.62,-0.51 -2.07,-1.57 -3.11,-1.67 -0.01,0.71 -0.03,1.62 0.1,2.31z"/>
  <path class="fil5 str1" d="M49 11.68l1.82 2.76 1.82 2.76 -3.64 0 -3.64 0 1.82 -2.76 1.82 -2.76zm2.7 0.86l-0.63 3.14 -0.63 3.14 -2.79 -2.05 -2.79 -2.05 3.42 -1.09 3.42 -1.09zm1.44 2.18l-2.79 2.05 -2.79 2.05 -0.63 -3.14 -0.64 -3.14 3.43 1.09 3.42 1.09z"/>
 </g>
</svg>
