<?xml version="1.0" encoding="UTF-8"?>
<!DOCTYPE svg PUBLIC "-//W3C//DTD SVG 1.1//EN" "http://www.w3.org/Graphics/SVG/1.1/DTD/svg11.dtd">
<!-- Creator: CorelDRAW 2018 (64-Bit) -->
<svg xmlns="http://www.w3.org/2000/svg" xml:space="preserve" width="310px" height="310px" version="1.1" style="shape-rendering:geometricPrecision; text-rendering:geometricPrecision; image-rendering:optimizeQuality; fill-rule:evenodd; clip-rule:evenodd"
viewBox="0 0 310 310"
 xmlns:xlink="http://www.w3.org/1999/xlink">
 <defs>
  <style type="text/css">
   <![CDATA[
    .str0 {stroke:#FEFEFE;stroke-width:6.25;stroke-miterlimit:2.61313}
    .str1 {stroke:#000304;stroke-width:6.25;stroke-miterlimit:2.61313}
    .fil1 {fill:#FEFEFE}
    .fil2 {fill:#000304}
    .fil3 {fill:#F48C23}
    .fil5 {fill:#ED3237;fill-rule:nonzero}
    .fil4 {fill:#000304;fill-rule:nonzero}
    .fil0 {fill:url(#id2)}
   ]]>
  </style>
    <clipPath id="id0">
     <rect x="108.88" y="88.05" width="61.68" height="56.92"/>
    </clipPath>
    <clipPath id="id1">
     <rect x="116.98" y="95.53" width="45.48" height="41.96"/>
    </clipPath>
  <linearGradient id="id2" gradientUnits="userSpaceOnUse" x1="155" y1="310" x2="155" y2="0">
   <stop offset="0" style="stop-opacity:1; stop-color:#F9C416"/>
   <stop offset="1" style="stop-opacity:1; stop-color:#E92225"/>
  </linearGradient>
 </defs>
 <g id="Layer_x0020_1">
  <metadata id="CorelCorpID_0Corel-Layer"/>
  <g id="_1539882118656">
   <circle class="fil0" cx="155" cy="155" r="155"/>
   <circle class="fil1 str0" cx="155" cy="155" r="142.85"/>
   <circle class="fil1 str1" cx="155" cy="155" r="139.95"/>
   <path class="fil2" d="M175.89 102.95c-0.27,9.35 2.9,19.23 -0.87,27.68 -11.1,24.86 -41.12,31.13 -60.43,14.12 -19.41,-17.1 -23.16,-65.21 32.53,-65.97 -0.02,-3.85 0.53,-10.04 -1.13,-13.03 -5.36,-2.88 -23.43,2.09 -28.22,4.33 -24.44,11.4 -36.23,39.61 -25.6,65.63 5.88,14.41 18.37,26.46 35.96,30.24 10.23,2.21 19.8,2.43 29.23,-1.23 4.19,-1.62 7.65,-3.45 10.82,-5.74 2.52,-1.82 8.15,-6.86 9.14,-7.03 1.38,3.19 -0.7,11.61 0.57,15.61 2.7,0.73 10.94,0.83 12.89,-0.42 0.44,-4.57 0.03,-11.91 0.08,-16.83 0.1,-9.29 0.97,-43.09 -2.37,-48.02 -2.87,-0.46 -10.04,-0.22 -12.6,0.66z"/>
   <path class="fil3" d="M221.6 89.01l4.8 -0.3c0.66,-3.63 -2.92,-9.38 -4.27,-12.2 -1.91,-4.01 -3.51,-7.16 -6.14,-10.82 -12.89,-17.96 -39.12,-38.41 -61.08,-39.86 -2.03,-0.14 -2.25,-0.32 -2.43,1.53 -0.52,5.22 2.21,4.38 7.04,5.39 3.72,0.78 8.91,3.15 12.45,4.54 15.77,6.17 27.67,16.8 37.66,29.78 7.19,9.35 10.06,19.97 11.97,21.94z"/>
   <path class="fil2" d="M207.11 90.66c1.65,0.02 4.22,0.2 5.31,-0.46 2.31,-4.01 -6.33,-16.47 -7.97,-18.76 -2.04,-2.84 -3.8,-5.13 -5.93,-7.73 -1.12,-1.36 -2.16,-2.71 -3.16,-3.88 -3.31,-3.82 -14.22,-11.65 -20.4,-14.37 -5.48,-2.4 -15.31,-6.67 -22.06,-6.12 -0.33,6.86 -0.32,6 5.65,7.25 10.46,2.19 22.75,8.32 30.14,16.17 1.32,1.41 2.2,1.98 3.45,3.2 2.17,2.1 4.04,4.44 5.98,7.25 1.78,2.57 3.42,5.38 4.94,8.31 1.08,2.1 3.09,7.87 4.05,9.14z"/>
   <path class="fil3" d="M193.87 91.83c2.12,-0.01 4.24,-0.03 6.36,-0.04 1.47,-12.5 -31.28,-42.16 -46.37,-39.08 -0.53,8.45 -0.6,4.33 10.11,9.54 9.42,4.59 15.61,8.76 22.3,17.4 1.41,1.83 2.76,3.71 4,5.97 0.77,1.39 2.58,5.1 3.6,6.21z"/>
   <path class="fil2" d="M155.47 81.59c4.49,2.87 8.96,5.26 12.33,9.12 1.17,1.34 1.95,2.65 3.31,4.06 2.93,0.26 11.4,-0.5 13.68,-1.52 1.68,-4.14 -9.45,-13.84 -11.48,-15.5 -3.64,-2.96 -12.26,-9.29 -18.39,-9.88 -0.08,4.24 -0.18,9.61 0.55,13.72z"/>
   <g style="clip-path:url(#id0)">
    <image x="108.88" y="88.05" width="61.68" height="56.91" xlink:href="alfijir-sm_Images\alfijir-sm_ImgID1.gif"/>
   </g>
   <g style="clip-path:url(#id1)">
    <image x="116.98" y="95.53" width="45.48" height="41.96" xlink:href="alfijir-sm_Images\alfijir-sm_ImgID2.gif"/>
   </g>
   <path class="fil4" d="M57.67 220.6l-1.08 -3.29 -9.16 0 -1.07 3.36c-0.42,1.31 -0.78,2.19 -1.08,2.65 -0.29,0.46 -0.78,0.69 -1.46,0.69 -0.57,0 -1.08,-0.25 -1.52,-0.73 -0.44,-0.49 -0.66,-1.05 -0.66,-1.66 0,-0.36 0.05,-0.74 0.15,-1.11 0.11,-0.39 0.28,-0.91 0.51,-1.6l5.76 -17c0.17,-0.49 0.36,-1.08 0.59,-1.76 0.24,-0.69 0.48,-1.26 0.75,-1.71 0.26,-0.45 0.6,-0.82 1.02,-1.1 0.43,-0.28 0.95,-0.42 1.58,-0.42 0.64,0 1.17,0.14 1.59,0.42 0.43,0.28 0.77,0.65 1.03,1.08 0.26,0.44 0.48,0.92 0.66,1.43 0.18,0.5 0.41,1.18 0.68,2.02l5.89 16.9c0.46,1.29 0.69,2.22 0.69,2.81 0,0.6 -0.21,1.17 -0.65,1.67 -0.43,0.51 -0.96,0.76 -1.58,0.76 -0.35,0 -0.66,-0.07 -0.92,-0.23 -0.25,-0.14 -0.47,-0.35 -0.65,-0.6 -0.17,-0.26 -0.35,-0.65 -0.55,-1.18 -0.21,-0.53 -0.37,-1 -0.52,-1.4zm-9.04 -7.28l6.74 0 -3.4 -10.8 -3.34 10.8z"/>
   <path id="1" class="fil4" d="M70.36 200.14l0 19.07 9.25 0c0.73,0 1.3,0.21 1.69,0.63 0.4,0.42 0.6,0.94 0.6,1.57 0,0.64 -0.2,1.16 -0.58,1.56 -0.39,0.4 -0.96,0.6 -1.71,0.6l-11.02 0c-0.99,0 -1.71,-0.26 -2.14,-0.77 -0.44,-0.51 -0.66,-1.34 -0.66,-2.48l0 -20.18c0,-1.07 0.21,-1.87 0.62,-2.41 0.42,-0.54 0.96,-0.81 1.64,-0.81 0.68,0 1.24,0.27 1.66,0.8 0.43,0.53 0.65,1.34 0.65,2.42z"/>
   <path id="2" class="fil4" d="M98.36 201.46l-8.99 0 0 6.7 7.52 0c0.69,0 1.21,0.18 1.56,0.54 0.34,0.37 0.51,0.86 0.51,1.46 0,0.61 -0.17,1.09 -0.52,1.45 -0.35,0.36 -0.87,0.54 -1.55,0.54l-7.52 0 0 8.63c0,1.09 -0.22,1.9 -0.64,2.43 -0.43,0.54 -0.97,0.8 -1.63,0.8 -0.68,0 -1.23,-0.27 -1.66,-0.81 -0.42,-0.53 -0.64,-1.34 -0.64,-2.42l0 -20.17c0,-0.76 0.1,-1.38 0.3,-1.86 0.19,-0.48 0.5,-0.84 0.91,-1.06 0.42,-0.22 0.95,-0.33 1.59,-0.33l10.76 0c0.73,0 1.27,0.19 1.62,0.56 0.35,0.38 0.53,0.88 0.53,1.48 0,0.62 -0.18,1.12 -0.53,1.5 -0.35,0.37 -0.89,0.56 -1.62,0.56z"/>
   <path id="3" class="fil4" d="M104.1 220.78l0 -20.64c0,-1.08 0.21,-1.87 0.63,-2.41 0.42,-0.54 0.97,-0.81 1.63,-0.81 0.68,0 1.24,0.27 1.67,0.8 0.42,0.53 0.64,1.33 0.64,2.42l0 20.64c0,1.08 -0.22,1.89 -0.64,2.42 -0.43,0.54 -0.99,0.81 -1.67,0.81 -0.65,0 -1.19,-0.27 -1.62,-0.81 -0.42,-0.55 -0.64,-1.35 -0.64,-2.42z"/>
   <path id="4" class="fil4" d="M126.86 200.14l0 13.72c0,1.19 -0.04,2.21 -0.13,3.04 -0.08,0.83 -0.28,1.68 -0.59,2.53 -0.51,1.45 -1.36,2.57 -2.54,3.37 -1.18,0.81 -2.61,1.21 -4.3,1.21 -1.53,0 -2.8,-0.28 -3.82,-0.84 -1.02,-0.56 -1.84,-1.46 -2.47,-2.71 -0.33,-0.67 -0.59,-1.44 -0.8,-2.3 -0.2,-0.87 -0.3,-1.7 -0.3,-2.48 0,-0.84 0.2,-1.47 0.6,-1.92 0.4,-0.44 0.91,-0.66 1.53,-0.66 0.61,0 1.06,0.2 1.37,0.61 0.31,0.4 0.54,1.03 0.71,1.89 0.17,0.92 0.35,1.65 0.52,2.2 0.17,0.55 0.47,1.02 0.88,1.41 0.41,0.39 0.99,0.59 1.75,0.59 2.02,0 3.03,-1.72 3.03,-5.17l0 -14.49c0,-1.07 0.2,-1.87 0.6,-2.41 0.41,-0.54 0.96,-0.81 1.66,-0.81 0.7,0 1.26,0.27 1.68,0.81 0.41,0.54 0.62,1.33 0.62,2.41z"/>
   <path id="5" class="fil4" d="M132 220.78l0 -20.64c0,-1.08 0.21,-1.87 0.63,-2.41 0.42,-0.54 0.96,-0.81 1.63,-0.81 0.68,0 1.24,0.27 1.66,0.8 0.43,0.53 0.64,1.33 0.64,2.42l0 20.64c0,1.08 -0.21,1.89 -0.64,2.42 -0.42,0.54 -0.98,0.81 -1.66,0.81 -0.66,0 -1.2,-0.27 -1.62,-0.81 -0.43,-0.55 -0.64,-1.35 -0.64,-2.42z"/>
   <path id="6" class="fil4" d="M147.8 212.37l-1.6 0 0 8.41c0,1.11 -0.21,1.92 -0.63,2.44 -0.42,0.53 -0.97,0.79 -1.65,0.79 -0.73,0 -1.29,-0.28 -1.69,-0.82 -0.4,-0.55 -0.6,-1.35 -0.6,-2.41l0 -20.17c0,-1.14 0.22,-1.97 0.66,-2.48 0.44,-0.51 1.16,-0.77 2.14,-0.77l7.42 0c1.03,0 1.9,0.05 2.63,0.16 0.73,0.1 1.39,0.3 1.97,0.61 0.71,0.35 1.33,0.84 1.88,1.48 0.54,0.65 0.95,1.4 1.23,2.25 0.28,0.85 0.42,1.76 0.42,2.71 0,1.95 -0.47,3.52 -1.42,4.69 -0.95,1.16 -2.38,1.99 -4.31,2.48 0.81,0.5 1.58,1.24 2.32,2.21 0.74,0.98 1.4,2.02 1.98,3.12 0.57,1.11 1.03,2.09 1.35,2.99 0.32,0.88 0.48,1.49 0.48,1.83 0,0.34 -0.09,0.68 -0.28,1.02 -0.19,0.34 -0.45,0.61 -0.78,0.81 -0.32,0.19 -0.7,0.29 -1.14,0.29 -0.5,0 -0.93,-0.14 -1.29,-0.42 -0.34,-0.28 -0.64,-0.64 -0.89,-1.06 -0.25,-0.43 -0.6,-1.07 -1.03,-1.89l-1.83 -3.54c-0.65,-1.3 -1.24,-2.29 -1.75,-2.96 -0.53,-0.68 -1.05,-1.15 -1.58,-1.4 -0.53,-0.25 -1.21,-0.37 -2.01,-0.37zm2.61 -11.02l-4.21 0 0 7.21 4.08 0c1.1,0 2.02,-0.11 2.77,-0.33 0.75,-0.22 1.32,-0.6 1.71,-1.13 0.4,-0.53 0.6,-1.26 0.6,-2.19 0,-0.73 -0.16,-1.37 -0.48,-1.92 -0.32,-0.56 -0.76,-0.97 -1.32,-1.25 -0.53,-0.26 -1.58,-0.39 -3.15,-0.39z"/>
   <path id="7" class="fil4" d="M178.31 212.37l-1.6 0 0 8.41c0,1.11 -0.22,1.92 -0.63,2.44 -0.42,0.53 -0.98,0.79 -1.65,0.79 -0.73,0 -1.29,-0.28 -1.69,-0.82 -0.4,-0.55 -0.6,-1.35 -0.6,-2.41l0 -20.17c0,-1.14 0.22,-1.97 0.66,-2.48 0.44,-0.51 1.16,-0.77 2.14,-0.77l7.42 0c1.02,0 1.9,0.05 2.63,0.16 0.73,0.1 1.38,0.3 1.97,0.61 0.71,0.35 1.33,0.84 1.88,1.48 0.54,0.65 0.95,1.4 1.23,2.25 0.28,0.85 0.42,1.76 0.42,2.71 0,1.95 -0.47,3.52 -1.42,4.69 -0.95,1.16 -2.39,1.99 -4.31,2.48 0.81,0.5 1.58,1.24 2.32,2.21 0.74,0.98 1.4,2.02 1.98,3.12 0.57,1.11 1.02,2.09 1.35,2.99 0.32,0.88 0.48,1.49 0.48,1.83 0,0.34 -0.09,0.68 -0.28,1.02 -0.19,0.34 -0.45,0.61 -0.78,0.81 -0.32,0.19 -0.71,0.29 -1.14,0.29 -0.51,0 -0.94,-0.14 -1.29,-0.42 -0.34,-0.28 -0.64,-0.64 -0.9,-1.06 -0.25,-0.43 -0.59,-1.07 -1.02,-1.89l-1.83 -3.54c-0.65,-1.3 -1.24,-2.29 -1.76,-2.96 -0.52,-0.68 -1.04,-1.15 -1.58,-1.4 -0.53,-0.25 -1.2,-0.37 -2,-0.37zm2.61 -11.02l-4.21 0 0 7.21 4.08 0c1.1,0 2.02,-0.11 2.77,-0.33 0.75,-0.22 1.32,-0.6 1.71,-1.13 0.4,-0.53 0.59,-1.26 0.59,-2.19 0,-0.73 -0.15,-1.37 -0.47,-1.92 -0.32,-0.56 -0.76,-0.97 -1.32,-1.25 -0.53,-0.26 -1.58,-0.39 -3.15,-0.39z"/>
   <path id="8" class="fil4" d="M209.23 220.6l-1.07 -3.29 -9.16 0 -1.08 3.36c-0.42,1.31 -0.77,2.19 -1.07,2.65 -0.3,0.46 -0.78,0.69 -1.46,0.69 -0.57,0 -1.08,-0.25 -1.52,-0.73 -0.44,-0.49 -0.66,-1.05 -0.66,-1.66 0,-0.36 0.05,-0.74 0.15,-1.11 0.1,-0.39 0.27,-0.91 0.51,-1.6l5.76 -17c0.17,-0.49 0.36,-1.08 0.59,-1.76 0.23,-0.69 0.48,-1.26 0.74,-1.71 0.26,-0.45 0.6,-0.82 1.03,-1.1 0.42,-0.28 0.95,-0.42 1.57,-0.42 0.64,0 1.17,0.14 1.6,0.42 0.42,0.28 0.76,0.65 1.03,1.08 0.26,0.44 0.48,0.92 0.66,1.43 0.18,0.5 0.41,1.18 0.68,2.02l5.89 16.9c0.46,1.29 0.69,2.22 0.69,2.81 0,0.6 -0.22,1.17 -0.65,1.67 -0.44,0.51 -0.97,0.76 -1.58,0.76 -0.36,0 -0.67,-0.07 -0.93,-0.23 -0.25,-0.14 -0.46,-0.35 -0.64,-0.6 -0.17,-0.26 -0.36,-0.65 -0.56,-1.18 -0.2,-0.53 -0.37,-1 -0.52,-1.4zm-9.03 -7.28l6.73 0 -3.39 -10.8 -3.34 10.8z"/>
   <path id="9" class="fil4" d="M220.28 197.36l5.95 0c1.55,0 2.87,0.17 3.98,0.5 1.11,0.34 2.11,0.97 3.02,1.88 2.34,2.34 3.52,5.89 3.52,10.66 0,1.57 -0.12,3.01 -0.35,4.3 -0.24,1.31 -0.61,2.48 -1.1,3.52 -0.49,1.04 -1.12,1.98 -1.89,2.8 -0.6,0.63 -1.26,1.13 -1.98,1.51 -0.72,0.39 -1.49,0.66 -2.32,0.81 -0.82,0.15 -1.75,0.23 -2.79,0.23l-5.95 0c-0.83,0 -1.45,-0.15 -1.88,-0.44 -0.42,-0.29 -0.69,-0.7 -0.81,-1.23 -0.14,-0.53 -0.2,-1.22 -0.2,-2.06l0 -19.23c0,-1.14 0.22,-1.97 0.66,-2.48 0.44,-0.51 1.16,-0.77 2.14,-0.77zm1.77 4.21l0 17.79 3.46 0c0.75,0 1.35,-0.02 1.78,-0.07 0.43,-0.05 0.88,-0.17 1.34,-0.36 0.46,-0.19 0.86,-0.46 1.2,-0.8 1.52,-1.5 2.29,-4.09 2.29,-7.76 0,-2.59 -0.34,-4.53 -1.01,-5.82 -0.67,-1.28 -1.5,-2.1 -2.48,-2.45 -0.99,-0.35 -2.18,-0.53 -3.57,-0.53l-3.01 0z"/>
   <path id="10" class="fil4" d="M240.94 220.78l0 -20.64c0,-1.08 0.21,-1.87 0.63,-2.41 0.42,-0.54 0.96,-0.81 1.63,-0.81 0.68,0 1.24,0.27 1.66,0.8 0.43,0.53 0.64,1.33 0.64,2.42l0 20.64c0,1.08 -0.21,1.89 -0.64,2.42 -0.42,0.54 -0.98,0.81 -1.66,0.81 -0.66,0 -1.2,-0.27 -1.62,-0.81 -0.43,-0.55 -0.64,-1.35 -0.64,-2.42z"/>
   <path id="11" class="fil4" d="M260.52 196.92c2.34,0 4.34,0.55 6.02,1.66 1.67,1.09 2.94,2.66 3.8,4.69 0.86,2.03 1.29,4.42 1.29,7.16 0,2.02 -0.23,3.87 -0.7,5.52 -0.48,1.66 -1.18,3.09 -2.12,4.31 -0.95,1.21 -2.1,2.14 -3.48,2.78 -1.37,0.64 -2.94,0.97 -4.71,0.97 -1.77,0 -3.35,-0.33 -4.74,-1 -1.39,-0.66 -2.55,-1.59 -3.49,-2.79 -0.93,-1.2 -1.63,-2.65 -2.11,-4.34 -0.48,-1.69 -0.71,-3.52 -0.71,-5.49 0,-2.01 0.24,-3.85 0.74,-5.54 0.5,-1.67 1.22,-3.1 2.16,-4.29 0.94,-1.17 2.09,-2.08 3.44,-2.7 1.35,-0.63 2.89,-0.94 4.61,-0.94zm6.48 13.47c0,-1.91 -0.26,-3.58 -0.79,-4.99 -0.54,-1.4 -1.3,-2.46 -2.28,-3.19 -0.99,-0.72 -2.13,-1.08 -3.41,-1.08 -0.91,0 -1.75,0.2 -2.52,0.6 -0.78,0.4 -1.45,0.98 -2,1.74 -0.56,0.77 -1,1.74 -1.32,2.93 -0.32,1.19 -0.49,2.52 -0.49,3.99 0,1.5 0.17,2.84 0.49,4.05 0.32,1.2 0.78,2.2 1.36,2.99 0.59,0.8 1.27,1.39 2.03,1.78 0.77,0.39 1.6,0.59 2.51,0.59 1.17,0 2.24,-0.34 3.22,-1.02 0.98,-0.68 1.76,-1.73 2.34,-3.15 0.58,-1.41 0.86,-3.16 0.86,-5.24z"/>
   <polygon class="fil5" points="148.31,245.81 148.31,227.2 149.47,227.2 149.47,234.87 153.98,234.87 153.98,227.2 155.14,227.2 155.14,245.81 153.98,245.81 153.98,237.05 149.47,237.05 149.47,245.81 "/>
   <path id="1" class="fil5" d="M161.07 244.12c-0.4,0.72 -0.78,1.23 -1.15,1.53 -0.37,0.3 -0.76,0.44 -1.19,0.44 -0.69,0 -1.23,-0.36 -1.6,-1.08 -0.37,-0.72 -0.56,-1.64 -0.56,-2.76 0,-0.66 0.07,-1.26 0.21,-1.81 0.14,-0.55 0.33,-0.98 0.56,-1.31 0.23,-0.33 0.48,-0.58 0.77,-0.75 0.21,-0.11 0.53,-0.23 0.95,-0.34 0.87,-0.22 1.51,-0.48 1.92,-0.78 0,-0.31 0,-0.51 0,-0.6 0,-0.92 -0.1,-1.58 -0.3,-1.96 -0.28,-0.52 -0.68,-0.77 -1.22,-0.77 -0.51,0 -0.88,0.19 -1.12,0.57 -0.25,0.37 -0.42,1.04 -0.54,2l-1.05 -0.31c0.1,-0.96 0.25,-1.73 0.47,-2.32 0.22,-0.59 0.54,-1.04 0.96,-1.36 0.41,-0.32 0.89,-0.48 1.43,-0.48 0.54,0 0.99,0.14 1.33,0.41 0.33,0.27 0.58,0.61 0.74,1.02 0.16,0.41 0.27,0.93 0.34,1.56 0.03,0.39 0.05,1.09 0.05,2.1l0 3.03c0,2.12 0.02,3.46 0.07,4.03 0.04,0.57 0.13,1.11 0.26,1.63l-1.12 0c-0.11,-0.48 -0.18,-1.05 -0.21,-1.69zm-0.09 -5.07c-0.39,0.34 -0.97,0.62 -1.75,0.86 -0.44,0.13 -0.76,0.28 -0.94,0.45 -0.18,0.17 -0.32,0.42 -0.42,0.74 -0.1,0.32 -0.15,0.68 -0.15,1.08 0,0.6 0.1,1.11 0.32,1.51 0.22,0.41 0.54,0.61 0.95,0.61 0.42,0 0.78,-0.19 1.11,-0.58 0.32,-0.38 0.56,-0.9 0.71,-1.56 0.11,-0.52 0.17,-1.28 0.17,-2.28l0 -0.83z"/>
   <path id="2" class="fil5" d="M163.29 241.78l1.06 -0.36c0.06,0.9 0.23,1.59 0.5,2.08 0.27,0.48 0.65,0.72 1.14,0.72 0.5,0 0.86,-0.21 1.1,-0.64 0.24,-0.42 0.36,-0.93 0.36,-1.5 0,-0.52 -0.11,-0.92 -0.32,-1.22 -0.15,-0.2 -0.52,-0.46 -1.1,-0.77 -0.78,-0.42 -1.33,-0.79 -1.63,-1.1 -0.3,-0.31 -0.53,-0.73 -0.69,-1.28 -0.16,-0.54 -0.24,-1.14 -0.24,-1.8 0,-0.6 0.07,-1.16 0.2,-1.67 0.13,-0.51 0.3,-0.93 0.52,-1.27 0.17,-0.26 0.4,-0.48 0.69,-0.67 0.28,-0.18 0.59,-0.27 0.92,-0.27 0.5,0 0.93,0.15 1.31,0.46 0.37,0.3 0.65,0.72 0.83,1.24 0.17,0.52 0.3,1.22 0.36,2.1l-1.04 0.31c-0.05,-0.7 -0.19,-1.25 -0.42,-1.65 -0.23,-0.39 -0.55,-0.59 -0.96,-0.59 -0.49,0 -0.84,0.18 -1.05,0.52 -0.21,0.35 -0.32,0.76 -0.32,1.22 0,0.3 0.04,0.56 0.13,0.8 0.09,0.25 0.22,0.45 0.41,0.61 0.11,0.09 0.42,0.28 0.95,0.58 0.75,0.43 1.28,0.79 1.58,1.06 0.3,0.27 0.54,0.68 0.71,1.2 0.17,0.52 0.26,1.17 0.26,1.95 0,0.76 -0.11,1.47 -0.32,2.14 -0.2,0.68 -0.5,1.2 -0.9,1.56 -0.39,0.37 -0.84,0.55 -1.33,0.55 -0.82,0 -1.45,-0.36 -1.88,-1.08 -0.43,-0.73 -0.71,-1.81 -0.83,-3.23z"/>
   <polygon id="3" class="fil5" points="169.82,245.81 169.82,227.2 170.89,227.2 170.89,237.8 173.43,232.32 174.82,232.32 172.4,237.33 175.06,245.81 173.74,245.81 171.64,238.92 170.89,240.46 170.89,245.81 "/>
   <path id="4" class="fil5" d="M180.23 241.44l1.11 0.31c-0.17,1.38 -0.5,2.45 -0.97,3.2 -0.47,0.76 -1.07,1.14 -1.8,1.14 -0.93,0 -1.66,-0.6 -2.2,-1.81 -0.54,-1.21 -0.81,-2.92 -0.81,-5.1 0,-2.27 0.27,-4.02 0.82,-5.27 0.54,-1.25 1.25,-1.88 2.13,-1.88 0.84,0 1.53,0.61 2.06,1.84 0.54,1.22 0.81,2.95 0.81,5.17 0,0.14 0,0.34 -0.01,0.61l-4.71 0c0.04,1.48 0.23,2.61 0.59,3.39 0.35,0.79 0.79,1.18 1.32,1.18 0.39,0 0.72,-0.22 1,-0.66 0.28,-0.44 0.5,-1.15 0.66,-2.12zm-3.51 -3.66l3.52 0c-0.04,-1.14 -0.18,-1.99 -0.4,-2.56 -0.34,-0.87 -0.78,-1.32 -1.33,-1.32 -0.49,0 -0.9,0.35 -1.24,1.06 -0.33,0.7 -0.52,1.64 -0.55,2.82z"/>
   <path id="5" class="fil5" d="M182.7 245.81l0 -13.49 0.96 0 0 1.91c0.46,-1.47 1.13,-2.2 2.01,-2.2 0.38,0 0.73,0.15 1.05,0.44 0.32,0.29 0.56,0.68 0.72,1.15 0.16,0.47 0.27,1.03 0.33,1.68 0.04,0.43 0.06,1.17 0.06,2.23l0 8.28 -1.07 0 0 -8.2c0,-0.93 -0.04,-1.63 -0.13,-2.09 -0.08,-0.46 -0.23,-0.82 -0.44,-1.1 -0.21,-0.27 -0.46,-0.41 -0.75,-0.41 -0.45,0 -0.84,0.3 -1.17,0.92 -0.34,0.62 -0.5,1.79 -0.5,3.52l0 7.36 -1.07 0z"/>
   <path id="6" class="fil5" d="M191.37 245.81l3.35 -18.61 1.27 0 3.56 18.61 -1.32 0 -1.01 -5.64 -3.68 0 -0.94 5.64 -1.23 0zm2.51 -7.64l2.98 0 -0.91 -5.16c-0.28,-1.57 -0.48,-2.87 -0.63,-3.89 -0.12,1.21 -0.28,2.4 -0.48,3.58l-0.96 5.47z"/>
   <polygon id="7" class="fil5" points="200.3,245.81 200.3,227.2 201.38,227.2 201.38,245.81 "/>
   <path id="8" class="fil5" d="M202.99 229.67l0 -2.65 1.15 0 0 2.1c0,1.13 -0.07,1.94 -0.19,2.44 -0.17,0.68 -0.44,1.19 -0.8,1.54l-0.26 -0.9c0.22,-0.19 0.38,-0.48 0.48,-0.88 0.11,-0.4 0.17,-0.95 0.18,-1.65l-0.56 0z"/>
   <path id="9" class="fil5" d="M209.88 245.81l0 -2.01c-0.49,1.53 -1.16,2.29 -2,2.29 -0.37,0 -0.72,-0.15 -1.04,-0.45 -0.33,-0.31 -0.57,-0.69 -0.72,-1.15 -0.16,-0.46 -0.27,-1.03 -0.33,-1.69 -0.04,-0.45 -0.07,-1.16 -0.07,-2.13l0 -8.35 1.08 0 0 7.46c0,1.19 0.02,2 0.06,2.41 0.07,0.6 0.21,1.07 0.43,1.41 0.22,0.35 0.49,0.52 0.81,0.52 0.32,0 0.62,-0.17 0.9,-0.53 0.28,-0.35 0.48,-0.83 0.6,-1.43 0.11,-0.6 0.17,-1.48 0.17,-2.63l0 -7.21 1.08 0 0 13.49 -0.97 0z"/>
   <path id="10" class="fil5" d="M212.53 245.81l0 -13.49 0.96 0 0 1.9c0.2,-0.65 0.46,-1.19 0.79,-1.59 0.33,-0.4 0.71,-0.6 1.13,-0.6 0.47,0 0.85,0.21 1.15,0.62 0.3,0.42 0.51,0.99 0.63,1.74 0.51,-1.57 1.16,-2.36 1.96,-2.36 0.63,0 1.12,0.37 1.46,1.11 0.33,0.74 0.51,1.88 0.51,3.42l0 9.25 -1.08 0 0 -8.49c0,-0.91 -0.03,-1.57 -0.1,-1.97 -0.07,-0.41 -0.2,-0.73 -0.38,-0.97 -0.19,-0.25 -0.4,-0.37 -0.65,-0.37 -0.44,0 -0.81,0.31 -1.11,0.94 -0.29,0.63 -0.44,1.64 -0.44,3.03l0 7.83 -1.07 0 0 -8.76c0,-1.01 -0.09,-1.77 -0.27,-2.28 -0.17,-0.51 -0.46,-0.76 -0.85,-0.76 -0.3,0 -0.58,0.17 -0.84,0.5 -0.25,0.34 -0.44,0.84 -0.56,1.49 -0.11,0.65 -0.17,1.59 -0.17,2.82l0 6.99 -1.07 0z"/>
   <path id="11" class="fil5" d="M222.69 245.81l0 -13.49 0.96 0 0 1.9c0.2,-0.65 0.46,-1.19 0.79,-1.59 0.33,-0.4 0.71,-0.6 1.13,-0.6 0.47,0 0.85,0.21 1.15,0.62 0.3,0.42 0.51,0.99 0.63,1.74 0.5,-1.57 1.16,-2.36 1.96,-2.36 0.63,0 1.12,0.37 1.45,1.11 0.34,0.74 0.51,1.88 0.51,3.42l0 9.25 -1.07 0 0 -8.49c0,-0.91 -0.03,-1.57 -0.1,-1.97 -0.07,-0.41 -0.2,-0.73 -0.38,-0.97 -0.19,-0.25 -0.4,-0.37 -0.65,-0.37 -0.45,0 -0.82,0.31 -1.11,0.94 -0.29,0.63 -0.44,1.64 -0.44,3.03l0 7.83 -1.07 0 0 -8.76c0,-1.01 -0.09,-1.77 -0.27,-2.28 -0.17,-0.51 -0.46,-0.76 -0.85,-0.76 -0.31,0 -0.58,0.17 -0.84,0.5 -0.26,0.34 -0.44,0.84 -0.56,1.49 -0.11,0.65 -0.17,1.59 -0.17,2.82l0 6.99 -1.07 0z"/>
   <path id="12" class="fil5" d="M236.98 244.12c-0.4,0.72 -0.78,1.23 -1.15,1.53 -0.37,0.3 -0.76,0.44 -1.18,0.44 -0.7,0 -1.23,-0.36 -1.61,-1.08 -0.37,-0.72 -0.56,-1.64 -0.56,-2.76 0,-0.66 0.07,-1.26 0.21,-1.81 0.15,-0.55 0.33,-0.98 0.56,-1.31 0.23,-0.33 0.48,-0.58 0.77,-0.75 0.21,-0.11 0.53,-0.23 0.96,-0.34 0.86,-0.22 1.5,-0.48 1.91,-0.78 0,-0.31 0.01,-0.51 0.01,-0.6 0,-0.92 -0.1,-1.58 -0.31,-1.96 -0.27,-0.52 -0.68,-0.77 -1.22,-0.77 -0.51,0 -0.88,0.19 -1.12,0.57 -0.24,0.37 -0.42,1.04 -0.54,2l-1.05 -0.31c0.1,-0.96 0.26,-1.73 0.48,-2.32 0.22,-0.59 0.53,-1.04 0.95,-1.36 0.41,-0.32 0.89,-0.48 1.44,-0.48 0.54,0 0.98,0.14 1.32,0.41 0.34,0.27 0.59,0.61 0.74,1.02 0.16,0.41 0.27,0.93 0.34,1.56 0.03,0.39 0.05,1.09 0.05,2.1l0 3.03c0,2.12 0.02,3.46 0.07,4.03 0.04,0.57 0.13,1.11 0.26,1.63l-1.12 0c-0.11,-0.48 -0.18,-1.05 -0.21,-1.69zm-0.08 -5.07c-0.39,0.34 -0.98,0.62 -1.76,0.86 -0.44,0.13 -0.76,0.28 -0.94,0.45 -0.18,0.17 -0.32,0.42 -0.42,0.74 -0.1,0.32 -0.15,0.68 -0.15,1.08 0,0.6 0.11,1.11 0.32,1.51 0.22,0.41 0.54,0.61 0.96,0.61 0.41,0 0.78,-0.19 1.1,-0.58 0.32,-0.38 0.56,-0.9 0.71,-1.56 0.11,-0.52 0.17,-1.28 0.17,-2.28l0.01 -0.83z"/>
   <path id="13" class="fil5" d="M239.63 245.81l0 -18.61 1.07 0 0 6.69c0.5,-1.24 1.13,-1.86 1.89,-1.86 0.47,0 0.87,0.2 1.22,0.59 0.34,0.4 0.59,0.94 0.73,1.63 0.15,0.69 0.23,1.7 0.23,3.02l0 8.54 -1.08 0 0 -8.53c0,-1.14 -0.11,-1.97 -0.34,-2.49 -0.23,-0.52 -0.56,-0.78 -0.98,-0.78 -0.32,0 -0.62,0.17 -0.89,0.52 -0.28,0.35 -0.48,0.83 -0.6,1.43 -0.12,0.6 -0.18,1.43 -0.18,2.48l0 7.37 -1.07 0z"/>
   <polygon id="14" class="fil5" points="246.72,245.81 246.72,243.21 247.94,243.21 247.94,245.81 "/>
   <polygon id="15" class="fil5" points="250.11,245.81 250.11,243.21 251.33,243.21 251.33,245.81 "/>
   <polygon id="16" class="fil5" points="253.49,245.81 253.49,243.21 254.71,243.21 254.71,245.81 "/>
  </g>
 </g>
</svg>
