<?xml version="1.0" encoding="UTF-8"?>
<!DOCTYPE svg PUBLIC "-//W3C//DTD SVG 1.1//EN" "http://www.w3.org/Graphics/SVG/1.1/DTD/svg11.dtd">
<!-- Creator: CorelDRAW 2018 (64-Bit) -->
<svg xmlns="http://www.w3.org/2000/svg" xml:space="preserve" width="512px" height="512px" version="1.1" style="shape-rendering:geometricPrecision; text-rendering:geometricPrecision; image-rendering:optimizeQuality; fill-rule:evenodd; clip-rule:evenodd"
viewBox="0 0 512 512"
 xmlns:xlink="http://www.w3.org/1999/xlink">
 <defs>
  <style type="text/css">
   <![CDATA[
    .str0 {stroke:#FEFEFE;stroke-width:6.25;stroke-miterlimit:2.61313}
    .str1 {stroke:#000304;stroke-width:6.25;stroke-miterlimit:2.61313}
    .fil1 {fill:#FEFEFE}
    .fil2 {fill:#000304}
    .fil3 {fill:#F48C23}
    .fil5 {fill:#ED3237;fill-rule:nonzero}
    .fil4 {fill:#000304;fill-rule:nonzero}
    .fil0 {fill:url(#id2)}
   ]]>
  </style>
     <clipPath id="id0">
      <rect x="179.81" y="145.43" width="101.9" height="94"/>
     </clipPath>
     <clipPath id="id1">
      <rect x="193.2" y="157.78" width="75.12" height="69.3"/>
     </clipPath>
  <linearGradient id="id2" gradientUnits="userSpaceOnUse" x1="256" y1="512" x2="256" y2="0">
   <stop offset="0" style="stop-opacity:1; stop-color:#F9C416"/>
   <stop offset="1" style="stop-opacity:1; stop-color:#E92225"/>
  </linearGradient>
 </defs>
 <g id="Layer_x0020_1">
  <metadata id="CorelCorpID_0Corel-Layer"/>
  <g id="_2341535042352">
   <ellipse class="fil0" cx="256" cy="256" rx="256.05" ry="256"/>
   <ellipse class="fil1 str0" cx="256" cy="256" rx="235.98" ry="235.94"/>
   <ellipse class="fil1 str1" cx="256" cy="256" rx="231.18" ry="231.14"/>
   <g>
    <path class="fil2" d="M290.51 170.04c-0.45,15.43 4.79,31.75 -1.44,45.7 -18.33,41.07 -67.93,51.42 -99.83,23.33 -32.06,-28.24 -38.26,-107.69 53.75,-108.95 -0.04,-6.37 0.87,-16.59 -1.88,-21.53 -8.84,-4.76 -38.69,3.46 -46.6,7.15 -40.39,18.83 -59.86,65.43 -42.31,108.4 9.72,23.8 30.36,43.7 59.42,49.95 16.9,3.64 32.7,4.01 48.28,-2.03 6.91,-2.68 12.64,-5.71 17.87,-9.48 4.17,-3.01 13.47,-11.33 15.09,-11.61 2.29,5.26 -1.14,19.17 0.95,25.77 4.46,1.21 18.08,1.38 21.29,-0.68 0.73,-7.56 0.06,-19.68 0.14,-27.81 0.16,-15.34 1.59,-71.16 -3.92,-79.3 -4.73,-0.76 -16.58,-0.37 -20.81,1.09z"/>
    <path class="fil3" d="M366.02 147.01l7.93 -0.49c1.08,-6 -4.83,-15.5 -7.05,-20.15 -3.16,-6.63 -5.8,-11.83 -10.15,-17.88 -21.29,-29.65 -64.63,-63.43 -100.9,-65.83 -3.35,-0.22 -3.72,-0.53 -4.02,2.52 -0.86,8.64 3.66,7.24 11.63,8.91 6.15,1.29 14.73,5.21 20.57,7.49 26.06,10.2 45.72,27.75 62.22,49.2 11.88,15.44 16.61,32.98 19.77,36.23z"/>
    <path class="fil2" d="M342.09 149.73c2.72,0.04 6.97,0.34 8.76,-0.76 3.82,-6.61 -10.45,-27.19 -13.16,-30.97 -3.37,-4.7 -6.28,-8.48 -9.8,-12.77 -1.85,-2.26 -3.56,-4.49 -5.22,-6.41 -5.46,-6.31 -23.5,-19.25 -33.7,-23.73 -9.05,-3.98 -25.28,-11.02 -36.44,-10.11 -0.55,11.32 -0.52,9.91 9.33,11.97 17.29,3.62 37.58,13.74 49.8,26.71 2.18,2.32 3.63,3.27 5.69,5.27 3.59,3.49 6.67,7.34 9.88,11.98 2.94,4.25 5.66,8.89 8.16,13.74 1.79,3.46 5.1,12.99 6.7,15.08z"/>
    <path class="fil3" d="M320.21 151.67c3.5,-0.02 7,-0.05 10.51,-0.07 2.43,-20.64 -51.67,-69.63 -76.61,-64.55 -0.88,13.96 -0.98,7.16 16.71,15.77 15.57,7.58 25.78,14.46 36.84,28.74 2.33,3.01 4.55,6.12 6.61,9.85 1.26,2.3 4.26,8.43 5.94,10.26z"/>
    <path class="fil2" d="M256.78 134.75c7.41,4.74 14.79,8.7 20.36,15.07 1.94,2.21 3.23,4.37 5.47,6.7 4.84,0.44 18.83,-0.81 22.6,-2.51 2.78,-6.84 -15.61,-22.85 -18.97,-25.59 -6,-4.9 -20.24,-15.34 -30.37,-16.33 -0.13,7.01 -0.3,15.88 0.91,22.66z"/>
    <g style="clip-path:url(#id0)">
     <image x="179.81" y="145.43" width="101.9" height="94" xlink:href="alfijir_Images\alfijir_ImgID1.gif"/>
    </g>
    <g style="clip-path:url(#id1)">
     <image x="193.2" y="157.78" width="75.12" height="69.3" xlink:href="alfijir_Images\alfijir_ImgID2.gif"/>
    </g>
   </g>
   <path class="fil4" d="M91.6 311.35l8.64 57.75 -15.44 0 -0.82 -10.37 -5.45 0 -0.82 10.37 -15.64 0 7.67 -57.75 21.86 0zm-8.02 37.16c-0.73,-6.54 -1.48,-14.65 -2.29,-24.32 -1.5,11.1 -2.44,19.2 -2.84,24.32l5.13 0z"/>
   <polygon id="1" class="fil4" points="117.97,311.35 117.97,357.57 127.08,357.57 127.08,369.1 102.84,369.1 102.84,311.35 "/>
   <polygon id="2" class="fil4" points="130.78,311.35 156.34,311.35 156.34,322.89 145.91,322.89 145.91,333.91 155.17,333.91 155.17,344.86 145.91,344.86 145.91,369.1 130.78,369.1 "/>
   <polygon id="3" class="fil4" points="175.15,311.35 175.15,369.1 160.02,369.1 160.02,311.35 "/>
   <path id="4" class="fil4" d="M199.63 311.35l0 38.6c0,5.78 -0.06,9.49 -0.18,11.14 -0.13,1.66 -0.68,3.14 -1.65,4.48 -0.98,1.33 -2.3,2.25 -3.95,2.76 -1.65,0.52 -4.15,0.77 -7.48,0.77l-7.53 0 0 -10.11c0.89,0.07 1.54,0.11 1.94,0.11 1.06,0 1.9,-0.26 2.51,-0.78 0.62,-0.52 0.97,-1.17 1.06,-1.94 0.1,-0.75 0.14,-2.22 0.14,-4.41l0 -40.62 15.14 0z"/>
   <polygon id="5" class="fil4" points="220.64,311.35 220.64,369.1 205.51,369.1 205.51,311.35 "/>
   <path id="6" class="fil4" d="M226.68 311.35l10.69 0c7.12,0 11.95,0.27 14.47,0.82 2.52,0.55 4.58,1.94 6.17,4.2 1.59,2.23 2.39,5.82 2.39,10.74 0,4.49 -0.57,7.51 -1.69,9.05 -1.12,1.55 -3.33,2.47 -6.64,2.78 2.99,0.74 5.01,1.72 6.04,2.97 1.03,1.22 1.66,2.37 1.91,3.4 0.26,1.04 0.38,3.88 0.38,8.54l0 15.25 -14.03 0 0 -19.21c0,-3.09 -0.25,-5 -0.74,-5.75 -0.48,-0.74 -1.75,-1.1 -3.82,-1.1l0 26.06 -15.13 0 0 -57.75zm15.13 9.86l0 12.85c1.69,0 2.87,-0.23 3.54,-0.7 0.67,-0.46 1.02,-1.97 1.02,-4.51l0 -3.18c0,-1.83 -0.33,-3.04 -0.98,-3.61 -0.65,-0.57 -1.85,-0.85 -3.58,-0.85z"/>
   <path id="7" class="fil4" d="M279.19 311.35l10.69 0c7.13,0 11.95,0.27 14.48,0.82 2.52,0.55 4.58,1.94 6.17,4.2 1.59,2.23 2.39,5.82 2.39,10.74 0,4.49 -0.57,7.51 -1.7,9.05 -1.11,1.55 -3.33,2.47 -6.63,2.78 2.99,0.74 5.01,1.72 6.04,2.97 1.02,1.22 1.66,2.37 1.91,3.4 0.25,1.04 0.38,3.88 0.38,8.54l0 15.25 -14.04 0 0 -19.21c0,-3.09 -0.24,-5 -0.73,-5.75 -0.48,-0.74 -1.75,-1.1 -3.82,-1.1l0 26.06 -15.14 0 0 -57.75zm15.14 9.86l0 12.85c1.69,0 2.86,-0.23 3.54,-0.7 0.67,-0.46 1.01,-1.97 1.01,-4.51l0 -3.18c0,-1.83 -0.33,-3.04 -0.98,-3.61 -0.65,-0.57 -1.85,-0.85 -3.57,-0.85z"/>
   <path id="8" class="fil4" d="M344.82 311.35l8.65 57.75 -15.44 0 -0.82 -10.37 -5.45 0 -0.82 10.37 -15.64 0 7.67 -57.75 21.85 0zm-8.02 37.16c-0.72,-6.54 -1.48,-14.65 -2.29,-24.32 -1.49,11.1 -2.43,19.2 -2.84,24.32l5.13 0z"/>
   <path id="9" class="fil4" d="M356.06 311.35l11.31 0c7.28,0 12.22,0.33 14.79,1 2.57,0.67 4.53,1.76 5.86,3.29 1.34,1.52 2.18,3.21 2.51,5.07 0.33,1.87 0.5,5.54 0.5,11.01l0 20.22c0,5.19 -0.24,8.66 -0.73,10.39 -0.49,1.76 -1.35,3.13 -2.56,4.12 -1.22,0.98 -2.73,1.67 -4.53,2.07 -1.79,0.39 -4.49,0.58 -8.11,0.58l-19.04 0 0 -57.75zm15.14 9.86l0 38.03c2.14,0 3.46,-0.43 3.95,-1.3 0.5,-0.87 0.75,-3.23 0.75,-7.09l0 -22.46c0,-2.62 -0.09,-4.3 -0.25,-5.04 -0.17,-0.74 -0.53,-1.28 -1.13,-1.62 -0.59,-0.35 -1.69,-0.52 -3.32,-0.52z"/>
   <polygon id="10" class="fil4" points="411.8,311.35 411.8,369.1 396.67,369.1 396.67,311.35 "/>
   <path id="11" class="fil4" d="M452.29 345.2c0,5.81 -0.13,9.91 -0.41,12.32 -0.27,2.42 -1.13,4.62 -2.58,6.62 -1.44,1.99 -3.4,3.52 -5.86,4.6 -2.46,1.07 -5.33,1.6 -8.6,1.6 -3.11,0 -5.88,-0.51 -8.36,-1.52 -2.47,-1.01 -4.47,-2.52 -5.96,-4.54 -1.51,-2.02 -2.4,-4.22 -2.7,-6.59 -0.28,-2.39 -0.42,-6.55 -0.42,-12.49l0 -9.88c0,-5.8 0.13,-9.9 0.41,-12.31 0.27,-2.42 1.13,-4.63 2.57,-6.62 1.45,-2 3.41,-3.53 5.87,-4.6 2.46,-1.07 5.32,-1.61 8.59,-1.61 3.11,0 5.89,0.51 8.37,1.52 2.47,1.02 4.47,2.52 5.96,4.54 1.51,2.02 2.4,4.23 2.7,6.6 0.28,2.38 0.42,6.54 0.42,12.48l0 9.88zm-15.13 -18.97c0,-2.67 -0.15,-4.39 -0.44,-5.14 -0.3,-0.75 -0.9,-1.12 -1.8,-1.12 -0.77,0 -1.36,0.3 -1.78,0.91 -0.4,0.6 -0.61,2.38 -0.61,5.35l0 26.95c0,3.35 0.14,5.42 0.4,6.2 0.27,0.79 0.9,1.18 1.88,1.18 1,0 1.65,-0.45 1.93,-1.35 0.28,-0.9 0.42,-3.06 0.42,-6.45l0 -26.53z"/>
   <polygon class="fil5" points="244.95,405.98 244.95,375.24 246.86,375.24 246.86,387.91 254.32,387.91 254.32,375.24 256.23,375.24 256.23,405.98 254.32,405.98 254.32,391.51 246.86,391.51 246.86,405.98 "/>
   <path id="1" class="fil5" d="M266.03 403.19c-0.66,1.2 -1.3,2.03 -1.9,2.53 -0.61,0.49 -1.26,0.73 -1.96,0.73 -1.15,0 -2.03,-0.59 -2.65,-1.79 -0.62,-1.18 -0.93,-2.71 -0.93,-4.56 0,-1.09 0.12,-2.08 0.35,-2.98 0.24,-0.91 0.54,-1.62 0.92,-2.16 0.38,-0.55 0.8,-0.96 1.27,-1.24 0.35,-0.2 0.88,-0.38 1.58,-0.57 1.43,-0.36 2.49,-0.79 3.17,-1.29 0,-0.52 0.01,-0.85 0.01,-0.98 0,-1.53 -0.17,-2.62 -0.51,-3.24 -0.45,-0.86 -1.13,-1.28 -2.02,-1.28 -0.84,0 -1.45,0.32 -1.85,0.94 -0.4,0.62 -0.69,1.72 -0.88,3.31l-1.74 -0.51c0.16,-1.58 0.42,-2.86 0.78,-3.84 0.37,-0.97 0.89,-1.72 1.58,-2.24 0.68,-0.53 1.47,-0.79 2.37,-0.79 0.9,0 1.62,0.22 2.19,0.67 0.55,0.45 0.97,1.01 1.23,1.69 0.26,0.68 0.44,1.54 0.55,2.58 0.06,0.64 0.09,1.8 0.09,3.47l0 5c0,3.5 0.04,5.71 0.11,6.65 0.07,0.94 0.22,1.83 0.43,2.69l-1.85 0c-0.18,-0.79 -0.29,-1.72 -0.34,-2.79zm-0.14 -8.37c-0.65,0.56 -1.62,1.03 -2.9,1.42 -0.74,0.22 -1.25,0.47 -1.56,0.75 -0.3,0.28 -0.53,0.68 -0.69,1.21 -0.17,0.54 -0.25,1.13 -0.25,1.79 0,1 0.17,1.83 0.53,2.5 0.36,0.67 0.89,1 1.58,1 0.68,0 1.29,-0.31 1.82,-0.95 0.53,-0.63 0.92,-1.5 1.17,-2.59 0.19,-0.85 0.29,-2.1 0.29,-3.76l0.01 -1.37z"/>
   <path id="2" class="fil5" d="M269.7 399.33l1.75 -0.6c0.1,1.49 0.37,2.64 0.82,3.44 0.45,0.79 1.08,1.19 1.89,1.19 0.82,0 1.42,-0.35 1.82,-1.06 0.39,-0.7 0.59,-1.53 0.59,-2.48 0,-0.85 -0.18,-1.52 -0.53,-2.01 -0.25,-0.34 -0.86,-0.76 -1.82,-1.28 -1.29,-0.69 -2.19,-1.3 -2.69,-1.8 -0.5,-0.52 -0.88,-1.22 -1.14,-2.12 -0.26,-0.9 -0.39,-1.89 -0.39,-2.98 0,-0.99 0.11,-1.91 0.32,-2.75 0.21,-0.85 0.5,-1.55 0.87,-2.11 0.27,-0.43 0.65,-0.79 1.12,-1.09 0.48,-0.3 0.99,-0.45 1.53,-0.45 0.82,0 1.54,0.25 2.16,0.76 0.62,0.5 1.07,1.18 1.37,2.04 0.29,0.87 0.5,2.02 0.61,3.47l-1.73 0.51c-0.08,-1.16 -0.31,-2.07 -0.69,-2.72 -0.37,-0.65 -0.9,-0.97 -1.59,-0.97 -0.81,0 -1.39,0.29 -1.74,0.86 -0.34,0.57 -0.52,1.24 -0.52,2.01 0,0.49 0.07,0.93 0.22,1.32 0.14,0.4 0.37,0.74 0.68,1 0.17,0.15 0.69,0.47 1.56,0.97 1.25,0.71 2.12,1.29 2.62,1.75 0.49,0.45 0.88,1.11 1.16,1.97 0.29,0.87 0.43,1.94 0.43,3.23 0,1.25 -0.17,2.43 -0.52,3.54 -0.34,1.11 -0.84,1.97 -1.49,2.57 -0.65,0.61 -1.38,0.91 -2.2,0.91 -1.36,0 -2.4,-0.6 -3.11,-1.79 -0.71,-1.2 -1.16,-2.98 -1.36,-5.33z"/>
   <polygon id="3" class="fil5" points="280.48,405.98 280.48,375.24 282.26,375.24 282.26,392.75 286.45,383.7 288.74,383.7 284.75,391.98 289.14,405.98 286.96,405.98 283.48,394.6 282.26,397.14 282.26,405.98 "/>
   <path id="4" class="fil5" d="M297.68 398.77l1.83 0.51c-0.28,2.27 -0.81,4.04 -1.59,5.29 -0.78,1.25 -1.78,1.88 -2.99,1.88 -1.52,0 -2.73,-1 -3.63,-3 -0.89,-2 -1.33,-4.81 -1.33,-8.42 0,-3.74 0.45,-6.64 1.35,-8.7 0.9,-2.07 2.07,-3.1 3.51,-3.1 1.4,0 2.54,1.01 3.42,3.03 0.88,2.03 1.32,4.88 1.32,8.54 0,0.23 0,0.56 0,1.01l-7.79 0c0.07,2.44 0.39,4.31 0.97,5.61 0.58,1.29 1.31,1.94 2.18,1.94 0.65,0 1.2,-0.36 1.66,-1.09 0.46,-0.73 0.82,-1.9 1.09,-3.5zm-5.8 -6.05l5.82 0c-0.08,-1.88 -0.3,-3.28 -0.67,-4.22 -0.56,-1.45 -1.29,-2.18 -2.19,-2.18 -0.81,0 -1.49,0.58 -2.04,1.74 -0.56,1.16 -0.86,2.71 -0.92,4.66z"/>
   <path id="5" class="fil5" d="M301.75 405.98l0 -22.28 1.6 0 0 3.16c0.76,-2.42 1.87,-3.63 3.32,-3.63 0.63,0 1.21,0.24 1.73,0.72 0.53,0.48 0.93,1.12 1.19,1.9 0.26,0.78 0.44,1.71 0.55,2.78 0.06,0.7 0.1,1.93 0.1,3.67l0 13.68 -1.78 0 0 -13.54c0,-1.53 -0.06,-2.69 -0.2,-3.45 -0.14,-0.75 -0.38,-1.36 -0.73,-1.82 -0.35,-0.45 -0.77,-0.68 -1.24,-0.68 -0.75,0 -1.4,0.51 -1.94,1.53 -0.55,1.02 -0.82,2.96 -0.82,5.8l0 12.16 -1.78 0z"/>
   <path id="6" class="fil5" d="M316.09 405.98l5.53 -30.74 2.1 0 5.87 30.74 -2.17 0 -1.67 -9.32 -6.08 0 -1.56 9.32 -2.02 0zm4.15 -12.62l4.91 0 -1.5 -8.52c-0.46,-2.59 -0.8,-4.73 -1.04,-6.42 -0.2,2 -0.46,3.97 -0.79,5.92l-1.58 9.02z"/>
   <polygon id="7" class="fil5" points="330.84,405.98 330.84,375.24 332.62,375.24 332.62,405.98 "/>
   <path id="8" class="fil5" d="M335.28 379.32l0 -4.38 1.89 0 0 3.48c0,1.86 -0.1,3.21 -0.3,4.02 -0.29,1.13 -0.73,1.98 -1.33,2.55l-0.42 -1.49c0.35,-0.31 0.61,-0.79 0.79,-1.45 0.17,-0.66 0.27,-1.57 0.29,-2.73l-0.92 0z"/>
   <path id="9" class="fil5" d="M346.66 405.98l0 -3.31c-0.81,2.52 -1.91,3.78 -3.3,3.78 -0.62,0 -1.19,-0.25 -1.73,-0.75 -0.53,-0.51 -0.93,-1.13 -1.18,-1.89 -0.26,-0.77 -0.45,-1.7 -0.55,-2.8 -0.07,-0.74 -0.11,-1.92 -0.11,-3.52l0 -13.79 1.78 0 0 12.33c0,1.97 0.03,3.3 0.1,3.98 0.11,0.99 0.35,1.76 0.71,2.33 0.36,0.56 0.81,0.85 1.34,0.85 0.53,0 1.02,-0.29 1.49,-0.87 0.46,-0.57 0.79,-1.37 0.98,-2.36 0.2,-1 0.29,-2.45 0.29,-4.35l0 -11.91 1.78 0 0 22.28 -1.6 0z"/>
   <path id="10" class="fil5" d="M351.04 405.98l0 -22.28 1.59 0 0 3.15c0.33,-1.09 0.76,-1.97 1.31,-2.63 0.54,-0.66 1.16,-0.99 1.85,-0.99 0.78,0 1.41,0.34 1.9,1.02 0.5,0.69 0.85,1.64 1.05,2.87 0.83,-2.6 1.91,-3.89 3.24,-3.89 1.04,0 1.84,0.61 2.4,1.83 0.56,1.22 0.84,3.11 0.84,5.65l0 15.27 -1.77 0 0 -14.02c0,-1.51 -0.06,-2.59 -0.17,-3.26 -0.12,-0.66 -0.33,-1.19 -0.63,-1.6 -0.31,-0.41 -0.66,-0.61 -1.07,-0.61 -0.74,0 -1.35,0.52 -1.83,1.56 -0.49,1.05 -0.73,2.71 -0.73,5l0 12.93 -1.78 0 0 -14.46c0,-1.67 -0.14,-2.93 -0.43,-3.77 -0.29,-0.84 -0.76,-1.26 -1.42,-1.26 -0.49,0 -0.95,0.28 -1.38,0.84 -0.42,0.56 -0.72,1.37 -0.92,2.45 -0.18,1.08 -0.28,2.63 -0.28,4.65l0 11.55 -1.77 0z"/>
   <path id="11" class="fil5" d="M367.82 405.98l0 -22.28 1.59 0 0 3.15c0.33,-1.09 0.77,-1.97 1.31,-2.63 0.54,-0.66 1.16,-0.99 1.86,-0.99 0.77,0 1.4,0.34 1.9,1.02 0.49,0.69 0.84,1.64 1.04,2.87 0.83,-2.6 1.91,-3.89 3.24,-3.89 1.04,0 1.84,0.61 2.4,1.83 0.56,1.22 0.85,3.11 0.85,5.65l0 15.27 -1.78 0 0 -14.02c0,-1.51 -0.06,-2.59 -0.17,-3.26 -0.12,-0.66 -0.32,-1.19 -0.63,-1.6 -0.3,-0.41 -0.66,-0.61 -1.07,-0.61 -0.73,0 -1.35,0.52 -1.83,1.56 -0.49,1.05 -0.73,2.71 -0.73,5l0 12.93 -1.77 0 0 -14.46c0,-1.67 -0.15,-2.93 -0.44,-3.77 -0.28,-0.84 -0.76,-1.26 -1.41,-1.26 -0.5,0 -0.96,0.28 -1.38,0.84 -0.43,0.56 -0.73,1.37 -0.92,2.45 -0.19,1.08 -0.29,2.63 -0.29,4.65l0 11.55 -1.77 0z"/>
   <path id="12" class="fil5" d="M391.43 403.19c-0.65,1.2 -1.29,2.03 -1.9,2.53 -0.6,0.49 -1.26,0.73 -1.95,0.73 -1.15,0 -2.04,-0.59 -2.65,-1.79 -0.62,-1.18 -0.93,-2.71 -0.93,-4.56 0,-1.09 0.12,-2.08 0.35,-2.98 0.23,-0.91 0.54,-1.62 0.91,-2.16 0.38,-0.55 0.81,-0.96 1.28,-1.24 0.35,-0.2 0.88,-0.38 1.58,-0.57 1.43,-0.36 2.49,-0.79 3.16,-1.29 0.01,-0.52 0.01,-0.85 0.01,-0.98 0,-1.53 -0.17,-2.62 -0.5,-3.24 -0.45,-0.86 -1.13,-1.28 -2.02,-1.28 -0.84,0 -1.46,0.32 -1.85,0.94 -0.4,0.62 -0.69,1.72 -0.89,3.31l-1.73 -0.51c0.16,-1.58 0.42,-2.86 0.78,-3.84 0.36,-0.97 0.89,-1.72 1.57,-2.24 0.68,-0.53 1.48,-0.79 2.38,-0.79 0.89,0 1.62,0.22 2.18,0.67 0.56,0.45 0.97,1.01 1.23,1.69 0.27,0.68 0.45,1.54 0.56,2.58 0.06,0.64 0.09,1.8 0.09,3.47l0 5c0,3.5 0.03,5.71 0.11,6.65 0.07,0.94 0.21,1.83 0.43,2.69l-1.85 0c-0.18,-0.79 -0.3,-1.72 -0.35,-2.79zm-0.14 -8.37c-0.64,0.56 -1.61,1.03 -2.9,1.42 -0.73,0.22 -1.25,0.47 -1.55,0.75 -0.3,0.28 -0.53,0.68 -0.7,1.21 -0.16,0.54 -0.25,1.13 -0.25,1.79 0,1 0.18,1.83 0.54,2.5 0.36,0.67 0.88,1 1.57,1 0.68,0 1.29,-0.31 1.83,-0.95 0.53,-0.63 0.92,-1.5 1.17,-2.59 0.19,-0.85 0.28,-2.1 0.28,-3.76l0.01 -1.37z"/>
   <path id="13" class="fil5" d="M395.81 405.98l0 -30.74 1.77 0 0 11.07c0.82,-2.06 1.86,-3.08 3.12,-3.08 0.77,0 1.43,0.32 2.01,0.97 0.56,0.65 0.97,1.55 1.21,2.69 0.25,1.15 0.37,2.81 0.37,4.99l0 14.1 -1.77 0 0 -14.09c0,-1.88 -0.19,-3.25 -0.57,-4.11 -0.39,-0.86 -0.92,-1.29 -1.62,-1.29 -0.52,0 -1.01,0.29 -1.47,0.87 -0.46,0.58 -0.79,1.36 -0.99,2.36 -0.19,0.99 -0.29,2.35 -0.29,4.1l0 12.16 -1.77 0z"/>
   <polygon id="14" class="fil5" points="407.52,405.98 407.52,401.69 409.53,401.69 409.53,405.98 "/>
   <polygon id="15" class="fil5" points="413.12,405.98 413.12,401.69 415.13,401.69 415.13,405.98 "/>
   <polygon id="16" class="fil5" points="418.71,405.98 418.71,401.69 420.73,401.69 420.73,405.98 "/>
   <polygon id="17" class="fil5" points="424.31,405.98 424.31,401.69 426.32,401.69 426.32,405.98 "/>
   <polygon id="18" class="fil5" points="429.91,405.98 429.91,401.69 431.92,401.69 431.92,405.98 "/>
  </g>
 </g>
</svg>
