<?xml version="1.0" encoding="UTF-8"?>
<!DOCTYPE svg PUBLIC "-//W3C//DTD SVG 1.0//EN" "http://www.w3.org/TR/2001/REC-SVG-20010904/DTD/svg10.dtd">
<!-- Creator: CorelDRAW 2018 (64-Bit) -->
<svg xmlns="http://www.w3.org/2000/svg" xml:space="preserve" width="137px" height="68px" version="1.0" style="shape-rendering:geometricPrecision; text-rendering:geometricPrecision; image-rendering:optimizeQuality; fill-rule:evenodd; clip-rule:evenodd"
viewBox="0 0 67.29 33.54"
 xmlns:xlink="http://www.w3.org/1999/xlink">
 <defs>
  <style type="text/css">
   <![CDATA[
    .str1 {stroke:#E92525;stroke-width:1.16;stroke-miterlimit:22.9256}
    .str0 {stroke:#F9C216;stroke-width:1.16;stroke-miterlimit:22.9256}
    .fil1 {fill:#000304}
    .fil0 {fill:#E92525}
    .fil2 {fill:#F9C216}
    .fil3 {fill:white;fill-rule:nonzero}
   ]]>
  </style>
 </defs>
 <g id="Layer_x0020_1">
  <metadata id="CorelCorpID_0Corel-Layer"/>
  <path class="fil0" d="M37.71 9.53c-0.04,1.16 0.36,2.38 -0.11,3.42 -1.37,3.07 -5.08,3.85 -7.46,1.75 -2.4,-2.12 -2.86,-8.06 4.02,-8.15 -0.01,-0.48 0.06,-1.24 -0.14,-1.61 -0.67,-0.36 -2.9,0.26 -3.49,0.53 -3.02,1.41 -4.47,4.9 -3.16,8.11 0.73,1.78 2.27,3.27 4.44,3.73 1.26,0.28 2.45,0.3 3.61,-0.15 0.52,-0.2 0.94,-0.43 1.34,-0.71 0.31,-0.22 1,-0.84 1.12,-0.87 0.17,0.4 -0.08,1.44 0.08,1.93 0.33,0.09 1.35,0.1 1.59,-0.05 0.05,-0.56 0,-1.47 0.01,-2.08 0.01,-1.15 0.12,-5.32 -0.3,-5.93 -0.35,-0.05 -1.24,-0.02 -1.55,0.08z"/>
  <path class="fil0" d="M43.84 7.81l0.6 -0.03c0.08,-0.45 -0.36,-1.16 -0.53,-1.51 -0.24,-0.5 -0.43,-0.89 -0.76,-1.34 -1.59,-2.22 -4.83,-4.74 -7.54,-4.92 -0.25,-0.02 -0.28,-0.04 -0.3,0.19 -0.07,0.64 0.27,0.54 0.87,0.66 0.46,0.1 1.1,0.39 1.53,0.57 1.95,0.76 3.42,2.07 4.66,3.67 0.88,1.16 1.24,2.47 1.47,2.71z"/>
  <path class="fil1" d="M41.56 8.02c0.21,0 0.52,0.02 0.66,-0.06 0.28,-0.5 -0.78,-2.03 -0.99,-2.32 -0.25,-0.35 -0.46,-0.63 -0.73,-0.95 -0.14,-0.17 -0.26,-0.34 -0.39,-0.48 -0.41,-0.47 -1.75,-1.44 -2.52,-1.78 -0.67,-0.29 -1.89,-0.82 -2.72,-0.75 -0.04,0.84 -0.04,0.74 0.7,0.89 1.29,0.27 2.81,1.03 3.72,2 0.16,0.17 0.27,0.25 0.42,0.4 0.27,0.26 0.5,0.54 0.74,0.89 0.22,0.32 0.43,0.66 0.61,1.03 0.14,0.26 0.38,0.97 0.5,1.13z"/>
  <path class="fil0" d="M39.93 8.16c0.26,0 0.52,0 0.78,0 0.19,-1.55 -3.86,-5.21 -5.72,-4.83 -0.07,1.04 -0.08,0.53 1.25,1.18 1.16,0.56 1.92,1.08 2.75,2.15 0.17,0.22 0.34,0.45 0.49,0.73 0.1,0.18 0.32,0.63 0.45,0.77z"/>
  <path class="fil1" d="M35.19 6.9c0.55,0.35 1.1,0.65 1.52,1.12 0.14,0.17 0.24,0.33 0.41,0.5 0.36,0.04 1.4,-0.06 1.69,-0.18 0.21,-0.52 -1.17,-1.71 -1.42,-1.92 -0.45,-0.36 -1.51,-1.15 -2.27,-1.22 -0.01,0.53 -0.02,1.19 0.07,1.7z"/>
  <path class="fil2 str0" d="M33.18 8.75l1.34 1.8 1.34 1.8 -2.68 0 -2.67 0 1.33 -1.8 1.34 -1.8zm1.99 0.56l-0.47 2.05 -0.46 2.04 -2.05 -1.33 -2.05 -1.34 2.51 -0.71 2.52 -0.71zm1.05 1.42l-2.05 1.34 -2.05 1.33 -0.46 -2.04 -0.47 -2.05 2.52 0.71 2.51 0.71z"/>
  <path class="fil0 str1" d="M0.58 17.95l33.59 1.26 32.54 -1.26 0 14.99 -32.09 -0.95 -34.04 0.95 0 -14.99z"/>
  <path class="fil3" d="M4.55 19.61l0.96 0 1.27 8.89c0.07,0.47 0.13,0.76 0.18,0.87 0.05,0.11 0.15,0.16 0.3,0.16l0 1.59 -2.01 0 0 -1.59 0.13 -0.01c0.11,0 0.18,-0.04 0.23,-0.12 0.04,-0.08 0.06,-0.17 0.06,-0.29 0,-0.1 -0.01,-0.3 -0.05,-0.61l-0.13 -1.05 -1.29 0 -0.15 1.17c-0.04,0.25 -0.05,0.41 -0.05,0.48 0,0.09 0.01,0.17 0.03,0.24 0.03,0.07 0.06,0.13 0.12,0.16 0.03,0.02 0.13,0.03 0.28,0.03l0 1.59 -1.64 0 0 -1.59c0.11,0 0.19,-0.02 0.23,-0.07 0.05,-0.05 0.09,-0.12 0.12,-0.22 0.03,-0.1 0.07,-0.29 0.11,-0.56l1.3 -9.07zm-0.12 6.2l0.84 0 -0.41 -3.15 -0.43 3.15z"/>
  <path id="1" class="fil3" d="M8.72 19.61l2.06 0 0 1.59 -0.18 0c-0.1,0 -0.16,0.01 -0.19,0.04 -0.05,0.05 -0.08,0.14 -0.11,0.25 -0.02,0.11 -0.03,0.29 -0.03,0.54l0 6.56c0,0.27 0.01,0.43 0.02,0.49 0,0.06 0.02,0.11 0.05,0.15 0.03,0.03 0.08,0.05 0.17,0.05 0.27,0 0.48,-0.1 0.65,-0.29 0.16,-0.19 0.31,-0.5 0.44,-0.93 0.14,-0.42 0.25,-1 0.35,-1.73l0.55 0.52 -0.55 4.27 -3.23 0 0 -1.59 0.2 0c0.08,0 0.15,-0.03 0.19,-0.09 0.04,-0.06 0.07,-0.14 0.09,-0.24 0.02,-0.1 0.03,-0.28 0.03,-0.54l0 -6.52c0,-0.28 -0.01,-0.48 -0.03,-0.6 -0.02,-0.12 -0.05,-0.21 -0.08,-0.26 -0.04,-0.06 -0.1,-0.08 -0.18,-0.08l-0.22 0 0 -1.59z"/>
  <path id="2" class="fil3" d="M13.64 19.61l3.51 0 0.48 3.67 -0.55 0.52c-0.09,-0.54 -0.17,-0.94 -0.25,-1.21 -0.08,-0.27 -0.18,-0.5 -0.29,-0.68 -0.11,-0.19 -0.23,-0.31 -0.36,-0.37 -0.09,-0.04 -0.25,-0.06 -0.47,-0.06l-0.52 0 0 3.06 0.27 0c0.1,0 0.18,-0.04 0.24,-0.12 0.06,-0.08 0.1,-0.19 0.12,-0.32 0.03,-0.14 0.04,-0.36 0.04,-0.67l0 -0.61 0.55 0 0 5.16 -0.55 0 0 -0.75c0,-0.21 -0.01,-0.37 -0.02,-0.47 -0.02,-0.13 -0.04,-0.24 -0.08,-0.32 -0.03,-0.08 -0.07,-0.14 -0.11,-0.17 -0.04,-0.03 -0.12,-0.05 -0.22,-0.05l-0.24 0 0 2.42c0,0.29 0.01,0.49 0.03,0.59 0.02,0.1 0.04,0.18 0.09,0.23 0.04,0.05 0.11,0.07 0.23,0.07l0.17 0 0 1.59 -2.07 0 0 -1.59 0.14 0c0.15,0 0.25,-0.05 0.3,-0.16 0.05,-0.1 0.07,-0.32 0.07,-0.65l0 -6.62c0,-0.31 -0.01,-0.51 -0.03,-0.6 -0.01,-0.11 -0.04,-0.18 -0.09,-0.23 -0.04,-0.05 -0.12,-0.07 -0.25,-0.07l-0.14 0 0 -1.59z"/>
  <path id="3" class="fil3" d="M18.78 19.61l2.07 0 0 1.59 -0.19 0c-0.11,0 -0.18,0.02 -0.22,0.08 -0.03,0.05 -0.06,0.13 -0.08,0.24 -0.01,0.12 -0.02,0.33 -0.02,0.65l0 6.38c0,0.35 0.01,0.57 0.02,0.67 0.01,0.1 0.04,0.17 0.07,0.21 0.05,0.07 0.11,0.1 0.19,0.1l0.23 0 0 1.59 -2.07 0 0 -1.59 0.17 0c0.12,0 0.2,-0.02 0.24,-0.07 0.03,-0.05 0.06,-0.12 0.08,-0.22 0.02,-0.1 0.02,-0.3 0.02,-0.61l0 -6.4c0,-0.36 0,-0.59 -0.02,-0.71 -0.02,-0.11 -0.05,-0.2 -0.09,-0.26 -0.03,-0.04 -0.1,-0.06 -0.21,-0.06l-0.19 0 0 -1.59z"/>
  <path id="4" class="fil3" d="M23.78 19.61l2.06 0 0 1.59 -0.17 0c-0.12,0 -0.19,0.02 -0.23,0.08 -0.04,0.05 -0.06,0.13 -0.08,0.24 -0.02,0.11 -0.02,0.36 -0.02,0.75l0 4.61c0,0.72 -0.02,1.24 -0.05,1.57 -0.04,0.48 -0.13,0.94 -0.27,1.41 -0.15,0.46 -0.34,0.82 -0.56,1.07 -0.23,0.25 -0.5,0.38 -0.82,0.38 -0.34,0 -0.62,-0.16 -0.86,-0.47 -0.24,-0.32 -0.43,-0.75 -0.56,-1.3 -0.14,-0.55 -0.2,-1.11 -0.2,-1.7 0,-0.53 0.05,-0.97 0.17,-1.31 0.11,-0.34 0.26,-0.51 0.43,-0.51 0.1,0 0.19,0.05 0.26,0.16 0.07,0.1 0.13,0.27 0.17,0.48 0.04,0.22 0.07,0.45 0.07,0.7l0 0.54c0,0.3 0.02,0.59 0.08,0.86 0.03,0.21 0.1,0.37 0.19,0.5 0.09,0.13 0.19,0.19 0.3,0.19 0.14,0 0.27,-0.12 0.37,-0.35 0.1,-0.23 0.17,-0.53 0.2,-0.91 0.02,-0.22 0.03,-0.68 0.03,-1.37l0 -4.78c0,-0.24 0,-0.39 -0.01,-0.46 -0.02,-0.14 -0.05,-0.24 -0.08,-0.3 -0.05,-0.06 -0.11,-0.08 -0.21,-0.08l-0.21 0 0 -1.59z"/>
  <path id="5" class="fil3" d="M27.15 19.61l2.07 0 0 1.59 -0.19 0c-0.11,0 -0.18,0.02 -0.22,0.08 -0.03,0.05 -0.06,0.13 -0.08,0.24 -0.02,0.12 -0.02,0.33 -0.02,0.65l0 6.38c0,0.35 0,0.57 0.02,0.67 0.01,0.1 0.04,0.17 0.07,0.21 0.04,0.07 0.11,0.1 0.19,0.1l0.23 0 0 1.59 -2.07 0 0 -1.59 0.17 0c0.12,0 0.2,-0.02 0.24,-0.07 0.03,-0.05 0.06,-0.12 0.08,-0.22 0.01,-0.1 0.02,-0.3 0.02,-0.61l0 -6.4c0,-0.36 -0.01,-0.59 -0.02,-0.71 -0.02,-0.11 -0.05,-0.2 -0.09,-0.26 -0.03,-0.04 -0.1,-0.06 -0.21,-0.06l-0.19 0 0 -1.59z"/>
  <path id="6" class="fil3" d="M30.6 19.61l2.61 0c0.16,0 0.35,0.04 0.55,0.12 0.2,0.08 0.37,0.27 0.54,0.54 0.16,0.29 0.28,0.64 0.37,1.07 0.09,0.43 0.13,0.92 0.13,1.46 0,0.87 -0.11,1.58 -0.34,2.13 -0.23,0.54 -0.5,0.89 -0.81,1.05l0.86 2.76 0.04 0.13c0.06,0.18 0.11,0.32 0.15,0.41 0.05,0.09 0.1,0.16 0.14,0.2 0.05,0.03 0.12,0.05 0.2,0.05l0.18 0 0 1.59 -1.36 0 -1.35 -4.95 -0.35 0 0 2.29c0,0.4 0,0.65 0.02,0.75 0.02,0.11 0.04,0.19 0.08,0.24 0.03,0.06 0.1,0.08 0.21,0.08l0.19 0 0 1.59 -2.06 0 0 -1.59 0.19 0c0.1,0 0.17,-0.03 0.21,-0.08 0.04,-0.06 0.08,-0.15 0.1,-0.26 0.01,-0.07 0.01,-0.28 0.01,-0.62l0 -6.49c0,-0.25 -0.01,-0.43 -0.02,-0.54 -0.02,-0.11 -0.04,-0.18 -0.08,-0.21 -0.04,-0.06 -0.1,-0.09 -0.16,-0.09l-0.09 0.01 -0.16 0 0 -1.64zm1.56 1.89l0 2.98 0.62 0c0.25,0 0.43,-0.07 0.56,-0.19 0.12,-0.12 0.21,-0.3 0.27,-0.53 0.06,-0.23 0.09,-0.51 0.09,-0.84 0,-0.3 -0.03,-0.56 -0.08,-0.78 -0.06,-0.22 -0.14,-0.38 -0.25,-0.48 -0.1,-0.11 -0.28,-0.16 -0.52,-0.16l-0.69 0z"/>
  <path id="7" class="fil3" d="M38.51 19.61l2.61 0c0.17,0 0.35,0.04 0.55,0.12 0.2,0.08 0.38,0.27 0.54,0.54 0.16,0.29 0.28,0.64 0.37,1.07 0.09,0.43 0.13,0.92 0.13,1.46 0,0.87 -0.11,1.58 -0.34,2.13 -0.23,0.54 -0.5,0.89 -0.81,1.05l0.87 2.76 0.03 0.13c0.06,0.18 0.11,0.32 0.16,0.41 0.04,0.09 0.09,0.16 0.13,0.2 0.05,0.03 0.12,0.05 0.2,0.05l0.18 0 0 1.59 -1.35 0 -1.36 -4.95 -0.35 0 0 2.29c0,0.4 0,0.65 0.02,0.75 0.02,0.11 0.04,0.19 0.08,0.24 0.03,0.06 0.1,0.08 0.21,0.08l0.2 0 0 1.59 -2.07 0 0 -1.59 0.19 0c0.1,0 0.17,-0.03 0.21,-0.08 0.05,-0.06 0.08,-0.15 0.1,-0.26 0.01,-0.07 0.01,-0.28 0.01,-0.62l0 -6.49c0,-0.25 0,-0.43 -0.02,-0.54 -0.02,-0.11 -0.04,-0.18 -0.07,-0.21 -0.05,-0.06 -0.11,-0.09 -0.17,-0.09l-0.09 0.01 -0.16 0 0 -1.64zm1.56 1.89l0 2.98 0.62 0c0.25,0 0.43,-0.07 0.56,-0.19 0.12,-0.12 0.21,-0.3 0.27,-0.53 0.06,-0.23 0.09,-0.51 0.09,-0.84 0,-0.3 -0.02,-0.56 -0.08,-0.78 -0.06,-0.22 -0.14,-0.38 -0.25,-0.48 -0.1,-0.11 -0.28,-0.16 -0.52,-0.16l-0.69 0z"/>
  <path id="8" class="fil3" d="M45.85 19.61l0.96 0 1.27 8.89c0.07,0.47 0.13,0.76 0.18,0.87 0.06,0.11 0.15,0.16 0.3,0.16l0 1.59 -2 0 0 -1.59 0.12 -0.01c0.11,0 0.18,-0.04 0.23,-0.12 0.04,-0.08 0.07,-0.17 0.07,-0.29 0,-0.1 -0.02,-0.3 -0.06,-0.61l-0.13 -1.05 -1.28 0 -0.16 1.17c-0.03,0.25 -0.05,0.41 -0.05,0.48 0,0.09 0.01,0.17 0.03,0.24 0.03,0.07 0.06,0.13 0.12,0.16 0.03,0.02 0.13,0.03 0.28,0.03l0 1.59 -1.64 0 0 -1.59c0.11,0 0.19,-0.02 0.23,-0.07 0.05,-0.05 0.09,-0.12 0.12,-0.22 0.04,-0.1 0.07,-0.29 0.11,-0.56l1.3 -9.07zm-0.12 6.2l0.84 0 -0.41 -3.15 -0.43 3.15z"/>
  <path id="9" class="fil3" d="M49.75 19.61l2.22 0c0.5,0 0.91,0.21 1.2,0.65 0.3,0.43 0.54,1.08 0.72,1.93 0.17,0.85 0.26,1.88 0.26,3.07 0,0.83 -0.04,1.58 -0.13,2.23 -0.09,0.66 -0.23,1.25 -0.41,1.77 -0.17,0.53 -0.37,0.92 -0.57,1.19 -0.15,0.19 -0.37,0.36 -0.66,0.48 -0.28,0.13 -0.51,0.19 -0.68,0.19l-1.95 0 0 -1.59 0.14 0c0.13,0 0.21,-0.03 0.25,-0.08 0.03,-0.06 0.07,-0.15 0.09,-0.28 0.02,-0.1 0.03,-0.33 0.03,-0.69l0 -6.29c0,-0.35 -0.01,-0.58 -0.03,-0.68 -0.02,-0.11 -0.05,-0.18 -0.09,-0.23 -0.04,-0.06 -0.12,-0.08 -0.25,-0.08l-0.14 0 0 -1.59zm1.55 1.84l0 7.17c0,0.24 0,0.39 0.02,0.45 0.01,0.08 0.03,0.13 0.07,0.16 0.03,0.04 0.1,0.05 0.22,0.05 0.34,0 0.6,-0.14 0.78,-0.42 0.19,-0.28 0.34,-0.72 0.46,-1.34 0.11,-0.61 0.17,-1.34 0.17,-2.19 0,-0.84 -0.05,-1.57 -0.16,-2.19 -0.11,-0.62 -0.24,-1.06 -0.4,-1.31 -0.16,-0.25 -0.39,-0.38 -0.69,-0.38l-0.47 0z"/>
  <path id="10" class="fil3" d="M55.53 19.61l2.06 0 0 1.59 -0.19 0c-0.11,0 -0.18,0.02 -0.22,0.08 -0.03,0.05 -0.06,0.13 -0.07,0.24 -0.02,0.12 -0.03,0.33 -0.03,0.65l0 6.38c0,0.35 0.01,0.57 0.02,0.67 0.01,0.1 0.04,0.17 0.07,0.21 0.05,0.07 0.11,0.1 0.19,0.1l0.23 0 0 1.59 -2.06 0 0 -1.59 0.16 0c0.12,0 0.2,-0.02 0.24,-0.07 0.04,-0.05 0.06,-0.12 0.08,-0.22 0.02,-0.1 0.03,-0.3 0.03,-0.61l0 -6.4c0,-0.36 -0.01,-0.59 -0.03,-0.71 -0.02,-0.11 -0.05,-0.2 -0.09,-0.26 -0.03,-0.04 -0.09,-0.06 -0.2,-0.06l-0.19 0 0 -1.59z"/>
  <path id="11" class="fil3" d="M61.25 19.42c0.67,0 1.22,0.56 1.63,1.66 0.42,1.11 0.63,2.54 0.63,4.28 0,1.17 -0.1,2.21 -0.29,3.11 -0.19,0.91 -0.45,1.61 -0.79,2.1 -0.33,0.49 -0.74,0.74 -1.21,0.74 -0.62,0 -1.14,-0.47 -1.54,-1.4 -0.48,-1.13 -0.72,-2.63 -0.72,-4.52 0,-1.75 0.21,-3.18 0.64,-4.3 0.42,-1.11 0.97,-1.67 1.65,-1.67zm0.01 1.83c-0.32,0 -0.57,0.32 -0.76,0.98 -0.24,0.82 -0.36,1.89 -0.36,3.19 0,1.3 0.11,2.33 0.33,3.09 0.19,0.65 0.45,0.97 0.76,0.97 0.32,0 0.57,-0.32 0.76,-0.97 0.23,-0.78 0.34,-1.81 0.34,-3.11 0,-0.91 -0.05,-1.68 -0.14,-2.3 -0.1,-0.62 -0.23,-1.08 -0.39,-1.39 -0.17,-0.31 -0.34,-0.46 -0.54,-0.46z"/>
 </g>
</svg>
