<?xml version="1.0" encoding="UTF-8"?>
<!DOCTYPE svg PUBLIC "-//W3C//DTD SVG 1.1//EN" "http://www.w3.org/Graphics/SVG/1.1/DTD/svg11.dtd">
<!-- Creator: CorelDRAW 2018 (64-Bit) -->
<svg xmlns="http://www.w3.org/2000/svg" xml:space="preserve" width="160.528mm" height="154.686mm" version="1.1" style="shape-rendering:geometricPrecision; text-rendering:geometricPrecision; image-rendering:optimizeQuality; fill-rule:evenodd; clip-rule:evenodd"
viewBox="0 0 16052.8 15468.6"
 xmlns:xlink="http://www.w3.org/1999/xlink">
 <defs>
  <style type="text/css">
   <![CDATA[
    .fil0 {fill:black}
    .fil3 {fill:#1D2A38}
    .fil4 {fill:#43617C}
    .fil2 {fill:#F36621}
    .fil1 {fill:white}
   ]]>
  </style>
 </defs>
 <g id="Layer_x0020_1">
  <metadata id="CorelCorpID_0Corel-Layer"/>
  <g id="_2849937136880">
   <polygon class="fil0" points="0.01,15468.59 16052.79,15468.59 16052.79,0.01 0.01,0.01 "/>
   <path class="fil1" d="M2275.48 11839.95c-530.28,10.76 -778.17,78.29 -1115.6,343.76 -953.54,750.2 -680.57,2331.64 548.31,2683.91 346.34,99.29 1000.51,59.16 1395.05,59.16l10231.31 0c508.74,0.01 806.64,-71.06 1131.46,-321.59 913.38,-704.48 741.14,-2099.06 -231.26,-2591.41 -61.43,-31.1 -222.29,-86.45 -259.28,-114.86l256.32 -374.45c640.04,-987.15 1025.15,-2063.77 1140.26,-3277.32 143.87,-1516.66 -223.17,-3040.67 -851.59,-4148.43 -248.38,-437.85 -458.58,-755.96 -760.9,-1129.07 -98.76,-121.89 -195.57,-221.32 -294.84,-334.99 -337.93,-387 -954.62,-891.26 -1374.58,-1157.03 -1091.59,-690.81 -2303.92,-1131.75 -3888.75,-1161.89 -1662.19,-31.62 -3431.34,610.33 -4660.43,1650.24 -61.84,52.32 -109.1,88.79 -169.38,145.49l-326.29 303.67c-58.23,58.33 -117.73,113.19 -157.85,157.03 -377.33,412.22 -753.77,875.39 -1073.36,1458.31 -632.57,1153.78 -1023.77,2534.4 -897.57,4115.67 62.13,778.5 226.61,1386.63 468.47,2052.94 175.62,483.8 472,1020.84 759.87,1444.82 37.73,55.56 106.68,142.03 130.63,196.04z"/>
   <path class="fil2" d="M2291.24 12037.2c-289.2,26.78 -519.95,-45.52 -871.33,173.36 -212.82,132.56 -372.91,301.91 -486.52,563.06 -99.84,229.49 -121.94,655.92 -81.18,931.88 81.08,549.02 522.98,963.84 1071.39,1020.08 154.04,15.79 832.85,6.69 1039.64,6.69l10441.31 0c373.01,0 581.29,-12.24 854.87,-182.05 199.28,-123.68 380.17,-321.81 479.6,-569.86 95.91,-239.29 117.35,-657.13 72.53,-931.58 -49.2,-301.23 -205.83,-543.57 -365.14,-686.79 -170.07,-152.88 -401.13,-294.12 -715.32,-319.82 -323.15,-26.44 -705.66,-9.9 -1038.18,-9.9 -3122.59,0 -6245.64,0 -9368.01,0 -314.78,0 -735.17,-22.7 -1033.66,4.93z"/>
   <path class="fil3" d="M6087.18 6142.97l1252.25 -9.62c-23.23,159.12 -94.45,373.98 -140.54,528.07 -143.5,479.77 -358.68,1022.87 -564.75,1465.54 -79.74,171.29 -201.5,232.09 -439.34,231.83l-2029.93 -0.13c-37.12,9.76 -40.94,70.35 -60.57,131.26 -49.36,153.15 -317.67,954.69 -326.06,1026.72 428.31,-0.01 856.62,0 1284.93,0 806.72,0 1505.45,107.31 2156.88,-407.08 208.49,-164.62 319.16,-292.04 461.99,-506.39 34.22,-51.35 89.12,-170.3 122.7,-203.19l1127.2 3147.13 1262.7 -0.7c-11.75,-80.07 -502.55,-1425.46 -572.54,-1616.19 -33.76,-91.99 -63.64,-179.7 -94.95,-266.41 -26.69,-73.94 -85.54,-212.18 -94.42,-282.76 310.08,0.64 550.78,5.02 827.77,-89.56 686.71,-234.48 1154.57,-874.31 1154.57,-1615.52 0,-310.44 -101.72,-654.69 -237.17,-861.32 -124.55,14.85 -173.88,28.03 -293.27,24.25 -303.72,-0.12 -589.36,-128.53 -771.93,-269.22 -147.02,-113.28 -267.04,-249.65 -357.32,-412.59 -22.1,-39.9 -59.79,-152.02 -95.7,-175.29l-1010.71 -0.14 351.31 -1044.44 -2515.18 -1.22 -397.92 1206.97z"/>
   <path class="fil3" d="M8407.82 2099.82c0.06,61.69 8.67,112.33 30.73,157.81l53.23 77.54c131.22,148.66 244.99,125.76 411.06,158.6 69.36,13.71 145.96,10.4 213.39,31.97 124.52,39.83 251.93,35.57 374.96,80.96 56.45,20.82 96,16.21 153.55,43.02 13.53,6.31 296.97,86.49 428.4,141.88l1298.16 723.37c2.19,1.56 4.95,3.55 7.17,5.05l533.05 467.89c2.49,2.32 9.78,9.13 12.38,11.47l159.33 168.7c1.65,1.94 3.81,4.64 5.44,6.61l121.17 135.16c14.44,17.41 20.22,27.05 35.36,45.76l294.75 393.62c1.99,2.8 7.78,10.85 9.73,13.68l178.76 287.08c1.31,2.21 3.19,5.02 4.51,7.24l207.5 397.57c109.51,221.09 224.87,538.71 285.74,776.44 10.88,42.5 14.63,96.08 29.77,136.68 33.57,90.03 39.86,175.6 65.45,259.34 41.18,134.79 94.5,726.83 94.47,885.39l-23.98 536.83c-10.26,155.46 -31.99,225.29 -42.39,337.91 -5.41,58.67 -14.07,114.33 -27.98,161.59 -29.12,98.92 -31.8,193.29 -72.68,323.34l-136.48 447.02c-28.53,102.69 -80.69,218.36 -125.31,319.16l-324.63 619.6c-1.43,2.32 -3.22,5.19 -4.64,7.51 -1.42,2.34 -3.14,5.27 -4.56,7.6 -6.89,11.36 -11.1,18.99 -17.87,29.28l-324.32 455.98c-14.19,17.25 -29.27,37.05 -46.43,59.02l-87.4 110.16c-28.22,41.44 -41.62,41.87 -73,78.4 -1.6,1.86 -3.73,4.59 -5.33,6.47l-211.13 220.63c-1.78,1.77 -4.27,4.15 -6.05,5.94l-233.58 221.78c-1.76,1.6 -4.31,3.93 -6.04,5.51 -24.68,22.55 -26.51,23.62 -50.47,41.86l-83.25 69c-1.93,1.64 -4.52,3.92 -6.46,5.55l-215.06 160.59c-30.17,26.59 -11.92,0.15 -21.58,27.22 165.6,21.09 962.7,12.42 1171.02,4.4l234.33 -260.59c65.52,-62.72 118.93,-137.1 175.43,-208.82 68.32,-86.71 137.35,-163.71 198.73,-257.51l387.7 -591.24c15.67,-23.02 17.91,-34.72 31.89,-61.24l90.64 -178.77c17.7,-32.85 40.96,-84.38 63.09,-122.43 18.55,-31.89 35.05,-79.54 54.63,-119.25l201.83 -510.71c14.98,-35.15 31.88,-105.75 44.87,-142.27 90.46,-254.45 169.38,-620.58 199.21,-886.92 81.42,-726.79 93.06,-913.83 4.21,-1642.11l-106.58 -582.4c-51.14,-169.02 -97.54,-362.28 -159.54,-525.17l-96.82 -254.54c-55.16,-128.78 -100.73,-253.5 -164.16,-372.84 -1.24,-2.33 -2.86,-5.29 -4.05,-7.63l-154.62 -298.75c-123.22,-203.01 -169.2,-291.12 -310.32,-496.02l-338.96 -441.9c-84.18,-98.78 -172.23,-206.68 -267.52,-293.78l-294.82 -288.75c-1.79,-1.76 -4.26,-4.15 -6.07,-5.87l-30.57 -27.19c-33.64,-30.34 -52.73,-42.7 -87.84,-73.99l-194.08 -157.15c-35.31,-26.84 -60.84,-50.99 -97.71,-77.18 -19.48,-13.83 -28.49,-17.15 -48.15,-32.12l-678.66 -440.83c-112.27,-60.89 -242.58,-111.09 -353.48,-173.66 -28.17,-15.9 -25.2,-13.11 -55.33,-24.6l-313.93 -131.19c-41.84,-20.33 -81.2,-24.19 -130.48,-44.87l-382.02 -130.09c-53.04,-12.31 -89.26,-23.16 -138.11,-37.38l-172.71 -37.79c-123.55,-40.08 -275.87,-47.24 -404.32,-82.14 -100.31,-27.25 -404.22,-63.24 -516.2,-0.11 -56.66,31.94 -64.57,34.46 -107.72,80.15 -9.78,10.36 -36.32,40.02 -38.45,42.75 -49.3,63.16 -61.88,138.07 -61.8,221.72z"/>
   <path class="fil3" d="M3896.54 11772.95c91.19,11.16 1132.4,10.9 1172.52,-2.35 -12.43,-31.77 -123.28,-99.98 -151.78,-122.03l-287.06 -238.51c-130.99,-113.43 -254.41,-248.4 -372.54,-373.56l-12.11 -12.39c-123.61,-120.29 -218.27,-263.06 -323.84,-399.26l-248.02 -357.13c-100.82,-150.25 -276.64,-507.6 -341.22,-673.66l-45.88 -95.44c-85.3,-199.96 -138.64,-401.76 -201.93,-613.74 -11.85,-39.66 -12.35,-64.43 -23.71,-101.32 -42.24,-137.17 -71.83,-328.93 -81.43,-478.12 -4.39,-68.19 -44.74,-192.9 -49.58,-349.46 -4.99,-161.85 -26.8,-656.95 9.99,-805.53 10.18,-41.1 9.19,-68.45 13.35,-116.57l48.57 -360.89c6.02,-41.04 6.53,-27.02 14.07,-52.28 6.65,-22.25 8.77,-34.99 12.91,-59.44l48.67 -217.24c10.94,-56.06 19.3,-57.54 30.61,-113.07 6,-29.45 3.25,-27.32 12.97,-54.74l36.33 -102.91c6.64,-19.02 10.09,-22.01 18.44,-52.21 12.16,-44 14.14,-53.83 32.32,-94.35 14.43,-32.18 19.89,-71.45 33.95,-108.44l50.88 -133.79c1.3,-2.34 3.12,-5.16 4.47,-7.47 75.37,-129.53 121.14,-296.91 197.58,-419.19 38.46,-61.52 56.67,-112 92.74,-176.66l347.79 -526.65c13.91,-20.14 14.63,-22.86 27.99,-44.05 47.99,-76.09 117.51,-151.84 176.96,-217.75l617.58 -619.15 203.68 -158.93c2.1,-1.5 4.86,-3.55 6.95,-5.06 173.94,-126.17 327.15,-240.39 507.11,-342.84l680.75 -334.54c178.01,-87.58 367.9,-138.38 554.56,-193.75 39.26,-11.64 79.61,-13.59 115.33,-25.21 2.6,-0.84 5.51,-2.17 8.05,-3.05l202.18 -51.95c148.87,-39.46 613.31,-74.94 690.69,-126.28 49.67,-32.94 109.41,-75.01 141.61,-128.38 28.33,-46.95 69.26,-152.86 65.91,-214.12 -5.26,-95.85 -44.94,-188.36 -109.34,-255.55 -202.24,-211.01 -564.64,-75.27 -825.99,-45.18 -34.56,3.98 -28.39,3.58 -55.12,12.27 -114.19,37.12 -265.04,59.77 -382.45,95.23 -35.62,10.76 -68.78,12.77 -104.89,24.03l-406.85 139.37c-115.29,37.27 -225.34,93.72 -333.93,132.73 -14.62,5.26 -14.39,5.36 -25.72,10.45l-16 8c-2.6,1.23 -5.47,2.78 -8.09,3.99 -38.46,17.88 -63.39,31.55 -92.81,44.93 -34.36,15.64 -55.68,24 -88.89,41.18l-92.54 47.23c-15.41,6.73 -35.11,12.81 -49.81,20.67l-380.7 224.24c-32.52,20.06 -55.03,29.91 -88.92,53.3 -112.19,77.42 -219.49,140.09 -320.9,226.71 -32.01,27.35 -46.86,33.37 -73.77,53.76l-308.43 251.29c-1.85,1.64 -4.38,4 -6.22,5.64l-90.69 85.02c-17.35,15.51 -17.59,14.33 -36.56,31.96l-928.89 1100.63c-17.44,27.56 -36.04,55.19 -55.96,85.59 -19.01,29.03 -28.07,55.14 -49.11,90.28l-103.24 163.55c-20.63,32.94 -26.48,59.5 -47.21,95.14l-91.41 174.26c-53.75,85.93 -89.86,197.82 -131.37,292.07l-280.73 802.22c-58.55,171.3 -150.86,756.08 -165.45,919.45 -32.71,366.34 -29.4,674.55 -7.5,1039.04 8.45,140.75 20.52,351.41 58.47,482.94 11.77,40.78 10.42,73.34 17.13,115.66 7.66,48.27 20.72,68.86 28.63,102.61 8.78,37.5 11.5,91.32 18.28,127.38l50.7 217.52c4.12,17.59 3.23,13.31 7.8,26.85 63.04,186.65 109.5,379.21 187.2,556.85l52.23 124.57c4.74,13.97 8.85,24.95 16.37,39.94l8.14 14.66c1.16,2.3 2.85,5.21 3.98,7.57 5.78,12.12 4.51,8.89 10.39,24.72l62 149.48c1.12,2.34 2.79,5.23 3.93,7.57 1.15,2.37 2.83,5.27 3.99,7.66l272.06 511.39c13.57,21.01 14.83,23.69 25.9,42.82 64.51,111.49 187.83,306.35 267.86,406.95 44.35,55.74 83.28,108.34 123.63,158.65 100.77,125.66 194.26,257.38 308.27,368.44l102.49 106.79c37.03,43.38 63.01,55.92 91.63,108.94z"/>
   <path class="fil2" d="M10742.37 4263.46c-639.6,87.07 -1180.99,672.67 -1085.54,1418.32 82.01,640.68 673.19,1192.5 1430.86,1090.48 620.29,-83.51 1190.74,-677.06 1081.53,-1420.36 -94.66,-644.32 -667.23,-1191.85 -1426.85,-1088.44z"/>
   <path class="fil1" d="M4734.53 14254.6l445.3 3.24c37.66,-11.35 80.1,-322.72 88.3,-358.6 16.82,-73.58 195.15,-213.74 227.79,-227.49l371.73 583.29 864.7 2.48 183.97 -317.8 701.76 -3.61 68.17 320.89 465.9 0.18c-30.7,-169.56 -374.38,-1601.66 -405.74,-1648.73l-454.99 -1c-85.11,110.04 -169.36,266.15 -243,378.48l-666.89 1036.05c-21.12,33.75 -37.85,71.58 -70.07,93.93l-466.05 -747.13c67.53,-96.45 803.33,-701.43 831.26,-760.8 -157.39,-3.75 -325.35,-3.98 -482.82,-1.69 -92.74,1.35 -96,36.4 -150.07,86.43 -84.84,78.51 -607.18,554.52 -642.63,570.8l125.69 -655.67 -463.31 -0.63 -329 1647.38z"/>
   <path class="fil1" d="M8289.41 14255.97c301.18,12.05 966.34,26.85 1216.93,-48.89 315.31,-95.31 550.12,-319.66 631.07,-639.91 106.9,-422.91 -45.5,-726.05 -334.05,-867.43 -267.94,-131.29 -838.51,-97.32 -1183.9,-92.13l-330.05 1648.36z"/>
   <path class="fil1" d="M7871.39 8246.44c221.82,0.42 1871.91,20.23 2015.52,-17.27 174.85,-45.65 300.23,-172.55 355.09,-332.23 70.14,-204.14 -12.78,-404.34 -115.11,-513.13 -128.92,-137.04 -287.29,-155.32 -525.54,-155.32 -454.97,0.01 -910,-0.8 -1364.96,0.07 -33.87,18.7 -18.04,2.85 -36.49,49.88l-64.06 191.43c-29.9,88.41 -59.05,172.19 -89.85,261.14l-174.6 515.43z"/>
   <path class="fil4" d="M4900.08 1547.15l41.94 -2.04 -1069.3 1055.38c-1.8,1.66 -4.26,4.06 -6.05,5.75l-201.31 195.66c-17,17.44 -26.28,30.13 -44.63,49.57l-959.4 952.29c-14.63,14.88 -28.68,28.77 -47.42,47.15l-65.88 61.85c-7.95,7.36 -15.57,14.73 -24.02,22.74l-298.4 296.67c-62.37,55.36 -156.38,176.35 -222.51,204.71 1.88,-3.4 9.52,-17.4 10.61,-20.13l7.66 -20.82c0.93,-2.59 1.91,-7.05 2.95,-10.54 -44.73,19.51 1.95,-24.91 -60.72,88.54 -16.98,30.75 -37.14,70.15 -46.91,90.39 -65.84,136.42 -123.66,243.9 -174.3,389.06l-228.21 608.63c-0.21,0.72 -7.45,24.14 -8.11,26.04 -0.96,2.77 -2.15,5.83 -3.16,8.59 -40.32,109.64 -101.72,314.62 -107.41,416.77 49.28,-21.05 87.65,-67.34 125.65,-105.43l245.49 -245.28c1.74,-1.73 4.16,-4.21 5.88,-5.94l107.32 -101.71c28.34,-28.26 48.09,-49.77 76.21,-76.35 30.09,-28.45 47.6,-55.25 80.61,-78.4l-12 51.9c41.62,-23.16 24.69,-31.53 44.34,-82.81l98.41 -253.28c1.1,-2.35 2.69,-5.31 3.78,-7.64l277.47 -559.62c79.31,-155.21 172.87,-287.26 263.6,-435.68 6.45,-10.54 8.29,-14.71 13.37,-23.2l198.03 -279.69c21.2,-32.61 3.87,-10.45 25.26,-33.92l33.64 -36.42c19.08,-25.15 29.11,-46.17 47.19,-68.8l406.55 -467.12c1.67,-1.83 3.99,-4.4 5.69,-6.22 1.69,-1.83 4,-4.4 5.72,-6.22l513.49 -479.9c12.49,-12.01 12.96,-13.77 30.61,-26.41 236.77,-169.62 327.27,-254.85 601.29,-437.92 2.1,-1.4 4.88,-3.4 6.96,-4.78l559.13 -326.63c16.83,-7.31 23.05,-7.87 41.35,-16.14l641.38 -282.46c90.5,-34.18 67.9,-5.57 82.88,-41.13 16.6,-58.54 229.25,-240.19 280.82,-294.05l252.81 -248.41c34.04,-30.73 84.45,-73.37 97.11,-107.4l-874.11 264.19 -421.54 171.31c-7.02,3.27 -18.69,7.83 -26.09,11.02 -31.63,13.63 -23.97,11.3 -45.2,22.83 -53.58,29.12 -231.61,93.77 -288.52,151.45z"/>
   <path class="fil3" d="M11377.77 2048.36c170.78,91.38 339.08,198.48 499.41,308.66l139.91 103.78c39.11,28.98 110.35,87.46 144.39,97.68 51.87,-10.68 33.69,-1.59 78.88,-48.81l90.84 -95.08c157.88,-148.28 133.85,-181.07 230.12,-102.6l282.54 243.08c113.32,98.73 134.33,100.94 77.75,158.55 -2.14,2.18 -22.28,21.28 -23.66,22.55 -11.49,10.64 1.4,-0.31 -18.48,16.38l-191.65 191.47c-39.58,38.92 -16.67,-10.32 -34.12,48.92l459.46 483.51c1.48,1.9 3.53,4.64 5.01,6.53l10.22 12.91c1.53,1.85 3.71,4.51 5.27,6.34l265.68 341c1.47,2.05 3.43,4.87 4.95,6.87l77.05 97.87c34.77,51.37 18.65,45.64 47.91,63.4l44.94 -38.7c10.16,-9.87 14.4,-14.98 22.98,-22.85 9.7,-8.91 8.49,-6.9 19.46,-16.69l197.79 -198.19c36.65,-27.76 11.89,-16 45.11,-21.5 32.32,25.23 70.63,101.46 94.95,134.6l116.48 175.47c8.36,12.65 13.93,21.72 22.16,34.98l283.85 511.92c13.48,26.97 28.98,53.36 39.07,75.07 15.77,33.92 15.45,54.11 33.22,85.46 1.12,1.98 3.16,4.65 4.32,6.61l52.47 111.86c23.41,57.57 5.48,51.86 -25.58,88.95l-244.37 244.66c-18,16.98 -20.19,17.96 -37.65,31.51l1.22 36.84c-1.03,44.37 51.95,160.53 70.98,216.85 13.83,40.96 29.82,72.41 40.58,108.55 12.52,42.01 15.92,86.54 36.61,115.5 1.68,1.68 21.96,18.29 24.82,21.91l338.51 -332.87c25.82,29.94 54.04,112.27 55.96,159.86l-63.94 62.09c-13.72,11.92 -13.8,10.94 -25.74,21.95l-214.78 216.23c-25.38,26.88 -22.02,18.12 -43,54.4 -4.56,72.73 29.8,144.8 43.97,207.52 8.64,38.28 10.48,73.25 19.44,111.16l90.21 446.45c3.46,46.36 9.56,76.22 13.83,115.83 40.27,-15.4 22.89,-11.23 55.61,-44.99l292.85 -290.82c17.15,-18.15 26.04,-29.52 60,-31.35 15.93,141.02 81.77,527.55 64.34,647.09 -6.87,47.06 -28.05,68.05 -63.58,113.04 -18.03,22.84 -17.32,15.62 -18.21,22.24 47.71,0.01 58.19,-18.57 81.46,-54.35 18.73,-28.79 39.62,-62.06 45.8,-93.44 11.39,-57.75 -14.13,-187.85 -21.01,-255.13l-35.23 -242.98c-10.08,-75.21 -29.93,-158.61 -41.91,-237.59 -3.98,-26.27 -5.13,-36.75 -12.07,-60.48 -24.94,-85.18 -54.2,-289.08 -91.2,-399.95l-66.04 -212.52c-36.33,-101.07 -80.38,-283.03 -121.59,-379.94l-59.32 -149.7c-14.64,-34.82 -24.58,-56.81 -41.21,-98.1 -151.41,-375.89 -204.11,-428.86 -347.15,-715.97l-473.9 -726.86c-18.34,-22.88 -37.67,-56.14 -58.13,-81.99l-328.34 -395.16c-1.63,-1.8 -3.88,-4.45 -5.47,-6.28l-186.51 -197.68c-20.29,-20.68 -17.13,-18.96 -32.42,-37.79l-104.07 -107.31c-13.12,-11.98 -20.41,-18.57 -35.39,-33.26l-189.26 -174.28c-171.21,-151.52 -412.25,-365.55 -588.61,-472.72 -31.9,-19.39 -16.02,-7.58 -40.97,-27.53l-80.52 -61.7c-12.87,-9.59 -27.63,-18.83 -41.03,-27.44l-342.97 -216.72c-32.1,-18.12 0.07,-10.5 -49.8,-26.64l-36.82 25.29c-2.43,1.93 -17.98,16.27 -19.12,17.4l-198.56 195.65c-30.42,31.26 -38.46,52.6 -80.21,72.23l1.21 39.29z"/>
   <polygon class="fil1" points="2676.56,14253.97 3175.96,14257.52 3359.72,13939.67 4059.87,13936.11 4130.04,14255.59 4596.29,14257.5 4199.34,12607.74 3730.42,12607.25 "/>
   <path class="fil1" d="M12380.42 14252.2l475.81 5.7c50.11,-11.09 172.52,-296.04 210,-317.7 78.9,-11.04 632.31,-12.14 699.97,2.05l66.51 311.92 466.46 2.98 -396.14 -1645.3 -469.42 -4.95 -1053.19 1645.3z"/>
   <path class="fil1" d="M1821.15 12968.52l562.75 0.62 -143.74 740.21c-30.52,118.88 -92.83,207.97 -233.6,208.29 -180.12,0.42 -199.31,-114.02 -281.28,-163.02 -57,58.23 -273.01,248.42 -289.62,290.77 106.97,171.08 325.37,247.21 582.61,246.15 669.71,-2.75 682.1,-557.18 799.93,-1150.09 21.6,-108.74 106.08,-454.92 103.18,-535.46 -263.49,-11.71 -741.7,-2.01 -1027.57,-1.89 -16.18,38.5 -73.3,315.09 -72.66,364.42z"/>
   <path class="fil1" d="M11463.65 14257.55l468.77 -0.49c29.52,-179.38 67.67,-367.54 105.51,-540.49 15.76,-72.04 89.83,-144.27 130.93,-195.18 47.88,-59.31 94.35,-118.56 144.75,-181.95 71.01,-89.31 553.52,-683.19 571.4,-732.22l-474.18 0.21c-32.58,58.87 -489.68,627.58 -524.61,646.79l-253.07 -642.33 -469.99 -4.9c16.07,78.15 317.3,811.09 381,966.14 44.9,109.28 32.05,102.19 8.8,218.7 -28.74,144 -75.04,324.95 -89.31,465.72z"/>
   <path class="fil3" d="M2024.32 4385.39c-1.04,3.49 -2.02,7.95 -2.95,10.54l-7.66 20.82c-1.09,2.73 -8.73,16.73 -10.61,20.13 66.13,-28.36 160.14,-149.35 222.51,-204.71l298.4 -296.67c8.45,-8.01 16.07,-15.38 24.02,-22.74l65.88 -61.85c18.74,-18.38 32.79,-32.27 47.42,-47.15l959.4 -952.29c18.35,-19.44 27.63,-32.13 44.63,-49.57l201.31 -195.66c1.79,-1.69 4.25,-4.09 6.05,-5.75l1069.3 -1055.38 -41.94 2.04c-56.58,7.51 -383.77,213.73 -450.82,254.75l-109.6 65.57c-28.22,17.27 -21.84,16.58 -46.53,33.75l-430.06 305.54c-2.79,2.11 -10.61,8.52 -13.31,10.69l-121.26 100.39c-43.43,38.88 -73.17,46.82 -145.85,121.89l-506.96 484.69c-62.18,63.7 -123.93,131.33 -174.08,187.82l-242.21 292.7c-141.81,187.51 -282.38,369.62 -405.57,574.65l-37.02 56.65c-25.41,37.59 -49.67,77.56 -69.82,116.68 -8.56,16.6 -16.16,35.39 -27.77,55.42l-13.21 21.45c-1.28,2.07 -3.06,5.02 -4.35,7.07 -21.68,34.28 -74.82,114.07 -77.34,148.53z"/>
   <path class="fil1" d="M9975.16 5364.64l294 3.56 -146.06 760.48 271.59 -0.78c47.52,-80.43 116.17,-614.83 161.61,-759.84l293.35 -0.81 29.6 -122.06c27.75,34.95 23.52,44.34 36.05,101.44 8.99,41 16.68,74.36 25.99,115.65 30.62,135.72 124.1,593.34 153.34,662.23l221.66 4.99c67.62,-0.19 44.83,12.01 110.31,-93.11 27.21,-43.69 52.29,-83.44 81.02,-128.8l468.42 -757.41 -283.21 -1.24 -393.07 626.91 -143.86 -628.4 -1133.66 0.87 -47.08 216.32z"/>
   <path class="fil3" d="M14043.93 10278.23l-222.85 440.05c-86.96,124.75 -92.66,161.02 -171.76,281.48l-34.66 48.19c-57.65,78.28 -105.79,174.4 -183.83,269.81 -60.54,74 -80.23,119.6 -162.95,211.63l-16.05 18.98c-8.19,10.64 -11.12,16.6 -19.17,27.52 -23.91,32.44 -122.29,134.29 -127.39,169.77 1.75,23.43 -7.77,19.86 88.67,18.13 318.36,-5.71 177.88,14.56 397.67,-179.85 8.11,-7.17 11.62,-9.88 19.04,-16.42l41.07 -39.11c6.18,-6.25 -0.11,0.3 11.59,-11.73l267.79 -269.8c43.52,-42.24 78.84,-67.76 119.65,-112.48l109.52 -117.72c27.65,-9.68 8.94,3.82 27.11,-25.8l295.98 -579.94c1.21,-2.44 2.86,-5.29 4.06,-7.75 64.05,-130.85 118.41,-285.2 170.47,-413.38 4.31,-10.63 10.48,-28.56 15.62,-40.91l55.27 -145.23c16.81,-54.58 57.15,-138.04 50.45,-200.13l-8.92 -34.96 -628.73 629.43c-17.04,15.86 -27.34,27.89 -47.09,46.61 -41.73,39.54 -7.74,21.19 -50.56,33.61z"/>
   <polygon class="fil1" points="10242.09,14255.1 10712.42,14257.7 11041.22,12608.07 10569.94,12607.42 "/>
   <path class="fil4" d="M13529.25 4011.37c15.76,54.07 17.88,40.98 43.24,79.69l24.61 42.31c1.4,2.18 3.35,5.01 4.82,7.18 1.48,2.2 3.52,4.95 5.04,7.14l471.24 860.18c3.42,8.83 12.53,30.96 16.64,39.42 14.26,29.46 4.06,2.43 19.65,39.91 26.05,62.63 18.34,60.82 55.04,120.05l30.14 44.12 -1.22 -36.84c17.46,-13.55 19.65,-14.53 37.65,-31.51l244.37 -244.66c31.06,-37.09 48.99,-31.38 25.58,-88.95l-52.47 -111.86c-1.16,-1.96 -3.2,-4.63 -4.32,-6.61 -17.77,-31.35 -17.45,-51.54 -33.22,-85.46 -10.09,-21.71 -25.59,-48.1 -39.07,-75.07l-283.85 -511.92c-8.23,-13.26 -13.8,-22.33 -22.16,-34.98l-116.48 -175.47c-24.32,-33.14 -62.63,-109.37 -94.95,-134.6 -33.22,5.5 -8.46,-6.26 -45.11,21.5l-197.79 198.19c-10.97,9.79 -9.76,7.78 -19.46,16.69 -8.58,7.87 -12.82,12.98 -22.98,22.85l-44.94 38.7z"/>
   <path class="fil2" d="M8835.72 13882.5c192.61,2.11 406.08,21.23 565.11,-49.43 322.48,-143.29 392.15,-630.46 158.98,-784.44 -114.67,-75.73 -379.12,-82.84 -541.78,-63.13l-182.31 897z"/>
   <path class="fil4" d="M9232.15 1272.86l794.7 195.04c40.1,14.77 -0.13,7.29 53.45,22.45l209.3 57.49 -15.86 -44.04c45.59,-22.17 68.65,-53.16 103.55,-86.92l28.24 -28.56c50.85,-54.49 162.81,-149.73 191.09,-192.63l70.6 9.17 -368.55 -141.76c-147.83,-52.05 -340.4,-86.75 -432.98,-115.19l-109.25 -29.34c-58.22,-10.85 -105.41,-30.37 -153.72,-31.16l6.53 31.06c-42.37,15.18 -182.79,163.56 -235.1,219.09 -39.18,41.6 -101.36,118.07 -142,135.3z"/>
   <path class="fil4" d="M1354.28 9011.58l66.53 324.97c0.9,2.81 2.23,5.65 3.19,8.41l10.09 25.64c22.23,67.63 12.11,74.38 49.52,169.79 38.21,97.47 61.9,223.47 103.4,318.87 1.12,2.57 2.61,5.54 3.67,8.14 32.22,78.51 45.21,179.58 94.18,221.01 -7.02,-119.35 -88.18,-23.06 109.93,-220.77l49.87 -44.07c51.28,-46.91 91.18,-99.99 154.87,-149.51 -3.8,-65.95 -17.9,-94.76 -34.05,-137.98 -17.32,-46.36 -19.61,-79.07 -35.47,-125.94l-165.94 -649.61c-10.7,-73.19 -1.43,-109.9 -30.77,-152.79 -4.91,44.83 5.74,52.55 -16.35,85.14l-329.15 328.75 -33.52 -10.05z"/>
   <path class="fil2" d="M5119.31 5678.08c-50.35,-144.53 -112.5,-174.74 -165.38,-446.33 -37.35,-191.8 -29.3,-385.93 13.79,-567.59 213.8,-901.53 1286.76,-1361.46 2116.68,-770.79 51.17,36.42 129.65,120.85 175.18,144.6 -41.97,-95.91 -244.64,-269.02 -347.09,-334.45 -137.48,-87.82 -301.26,-158.55 -493.42,-193.39 -429.98,-77.97 -803.23,60.66 -1063.8,258.32 -619.56,469.98 -689.64,1393.71 -235.96,1909.63z"/>
   <path class="fil3" d="M10289.6 1547.84l809.1 343.66c59.23,-5.04 43.15,-11.03 111.07,-72.71l202.29 -195.09c1.77,-1.59 4.37,-3.86 6.09,-5.49l11.84 -11.59c17.1,-18.97 22.93,-23.54 26.66,-55.32l-304.93 -149.5c-2.11,-1.2 -4.83,-3.23 -6.92,-4.45l-65.72 -28.81c-47.64,-15.18 -58.95,-26.43 -96.14,-41.88l-106.4 -45.5c-50.31,-19.57 -163.76,-74.7 -209.32,-76.3l-70.6 -9.17c-28.28,42.9 -140.24,138.14 -191.09,192.63l-28.24 28.56c-34.9,33.76 -57.96,64.75 -103.55,86.92l15.86 44.04z"/>
   <path class="fil3" d="M1684.86 10088.41c0.77,72.76 136.58,321.82 166.09,390.88l89.56 191.62c20.35,37.44 66.7,149.33 102.92,181.12l247.78 -231.46c30.34,-29.67 64.22,-53.5 79.85,-94.13 -2.42,-14.59 -199.46,-410.73 -237.49,-527.58l-44.07 -106.23c-22.21,-51.86 -54.84,-175.8 -89.97,-218.57 -63.69,49.52 -103.59,102.6 -154.87,149.51l-49.87 44.07c-198.11,197.71 -116.95,101.42 -109.93,220.77z"/>
   <path class="fil3" d="M2190.63 11110.86l447.52 648.13c49.68,6.72 100.54,5.1 150.89,4.79 66.68,-0.41 66.9,6.29 106.56,-36.61l78 -74.84c31.5,-28.52 59.84,-47.93 70.76,-97.64 -45.48,-73.02 -113.73,-138.42 -162.72,-215.27l-227.86 -332.6c-23.32,-36.09 -37.74,-55.58 -56.35,-93.77l-63.75 -93.62c-3.17,-2.99 -8.37,-5.84 -10.37,-7.92l-15.05 -25.65c-39.3,14.01 -115.36,93.11 -146.29,127.27 -33.75,37.27 -127.08,141.95 -170.59,153.08l-0.75 44.65z"/>
   <path class="fil3" d="M1395.5 6013.41c-22.44,29.65 -63.88,285.11 -74.3,351.43 -16.21,103.16 -72.88,276.2 -56.25,380.15l0.52 76.65c41.56,-16.49 149.31,-141.94 193.57,-183.85l288.61 -282.11c39.82,-36.87 -4.07,-17.23 41.37,-26.9 3.82,-80.66 27.53,-157.05 50.71,-230.46 19.15,-60.65 46.49,-162.74 60.14,-217.94 18.69,-75.56 33.49,-153.01 60.39,-220.93 18.31,-46.21 65.81,-163.9 64.4,-207.25l12 -51.9c-33.01,23.15 -50.52,49.95 -80.61,78.4 -28.12,26.58 -47.87,48.09 -76.21,76.35l-107.32 101.71c-1.72,1.73 -4.14,4.21 -5.88,5.94l-245.49 245.28c-38,38.09 -76.37,84.38 -125.65,105.43z"/>
   <path class="fil3" d="M6555.54 926.35c-12.66,34.03 -63.07,76.67 -97.11,107.4l-252.81 248.41c-51.57,53.86 -264.22,235.51 -280.82,294.05l337.48 -109.25c16.39,-4.76 35.47,-8.12 55.06,-13.71l35.36 -12.16c2.64,-1 5.53,-2.42 8.15,-3.41 80.55,-30.45 399.31,-96.11 497.91,-115.24 13.18,-31.47 35.84,-44.89 61.53,-71.51l58.11 -58.14c22.65,-20.77 42.7,-35.64 66.5,-62.62l180.35 -182.11c28.89,-30.25 91.97,-96.68 128.06,-115.38 1.92,-41.2 6.62,-14.4 -22.81,-29.36 -59.52,-9.96 -145.65,3 -197.94,17.3l-390.4 65.25c-65.47,9.64 -113.07,27.07 -186.62,40.48z"/>
   <path class="fil3" d="M14519.34 8801.9c-4.22,79.14 -24.05,142.96 -39.15,205.94l-103.13 408.17c-12.96,60.93 -67.48,150.12 -50.94,192.03l-8.14 55.3c2.03,-1.25 16.66,-17.84 17.49,-18.72 1.45,-1.53 4.06,-4.46 5.69,-6.15 1.61,-1.68 4.09,-4.28 5.78,-6l231.24 -223.72c18.37,-17.84 27.39,-26.54 41,-39.96l144.9 -146.11c39.39,-38.82 121.99,-134.05 170.12,-152.6 8.77,-104.99 83.25,-310.41 65.82,-400.72l43.06 -380.46c-41.25,16.61 -34.87,17.28 -76.58,61.87 -21.83,23.34 -38.36,43.22 -63.88,65.36l-162.79 162.3c-3.68,3.53 -18.17,17.21 -18.37,17.4l-142.87 136.71c-40.12,42.27 -19,58.78 -59.25,69.36z"/>
   <path class="fil3" d="M9232.15 1272.86c40.64,-17.23 102.82,-93.7 142,-135.3 52.31,-55.53 192.73,-203.91 235.1,-219.09l-6.53 -31.06 -502.65 -83.54c-166.72,-13.56 -381.07,-63.9 -480.32,10.3 -68.02,50.84 -105.47,135.33 -78.75,246.52l13.55 34.31c29.54,57.52 70.44,99.79 140.41,113.22 55.88,10.73 515.44,67.49 537.19,64.64z"/>
   <path class="fil2" d="M5298.08 5626.47c-39.16,-128.93 -100.36,-174.77 -132.99,-409.61 -110.31,-793.92 574.11,-1452.11 1344.92,-1333.6 249.68,38.39 582.92,206.44 706.56,381.55 -118.69,-224.54 -431.29,-422.04 -696.89,-484.88 -355.11,-84.02 -709.06,7.25 -950.81,178.7 -209.82,148.8 -406.89,379.88 -480.29,721.4 -54.35,252.92 -23.7,528.93 88.56,758.83l114 181.32c1.48,1.48 4.48,4.36 6.94,6.29z"/>
   <path class="fil4" d="M12161.48 2558.48c15.85,41.63 15.54,28.4 51.2,55.95l441.02 378.51c17.45,-59.24 -5.46,-10 34.12,-48.92l191.65 -191.47c19.88,-16.69 6.99,-5.74 18.48,-16.38 1.38,-1.27 21.52,-20.37 23.66,-22.55 56.58,-57.61 35.57,-59.82 -77.75,-158.55l-282.54 -243.08c-96.27,-78.47 -72.24,-45.68 -230.12,102.6l-90.84 95.08c-45.19,47.22 -27.01,38.13 -78.88,48.81z"/>
   <path class="fil2" d="M5484.57 5649.58c-38.14,-126.8 -90.19,-195.67 -112.54,-356.86 -125.09,-902.47 896.28,-1538.44 1656.71,-982.04l134.85 110.56c-39.85,-84.63 -183.98,-201.7 -259.99,-253.8 -576.06,-394.84 -1444.46,-89.17 -1600.34,657.95 -54.01,258.89 -4.72,567.73 145.18,785.32 21.86,31.72 9.07,18.44 36.13,38.87z"/>
   <path class="fil4" d="M14587.12 6776.8c3.36,162.88 16.75,113.25 24.62,189.51 9.29,90.04 -11.46,127.69 61.35,199.63 87.74,86.7 180.32,75.64 304.99,52.48l0.05 -26.41c0.89,-6.62 0.18,0.6 18.21,-22.24 35.53,-44.99 56.71,-65.98 63.58,-113.04 17.43,-119.54 -48.41,-506.07 -64.34,-647.09 -33.96,1.83 -42.85,13.2 -60,31.35l-292.85 290.82c-32.72,33.76 -15.34,29.59 -55.61,44.99z"/>
   <path class="fil3" d="M1288.84 8608.63c-8.32,64.7 16.87,130.2 26.84,203.7 4.86,35.86 9.58,68.78 14.16,101.06 8.74,61.47 19.79,51 24.44,98.19l33.52 10.05 329.15 -328.75c22.09,-32.59 11.44,-40.31 16.35,-85.14l-34.93 -335.07c-8.23,-48.62 -6.8,-6.77 -14.3,-61.51 -11.09,-80.97 -2.23,-58.17 -30.02,-117.97l-26.2 18.46c-3.03,2.35 -11.57,9.52 -14.37,11.92 -2.64,2.28 -20.64,19.67 -23.82,22.78l-255.27 257.15c-143.51,141.06 -24.52,67.05 -45.55,205.13z"/>
   <path class="fil4" d="M14326.12 9608.04l-282.19 670.19c42.82,-12.42 8.83,5.93 50.56,-33.61 19.75,-18.72 30.05,-30.75 47.09,-46.61l628.73 -629.43 8.92 34.96c53.32,-25.02 15,-10.13 51.12,-115.87l103.85 -417.59c-48.13,18.55 -130.73,113.78 -170.12,152.6l-144.9 146.11c-13.61,13.42 -22.63,22.12 -41,39.96l-231.24 223.72c-1.69,1.72 -4.17,4.32 -5.78,6 -1.63,1.69 -4.24,4.62 -5.69,6.15 -0.83,0.88 -15.46,17.47 -17.49,18.72l8.14 -55.3z"/>
   <path class="fil3" d="M1254.34 7090.17c5.82,64.53 14.01,42.12 61.63,85.46 59.77,54.4 118.42,62.78 200.92,48.15l52.17 -20.43c2.2,-1.36 4.93,-3.34 7.06,-4.77 129.86,-87.4 128.54,-294.5 142.9,-502.98 4.82,-69.95 26.7,-81.83 18.9,-134.67l4.9 -103.4c-56.13,25.88 -287.87,276.22 -363.86,346.21 -191.23,176.13 -107.87,129.46 -124.62,286.43z"/>
   <path class="fil3" d="M6965.27 1297.31c126.93,-12.09 223.43,-36.71 343.76,-51.71 196.03,-24.43 311.4,-2.59 411.2,-106.03 54.83,-56.85 56.3,-192.71 18.58,-256.7 -1.35,-2.3 -3.19,-5.15 -4.63,-7.33 -61.3,-92.63 -173.95,-111.87 -277.29,-90.39l-22.89 46.49c-2.3,3.07 -27.77,28.46 -28.96,29.56l-439.77 436.11z"/>
   <path class="fil2" d="M5706.91 5680.79c-42.21,-180.53 -161.69,-333.66 -57.07,-673.17 131.38,-426.34 559.65,-688.28 992.85,-612.25 116.22,20.4 207.74,56.32 297.59,108.77 58.23,33.98 199.41,129.91 215.99,177.78 -141.4,-311.14 -767.46,-560.94 -1229.05,-236.68 -287.62,202.05 -446.35,549.43 -364.93,923.11 23.79,109.21 79.16,255.77 144.62,312.44z"/>
   <path class="fil4" d="M14596.37 8395.33l-7.23 18.97c-3.26,11.15 -5.42,18.16 -7.91,30.16 -11.94,57.63 -5.45,105.52 -20.54,155.38l-41.35 202.06c40.25,-10.58 19.13,-27.09 59.25,-69.36l142.87 -136.71c0.2,-0.19 14.69,-13.87 18.37,-17.4l162.79 -162.3c25.52,-22.14 42.05,-42.02 63.88,-65.36 41.71,-44.59 35.33,-45.26 76.58,-61.87l-43.06 380.46c24.72,-30.96 120.49,-551.28 18.93,-600.79l-260.7 249.75c-1.72,1.69 -4.21,4.08 -5.93,5.76l-56.64 59.31c-1.72,1.66 -4.33,3.94 -6.08,5.56l-12.45 10.92c-33.19,29.88 -42.64,47.96 -78.38,64.99l-2.4 -69.53z"/>
   <path class="fil4" d="M11098.7 1891.5l234.82 134.02c2.59,1.37 5.38,2.88 8.02,4.27l26.7 13.74c2.37,1.21 6.36,3.22 9.53,4.83l-1.21 -39.29c41.75,-19.63 49.79,-40.97 80.21,-72.23l198.56 -195.65c1.14,-1.13 16.69,-15.47 19.12,-17.4l36.82 -25.29 -254.62 -147.2c-3.73,31.78 -9.56,36.35 -26.66,55.32l-11.84 11.59c-1.72,1.63 -4.32,3.9 -6.09,5.49l-202.29 195.09c-67.92,61.68 -51.84,67.67 -111.07,72.71z"/>
   <path class="fil4" d="M2043.43 10852.03c15.01,56.01 36.2,87.68 65.29,138.29 16.94,29.48 17.72,27.45 34.1,62.26 22.62,48.04 7.76,28.89 47.81,58.28l0.75 -44.65c43.51,-11.13 136.84,-115.81 170.59,-153.08 30.93,-34.16 106.99,-113.26 146.29,-127.27l15.05 25.65c2,2.08 7.2,4.93 10.37,7.92l-144.87 -272.38c-11.65,-14.88 -1.95,-4.61 -17.75,-20.61 -15.63,40.63 -49.51,64.46 -79.85,94.13l-247.78 231.46z"/>
   <path class="fil4" d="M1288.84 8608.63c21.03,-138.08 -97.96,-64.07 45.55,-205.13l255.27 -257.15c3.18,-3.11 21.18,-20.5 23.82,-22.78 2.8,-2.4 11.34,-9.57 14.37,-11.92l26.2 -18.46c-14.31,-40.89 -5.98,-24.05 -26.63,-50.2l-17.06 -18.23c-112.71,-104.21 -294.41,-44.89 -350.26,48.15 -69.93,116.48 -21.17,199.9 -16.47,257.36l16.74 221.77c6.97,58.61 -5.99,47.13 28.47,56.59z"/>
   <path class="fil4" d="M13105.27 11745.66c-43.51,15.26 -17.15,-6.73 -27.96,24.94 49.95,18.58 514.39,10.8 595.56,3.59 29.52,-54.06 22.07,-41.87 55.72,-89.08l128.4 -174.85c11.97,-17.1 18.86,-27.54 32.2,-48.6 22.76,-35.95 10.86,-15.95 33.91,-47.11 22.03,-29.77 46.39,-64.02 62.08,-89.31 42.29,-68.22 168.86,-254.75 175.09,-308.56l-109.52 117.72c-40.81,44.72 -76.13,70.24 -119.65,112.48l-267.79 269.8c-11.7,12.03 -5.41,5.48 -11.59,11.73l-41.07 39.11c-7.42,6.54 -10.93,9.25 -19.04,16.42 -219.79,194.41 -79.31,174.14 -397.67,179.85 -96.44,1.73 -86.92,5.3 -88.67,-18.13z"/>
   <path class="fil2" d="M3577.4 13591.1l412.14 -1.25 -103.56 -516.06c-42.93,30.8 -132.01,204.31 -160.42,252.37 -36.52,61.77 -132.77,205.89 -148.16,264.94z"/>
   <path class="fil2" d="M7130.89 13588.72l415.12 2.12 -105.94 -522.19c-59.68,83.57 -104.29,166.41 -157.58,256.18 -43.77,73.72 -125.04,193.45 -151.6,263.89z"/>
   <path class="fil2" d="M13278.28 13589.9l414.64 -1.31 -105.82 -519.51c-58,76.91 -108.99,174.98 -156.94,255.17 -38.69,64.71 -131.92,203.9 -151.88,265.65z"/>
   <path class="fil3" d="M14596.37 8395.33l2.4 69.53c35.74,-17.03 45.19,-35.11 78.38,-64.99l12.45 -10.92c1.75,-1.62 4.36,-3.9 6.08,-5.56l56.64 -59.31c1.72,-1.68 4.21,-4.07 5.93,-5.76l260.7 -249.75c-22.27,-49.18 -92.46,-82.4 -138.37,-93.63 -38.35,-9.39 -75.35,-6.12 -108.13,7.73 -88.15,37.22 -144.79,88.62 -155.91,195.47 -4.8,46.19 -24.19,191.4 -20.17,217.19z"/>
   <path class="fil4" d="M14347.84 5692.27c2.22,24.51 1.56,29.46 8.91,53.27l31.41 105.28c18.76,54.01 -10.55,24.25 31.51,45.02 20.98,-36.28 17.62,-27.52 43,-54.4l214.78 -216.23c11.94,-11.01 12.02,-10.03 25.74,-21.95l63.94 -62.09c-1.92,-47.59 -30.14,-129.92 -55.96,-159.86l-338.51 332.87c-2.86,-3.62 -23.14,-20.23 -24.82,-21.91z"/>
   <path class="fil4" d="M1264.95 6744.99l-15.24 33.62c-3.54,14.98 -3.83,30.54 -4.77,45.75 -5.69,91.55 -50.91,199.11 9.4,265.81 16.75,-156.97 -66.61,-110.3 124.62,-286.43 75.99,-69.99 307.73,-320.33 363.86,-346.21l-4.9 103.4c17.22,-29.06 26.97,-109.98 43.32,-171.78 6.19,-23.42 5.85,-36.22 7.78,-60.37 -45.44,9.67 -1.55,-9.97 -41.37,26.9l-288.61 282.11c-44.26,41.91 -152.01,167.36 -193.57,183.85l-0.52 -76.65z"/>
   <path class="fil4" d="M6858.76 1322.44c19.59,-0.79 39.52,-0.21 58.69,-4.24 58.42,-12.28 -2.98,1.79 47.82,-20.89l439.77 -436.11c1.19,-1.1 26.66,-26.49 28.96,-29.56l22.89 -46.49c-19.78,1.2 -44.32,-0.24 -61.1,1.04 -17.72,1.34 -16.36,0.16 -34.21,4.64 -48.32,12.13 -11.51,0.55 -31.08,12.49 29.43,14.96 24.73,-11.84 22.81,29.36 -36.09,18.7 -99.17,85.13 -128.06,115.38l-180.35 182.11c-23.8,26.98 -43.85,41.85 -66.5,62.62l-58.11 58.14c-25.69,26.62 -48.35,40.04 -61.53,71.51z"/>
   <path class="fil4" d="M2638.15 11758.99c17.12,23.17 -23.55,16.95 33.43,20.34l545.05 -2.63c3.61,-48.11 -29.11,-63.82 -76.71,-113.7 -16.98,-17.79 -25.53,-32.41 -39.51,-51.53 -1.95,-2.67 -20.17,-25.66 -20.81,-26.35 -26.07,-27.98 0.31,-10.98 -35.24,-30.43 -10.92,49.71 -39.26,69.12 -70.76,97.64l-78 74.84c-39.66,42.9 -39.88,36.2 -106.56,36.61 -50.35,0.31 -101.21,1.93 -150.89,-4.79z"/>
  </g>
 </g>
</svg>
